<svg xmlns="http://www.w3.org/2000/svg" viewBox="0 0 38 64"><defs><style>.cls-1{fill:#fff;}</style></defs><title>coffee-white</title><g id="Layer_2" data-name="Layer 2"><g id="Layer_1-2" data-name="Layer 1"><path class="cls-1" d="M36,7V5.5A5.55,5.55,0,0,0,30.5,0H7.5A5.55,5.55,0,0,0,2,5.5V7A2,2,0,0,0,0,9v7a2,2,0,0,0,2,2h.2l.3,8H2L3,51h.5l.6,13H33.9l.6-13H35l1-25h-.5l.3-8H36a2,2,0,0,0,2-2V9A2,2,0,0,0,36,7ZM30.6,47H7.4L6.7,30H31.3ZM30,59.9H8L7.6,51H30.4ZM6.5,26l-.3-7.9H31.8L31.5,26ZM34,14H4V11H34ZM6,5.5A1.54,1.54,0,0,1,7.5,4h23A1.54,1.54,0,0,1,32,5.5V7H6Z"/></g></g></svg>