<svg xmlns="http://www.w3.org/2000/svg" viewBox="0 0 194.96 194.96"><defs><style>.cls-1{fill:#d5dfeb;opacity:0.4;}.cls-2{fill:#98aab7;}</style></defs><title>Asset 8</title><g id="Layer_2" data-name="Layer 2"><g id="Layer_1-2" data-name="Layer 1"><circle class="cls-1" cx="97.48" cy="97.48" r="97.48"/><path class="cls-2" d="M97.35,54.62,57,68.82l6.37,52.83,34,18.68,34.17-18.94,6.37-52.83ZM128,118.87l-30.72,17L67,119.1,61.55,71.84,97.26,59.12l36.65,12.5Z"/><path class="cls-2" d="M97.26,61.91V79.84l.07-.15Zm0,42.79h0Z"/><polygon class="cls-2" points="123.34 117.54 114.44 117.37 108.97 104.69 97.28 104.69 97.26 104.69 97.26 104.69 86.62 104.69 81.62 117.2 72.32 117.37 97.26 61.91 97.26 79.84 89.9 97.3 97.26 97.3 97.65 97.31 106.37 97.6 97.32 79.69 97.26 61.91 123.34 117.54"/><polygon class="cls-2" points="97.65 97.31 105.74 97.31 97.32 79.69 106.37 97.6 97.65 97.31"/></g></g></svg>