<svg xmlns="http://www.w3.org/2000/svg" viewBox="0 0 194.96 194.96"><defs><style>.cls-1{fill:#d5dfeb;opacity:0.4;}.cls-2{fill:#98aab7;}</style></defs><title>Asset 6</title><g id="Layer_2" data-name="Layer 2"><g id="Layer_1-2" data-name="Layer 1"><circle class="cls-1" cx="97.48" cy="97.48" r="97.48"/><path class="cls-2" d="M86.37,63.36l3.87,1.2A7.48,7.48,0,0,1,89,67.39a5.47,5.47,0,0,1-2.13,1.71,7.89,7.89,0,0,1-3.25.58A9.48,9.48,0,0,1,79.7,69a6.18,6.18,0,0,1-2.61-2.43A8.2,8.2,0,0,1,76,62.1a7.56,7.56,0,0,1,1.93-5.56,7.33,7.33,0,0,1,5.45-1.94,7.3,7.3,0,0,1,4.34,1.13A6.67,6.67,0,0,1,90,59.22L86,60.1a3.38,3.38,0,0,0-.43-1,2.57,2.57,0,0,0-.92-.79,2.83,2.83,0,0,0-3.54.93,5.07,5.07,0,0,0-.61,2.81,5.11,5.11,0,0,0,.76,3.25,2.67,2.67,0,0,0,2.14.88,2.63,2.63,0,0,0,2-.73,4.47,4.47,0,0,0,1-2.12"/><path class="cls-2" d="M91.46,64.64l4.48-.26a3.33,3.33,0,0,0,.53,1.57,2.19,2.19,0,0,0,1.86.87,2,2,0,0,0,1.39-.46,1.41,1.41,0,0,0,.49-1.06,1.44,1.44,0,0,0-.43-1,5.07,5.07,0,0,0-2.24-.85,9.8,9.8,0,0,1-4.21-1.77,3.55,3.55,0,0,1-1.27-2.8,3.8,3.8,0,0,1,.65-2.12,4.33,4.33,0,0,1,2-1.57,9.22,9.22,0,0,1,3.59-.57,7.26,7.26,0,0,1,4.27,1.05A4.58,4.58,0,0,1,104.3,59l-4.48.27a2.75,2.75,0,0,0-.61-1.55,1.7,1.7,0,0,0-1.29-.49,1.39,1.39,0,0,0-1,.34,1.1,1.1,0,0,0-.34.82,1.27,1.27,0,0,0,.16.63q.15.29,1.34.54a18.74,18.74,0,0,1,4.21,1.29,4.44,4.44,0,0,1,1.85,1.62,4.15,4.15,0,0,1,.58,2.17,4.65,4.65,0,0,1-.78,2.6,4.86,4.86,0,0,1-2.17,1.8,8.74,8.74,0,0,1-3.51.61q-3.72,0-5.16-1.42a5.58,5.58,0,0,1-1.62-3.61"/><path class="cls-2" d="M106.13,64.64l4.48-.26a3.32,3.32,0,0,0,.53,1.57,2.19,2.19,0,0,0,1.86.87,2,2,0,0,0,1.39-.46,1.41,1.41,0,0,0,.49-1.06,1.44,1.44,0,0,0-.43-1,5.07,5.07,0,0,0-2.24-.85A9.8,9.8,0,0,1,108,61.66a3.55,3.55,0,0,1-1.27-2.8,3.8,3.8,0,0,1,.65-2.12,4.33,4.33,0,0,1,2-1.57,9.22,9.22,0,0,1,3.59-.57,7.26,7.26,0,0,1,4.27,1.05A4.58,4.58,0,0,1,119,59l-4.48.27a2.75,2.75,0,0,0-.61-1.55,1.7,1.7,0,0,0-1.29-.49,1.4,1.4,0,0,0-1,.34,1.1,1.1,0,0,0-.34.82,1.27,1.27,0,0,0,.16.63q.15.29,1.34.54a18.74,18.74,0,0,1,4.21,1.29,4.45,4.45,0,0,1,1.85,1.62,4.15,4.15,0,0,1,.58,2.17,4.65,4.65,0,0,1-.78,2.6,4.87,4.87,0,0,1-2.17,1.8,8.74,8.74,0,0,1-3.51.61q-3.72,0-5.16-1.42a5.58,5.58,0,0,1-1.62-3.61"/><polyline class="cls-2" points="72.14 75.05 69.72 87.16 119.02 87.16 117.48 94.99 68.15 94.99 65.76 107.1 115.06 107.1 112.31 120.91 92.44 127.49 75.22 120.91 76.4 114.92 64.29 114.92 61.41 129.46 89.89 140.36 122.72 129.46 127.07 107.59 127.95 103.2 133.55 75.05 72.14 75.05"/></g></g></svg>