<svg xmlns="http://www.w3.org/2000/svg" viewBox="0 0 194.96 194.96"><defs><style>.cls-1{fill:#d5dfeb;opacity:0.4;}.cls-2{fill:#98aab7;}</style></defs><title>Asset 4</title><g id="Layer_2" data-name="Layer 2"><g id="Layer_1-2" data-name="Layer 1"><circle class="cls-1" cx="97.48" cy="97.48" r="97.48"/><polyline class="cls-2" points="69.42 54.48 73.5 54.48 73.5 59 78.13 59 78.13 54.48 82.2 54.48 82.2 67.5 78.13 67.5 78.13 62.26 73.5 62.26 73.5 67.5 69.42 67.5 69.42 54.48"/><polyline class="cls-2" points="83.87 54.48 96.47 54.48 96.47 57.55 92.21 57.55 92.21 67.5 88.13 67.5 88.13 57.55 83.87 57.55 83.87 54.48"/><polyline class="cls-2" points="98.14 54.48 103.51 54.48 105.56 62.43 107.58 54.48 112.96 54.48 112.96 67.5 109.63 67.5 109.63 57.63 107.11 67.5 104.02 67.5 101.47 57.63 101.47 67.5 98.14 67.5 98.14 54.48"/><polyline class="cls-2" points="115.55 54.48 119.63 54.48 119.63 64.25 126.11 64.25 126.11 67.5 115.55 67.5 115.55 54.48"/><polyline class="cls-2" points="97.52 109.65 97.47 109.65 70.74 109.65 67.8 77.46 67.52 74.33 97.47 74.33 97.52 74.33 127.44 74.33 127.16 77.46 126.61 83.38 126.37 86.01 126.33 86.01 97.52 86.01 97.47 86.01 80.59 86.01 81.68 97.97 97.47 97.97 97.52 97.97 122.06 97.97 125.28 97.97 124.99 101.11 122.18 131.86 122 133.84 97.52 140.46 97.52 140.46 97.46 140.48 72.95 133.84 71.28 115.5 76.81 115.5 83.29 115.5 84.14 124.81 97.46 128.32 97.47 128.32 97.47 128.32 110.82 124.8 112.21 109.65 97.52 109.65"/></g></g></svg>