<svg xmlns="http://www.w3.org/2000/svg" viewBox="0 0 194.96 194.96"><defs><style>.cls-1{fill:#d5dfeb;opacity:0.4;}.cls-2{fill:#98aab7;}</style></defs><title>Asset 5</title><g id="Layer_2" data-name="Layer 2"><g id="Layer_1-2" data-name="Layer 1"><circle class="cls-1" cx="97.48" cy="97.48" r="97.48"/><path class="cls-2" d="M50.09,55.2h3.85V62a10.69,10.69,0,0,1-.38,3.27A3.76,3.76,0,0,1,52,67.21,5.21,5.21,0,0,1,49,68a6.94,6.94,0,0,1-3-.51A3.71,3.71,0,0,1,44.46,66a5.55,5.55,0,0,1-.68-2.43l3.85-.48a3.85,3.85,0,0,0,.14,1.16,1.25,1.25,0,0,0,.45.61,1.07,1.07,0,0,0,.62.15,1,1,0,0,0,.94-.48,3.25,3.25,0,0,0,.3-1.62V55.2"/><path class="cls-2" d="M61.91,63.61q-.68.24-1.42.43a3.29,3.29,0,0,0-1.28.53.85.85,0,0,0,0,1.25,1.15,1.15,0,0,0,.8.25,2.06,2.06,0,0,0,1-.27,1.63,1.63,0,0,0,.67-.65,2.17,2.17,0,0,0,.2-1v-.53m-2.63-1.75-3.5-.35A4.17,4.17,0,0,1,56.32,60a3,3,0,0,1,1-.93,4,4,0,0,1,1.3-.44,9.75,9.75,0,0,1,1.79-.15,14.14,14.14,0,0,1,2.49.17,3.18,3.18,0,0,1,1.56.73,2.58,2.58,0,0,1,.69,1.09,4,4,0,0,1,.25,1.35v4a4.88,4.88,0,0,0,.08,1,4.46,4.46,0,0,0,.35.93H62.5a3.4,3.4,0,0,1-.26-.54,3.86,3.86,0,0,1-.12-.59,4.42,4.42,0,0,1-1.33.93,5.51,5.51,0,0,1-2.11.37,3.53,3.53,0,0,1-2.42-.74,2.34,2.34,0,0,1-.83-1.82A2.37,2.37,0,0,1,56,63.77a4,4,0,0,1,2.2-1q1.92-.38,2.49-.54a11.55,11.55,0,0,0,1.21-.41,1.15,1.15,0,0,0-.23-.82,1.12,1.12,0,0,0-.81-.23,1.91,1.91,0,0,0-1.12.27A1.47,1.47,0,0,0,59.29,61.85Z"/><polyline class="cls-2" points="66.03 58.7 69.62 58.7 71.37 64.47 73.12 58.7 76.72 58.7 72.86 67.81 69.78 67.81 66.03 58.7"/><path class="cls-2" d="M83.9,63.61q-.68.24-1.42.43a3.29,3.29,0,0,0-1.28.53.84.84,0,0,0,0,1.25,1.16,1.16,0,0,0,.8.25,2.07,2.07,0,0,0,1-.27,1.63,1.63,0,0,0,.68-.65,2.18,2.18,0,0,0,.2-1v-.53m-2.63-1.75-3.5-.35A4.18,4.18,0,0,1,78.31,60a3,3,0,0,1,1-.93,4,4,0,0,1,1.3-.44,9.74,9.74,0,0,1,1.79-.15,14.14,14.14,0,0,1,2.49.17,3.18,3.18,0,0,1,1.56.73,2.57,2.57,0,0,1,.69,1.09,4,4,0,0,1,.25,1.35v4a4.88,4.88,0,0,0,.08,1,4.44,4.44,0,0,0,.35.93H84.49a3.43,3.43,0,0,1-.26-.54,3.9,3.9,0,0,1-.12-.59,4.42,4.42,0,0,1-1.33.93,5.51,5.51,0,0,1-2.11.37,3.53,3.53,0,0,1-2.42-.74,2.34,2.34,0,0,1-.83-1.82A2.37,2.37,0,0,1,78,63.77a4,4,0,0,1,2.2-1q1.92-.38,2.49-.54a11.58,11.58,0,0,0,1.21-.41,1.15,1.15,0,0,0-.23-.82,1.12,1.12,0,0,0-.81-.23,1.91,1.91,0,0,0-1.12.27A1.47,1.47,0,0,0,81.27,61.85Z"/><path class="cls-2" d="M94.76,63.66l3.85-.23a2.86,2.86,0,0,0,.46,1.35,1.88,1.88,0,0,0,1.6.75,1.69,1.69,0,0,0,1.2-.39,1.21,1.21,0,0,0,.42-.91,1.24,1.24,0,0,0-.37-.88,4.36,4.36,0,0,0-1.92-.73,8.44,8.44,0,0,1-3.62-1.52,3.05,3.05,0,0,1-1.09-2.41,3.27,3.27,0,0,1,.56-1.82,3.72,3.72,0,0,1,1.69-1.35,7.93,7.93,0,0,1,3.09-.49,6.25,6.25,0,0,1,3.67.91,3.94,3.94,0,0,1,1.5,2.89l-3.85.23a2.36,2.36,0,0,0-.53-1.33,1.46,1.46,0,0,0-1.11-.42,1.2,1.2,0,0,0-.88.29,1,1,0,0,0-.29.7,1.09,1.09,0,0,0,.14.54q.13.25,1.16.47a16.11,16.11,0,0,1,3.62,1.11,3.82,3.82,0,0,1,1.59,1.4,3.56,3.56,0,0,1,.5,1.87,4,4,0,0,1-.67,2.23,4.19,4.19,0,0,1-1.87,1.55,7.52,7.52,0,0,1-3,.53q-3.2,0-4.44-1.22a4.79,4.79,0,0,1-1.39-3.11"/><path class="cls-2" d="M114.56,64.31l3.5.35a4.5,4.5,0,0,1-.9,1.76,4.19,4.19,0,0,1-1.6,1.16,6.37,6.37,0,0,1-2.47.41,9.14,9.14,0,0,1-2.41-.27,4.2,4.2,0,0,1-1.66-.87,4.41,4.41,0,0,1-1.09-1.41,4.94,4.94,0,0,1-.39-2.15A5,5,0,0,1,108,61a4.19,4.19,0,0,1,1-1.22,4.47,4.47,0,0,1,1.25-.81,7,7,0,0,1,2.61-.42,6.27,6.27,0,0,1,3.4.76,4,4,0,0,1,1.64,2.22l-3.5.53a1.61,1.61,0,0,0-.52-.92,1.55,1.55,0,0,0-1-.31,1.57,1.57,0,0,0-1.3.64,3.1,3.1,0,0,0-.5,1.93,2.66,2.66,0,0,0,.5,1.75,1.58,1.58,0,0,0,1.27.6,1.7,1.7,0,0,0,1.08-.34,2.05,2.05,0,0,0,.65-1.06"/><path class="cls-2" d="M119.64,58.7h3.26v1.57a3.64,3.64,0,0,1,1-1.37,2,2,0,0,1,1.24-.37,3.83,3.83,0,0,1,1.7.46l-1.09,2.59a2.83,2.83,0,0,0-1-.25,1.22,1.22,0,0,0-1.07.56,5.54,5.54,0,0,0-.54,2.93v3h-3.5V58.7"/><path class="cls-2" d="M127.53,58.7H131v9.11h-3.5V58.7m0-3.5H131v2.45h-3.5Z"/><path class="cls-2" d="M136.61,63.31a3,3,0,0,0,.45,1.81,1.37,1.37,0,0,0,1.14.59,1.21,1.21,0,0,0,1-.57,3.4,3.4,0,0,0,.41-1.92,3.16,3.16,0,0,0-.42-1.83,1.25,1.25,0,0,0-1-.59,1.33,1.33,0,0,0-1.1.59,3.24,3.24,0,0,0-.44,1.91m-3.48,8V58.7h3.25v1.2a4.19,4.19,0,0,1,1.24-1,3.92,3.92,0,0,1,1.68-.36,3.26,3.26,0,0,1,2.82,1.39,5.74,5.74,0,0,1,1,3.43A5,5,0,0,1,142,66.8,3.56,3.56,0,0,1,139.29,68a4.28,4.28,0,0,1-1.46-.24,3.54,3.54,0,0,1-1.19-.71v4.28Z"/><path class="cls-2" d="M149.08,55.2v3.5H151v2.63h-1.93v3.3a1.75,1.75,0,0,0,.12.79.65.65,0,0,0,.62.3,3.94,3.94,0,0,0,1.11-.23l.26,2.24a12.62,12.62,0,0,1-2.44.26,4.34,4.34,0,0,1-1.94-.33,2,2,0,0,1-.92-1,5.74,5.74,0,0,1-.3-2.17V61.33h-1.23V58.7h1.23V57l3.5-1.81"/><polyline class="cls-2" points="112.29 101.03 122.67 101.08 121.8 108.08 121.33 111.84 119 130.59 91.55 139.94 66.42 130.59 67.96 118.13 78.34 118.13 77.72 123.26 92.91 128.91 109.52 123.26 110.98 111.5 79.03 111.5 68.65 111.44 69.52 104.45 70 100.69 72.32 81.94 99.78 72.59 124.9 81.94 123.36 94.4 112.98 94.4 113.6 89.26 98.41 83.62 81.8 89.26 80.34 101.03 112.29 101.03"/></g></g></svg>