<svg xmlns="http://www.w3.org/2000/svg" viewBox="0 0 194.96 194.96"><defs><style>.cls-1{fill:#d5dfeb;opacity:0.4;}.cls-2{fill:#98aab7;}</style></defs><title>Asset 7</title><g id="Layer_2" data-name="Layer 2"><g id="Layer_1-2" data-name="Layer 1"><circle class="cls-1" cx="97.48" cy="97.48" r="97.48"/><path class="cls-2" d="M61.42,99a1.48,1.48,0,0,0-.74-1.28l-12.24-7a1.44,1.44,0,0,0-.67-.19h-.13a1.46,1.46,0,0,0-.68.19l-12.24,7A1.48,1.48,0,0,0,34,99l0,19a.73.73,0,0,0,.37.64.71.71,0,0,0,.73,0l7.27-4.17a1.49,1.49,0,0,0,.74-1.28v-8.86a1.47,1.47,0,0,1,.74-1.28l3.1-1.78a1.46,1.46,0,0,1,.74-.2,1.43,1.43,0,0,1,.74.2l3.1,1.78a1.47,1.47,0,0,1,.74,1.28v8.86a1.49,1.49,0,0,0,.74,1.28l7.27,4.17a.72.72,0,0,0,.74,0,.74.74,0,0,0,.37-.64l0-19"/><path class="cls-2" d="M118.75,108.91a.37.37,0,0,1-.19.32l-4.2,2.42a.37.37,0,0,1-.37,0l-4.21-2.42a.37.37,0,0,1-.18-.32V104a.37.37,0,0,1,.18-.32l4.2-2.43a.37.37,0,0,1,.37,0l4.2,2.43a.37.37,0,0,1,.19.32v4.86m1.14-36a.74.74,0,0,0-1.1.65V92.38a.52.52,0,0,1-.78.45l-3.06-1.77a1.48,1.48,0,0,0-1.48,0l-12.25,7.07a1.48,1.48,0,0,0-.74,1.28v14.14a1.48,1.48,0,0,0,.74,1.28l12.24,7.07a1.48,1.48,0,0,0,1.48,0l12.25-7.07a1.48,1.48,0,0,0,.74-1.28V78.31a1.48,1.48,0,0,0-.76-1.29Z"/><path class="cls-2" d="M160.24,103.92a1.48,1.48,0,0,0,.74-1.28V99.22a1.48,1.48,0,0,0-.74-1.28l-12.17-7.06a1.48,1.48,0,0,0-1.48,0l-12.24,7.07a1.48,1.48,0,0,0-.74,1.28v14.13a1.48,1.48,0,0,0,.75,1.28l12.17,6.93a1.48,1.48,0,0,0,1.45,0l7.36-4.09a.74.74,0,0,0,0-1.29L143,109.13a.74.74,0,0,1-.37-.64v-4.43a.74.74,0,0,1,.37-.64l3.83-2.21a.74.74,0,0,1,.74,0l3.84,2.21a.74.74,0,0,1,.37.64v3.48a.74.74,0,0,0,1.11.64l7.33-4.26"/><path class="cls-2" d="M80.23,90.8a1.48,1.48,0,0,1,1.48,0L94,97.86a1.48,1.48,0,0,1,.74,1.28v14.14a1.48,1.48,0,0,1-.74,1.28l-12.24,7.07a1.48,1.48,0,0,1-1.48,0L68,114.57a1.48,1.48,0,0,1-.74-1.28V99.14A1.48,1.48,0,0,1,68,97.86L80.23,90.8"/></g></g></svg>