<svg xmlns="http://www.w3.org/2000/svg" viewBox="0 0 930 527.49"><defs><style>.cls-1{fill:#162126;opacity:0.26;}.cls-2{fill:#64585c;}.cls-3{fill:#9ed2a7;}.cls-4{fill:#537d6f;}.cls-5{fill:#5b4c52;}.cls-6{fill:#756b6f;}.cls-7{fill:#2f3446;}.cls-8{fill:#ff5252;}.cls-9{fill:#1d2230;}.cls-10{fill:#bffac4;}.cls-11{opacity:0.5;}.cls-12{fill:#4c3941;}.cls-13{fill:#423038;}.cls-14{opacity:0.15;}.cls-15{fill:#020202;}.cls-16{fill:#f7f2e1;}.cls-17{fill:#e6e2bd;}</style></defs><title>Asset 1</title><g id="Layer_2" data-name="Layer 2"><g id="Layer_1-2" data-name="Layer 1"><ellipse class="cls-1" cx="465" cy="499.49" rx="465" ry="28.01"/><path class="cls-2" d="M831.5,454.75h-718V8.33A8.33,8.33,0,0,1,121.83,0H823.17a8.33,8.33,0,0,1,8.33,8.33Z"/><rect class="cls-3" x="145.22" y="33.69" width="655.57" height="394.75"/><rect class="cls-4" x="147.32" y="420.5" width="650.18" height="6.85"/><rect class="cls-4" x="146.74" y="36.5" width="651.18" height="8.5"/><rect class="cls-4" x="147.58" y="40.66" width="8.42" height="386.84"/><rect class="cls-4" x="789.58" y="40.66" width="8.42" height="386.84"/><rect class="cls-5" x="143.52" y="29" width="657.97" height="8"/><path class="cls-6" d="M793.54,439h-642a8,8,0,0,1-8-8h658A8,8,0,0,1,793.54,439Z"/><circle class="cls-7" cx="472.5" cy="17" r="5"/><circle class="cls-8" cx="483.5" cy="17" r="2.5"/><circle class="cls-9" cx="472.5" cy="17" r="2.5"/><rect class="cls-4" x="233" y="74.56" width="162" height="153"/><rect class="cls-4" x="414" y="291.56" width="299" height="96"/><rect class="cls-10" x="414" y="183.06" width="299" height="96"/><rect class="cls-4" x="414" y="74.56" width="299" height="96"/><rect class="cls-10" x="233" y="244.56" width="162" height="143"/><path class="cls-5" d="M73.83,454H47.7c-5.58,0-9.67,4.73-8.5,9.73C44.07,484.46,64.2,500,88.29,500H861.21c24.09,0,44.22-15.54,49.09-36.27,1.17-5-2.92-9.73-8.5-9.73H890.41"/><g class="cls-11"><path class="cls-12" d="M910.3,463.73c-4.87,20.73-25,36.27-49.09,36.27H88.29c-24.09,0-44.22-15.54-49.09-36.27a7.53,7.53,0,0,1,1.64-6.64c6.81,18,25.48,30.91,47.45,30.91H861.21c22,0,40.64-12.92,47.45-30.91A7.53,7.53,0,0,1,910.3,463.73Z"/></g><path class="cls-12" d="M552.25,472h-155a18,18,0,0,1-18-18h191A18,18,0,0,1,552.25,472Z"/><path class="cls-13" d="M570.5,454a18,18,0,0,1-18,18h-155a17.94,17.94,0,0,1-15.17-8.33A17.85,17.85,0,0,0,392,466.5H547A18,18,0,0,0,564.14,454Z"/><g class="cls-14"><rect class="cls-15" x="750.5" y="104" width="81" height="101"/></g><rect class="cls-16" x="750.5" y="92" width="136" height="101"/><polyline class="cls-17" points="886.5 193 750.5 193 750.5 189.5 883 189.5 886.5 189.5"/><rect class="cls-2" x="768.5" y="112" width="78" height="6"/><rect class="cls-2" x="768.5" y="127.25" width="43" height="6"/><rect class="cls-2" x="768.5" y="157.75" width="43" height="6"/><rect class="cls-2" x="768.5" y="173" width="43" height="6"/><rect class="cls-2" x="768.5" y="142.5" width="95" height="6"/><rect class="cls-4" x="431.5" y="197" width="265" height="7"/><rect class="cls-4" x="431.5" y="213.33" width="129.5" height="7.17"/><rect class="cls-4" x="431.5" y="229.67" width="180.5" height="6.83"/><rect class="cls-4" x="431.5" y="246" width="207.5" height="6.5"/><g class="cls-14"><rect class="cls-15" x="113.5" y="173" width="81" height="101"/></g><rect class="cls-16" x="58.5" y="161" width="136" height="101"/><polyline class="cls-17" points="194.5 262 58.5 262 58.5 258.5 191 258.5 194.5 258.5"/><rect class="cls-2" x="76.5" y="181" width="78" height="6"/><rect class="cls-2" x="76.5" y="196.25" width="43" height="6"/><rect class="cls-2" x="76.5" y="226.75" width="43" height="6"/><rect class="cls-2" x="76.5" y="242" width="43" height="6"/><rect class="cls-2" x="76.5" y="211.5" width="95" height="6"/></g></g></svg>