<svg xmlns="http://www.w3.org/2000/svg" viewBox="0 0 324.13 490.57"><defs><style>.cls-1{fill:#fa90c4;}.cls-2{fill:#ff94c7;}.cls-3{fill:#e07eb1;}.cls-4{fill:#dfe7ea;}.cls-5{fill:#d5f22a;}.cls-6,.cls-8{fill:#9aa811;}.cls-6{opacity:0.5;}.cls-7{fill:#c7d823;}.cls-9{fill:#fff;}.cls-10{fill:#86b9f8;}.cls-11{fill:#7e840f;}.cls-12{fill:#304349;}.cls-13{fill:none;stroke:#42565e;stroke-linecap:round;stroke-miterlimit:10;stroke-width:8px;}.cls-14{fill:#f9637c;}.cls-15{fill:#a18dc3;}.cls-16{fill:#2e2f4b;}.cls-17{fill:#ee7165;}.cls-18{fill:#ba4264;}</style></defs><title>404-illustration</title><g id="Layer_2" data-name="Layer 2"><g id="Layer_1-2" data-name="Layer 1"><path class="cls-1" d="M241.75,65.64A48.46,48.46,0,0,1,252.32,54a39.45,39.45,0,0,1,11-6.22,20.59,20.59,0,0,1,8.63-1.4c2.28.22,3.88,1.06,4.66,2.43,1.59,2.79-.37,7.06-3.63,12S265.24,71.63,261,78.13c-2.1,3.25-4,6.49-5.83,9.5s-3.39,5.81-4.91,8.23a39,39,0,0,1-4.38,6c-1.43,1.51-2.92,2.49-4.51,2.52s-3.11-.93-4.42-2.9a19.46,19.46,0,0,1-2.65-8.65A38.38,38.38,0,0,1,235.44,80,48.84,48.84,0,0,1,241.75,65.64Z"/><path class="cls-1" d="M285.44,93.33a48.46,48.46,0,0,1,14.69-5.58,39.44,39.44,0,0,1,12.61-.56,20.58,20.58,0,0,1,8.33,2.66c1.93,1.23,3,2.7,3.05,4.28.15,3.21-3.53,6.12-8.7,9.08s-11.76,6.1-18.45,10c-3.35,1.95-6.55,4-9.51,5.82s-5.66,3.64-8.11,5.11a39,39,0,0,1-6.63,3.38c-2,.7-3.73.89-5.17.2s-2.35-2.24-2.63-4.59a19.46,19.46,0,0,1,1.56-8.91,38.37,38.37,0,0,1,6.8-10.92A48.84,48.84,0,0,1,285.44,93.33Z"/><path class="cls-1" d="M214.76,25.6a48.46,48.46,0,0,1,7.7-13.7,39.45,39.45,0,0,1,9.32-8.51,20.58,20.58,0,0,1,8.1-3.29c2.27-.3,4,.17,5.09,1.33,2.17,2.36,1.21,7-.85,12.55s-5.11,12.22-7.75,19.5C235,37.1,233.87,40.69,232.79,44s-2,6.42-2.94,9.12A39,39,0,0,1,226.92,60c-1.05,1.79-2.29,3.08-3.84,3.46s-3.24-.21-5-1.84a19.46,19.46,0,0,1-4.52-7.84A38.38,38.38,0,0,1,211.83,41,48.84,48.84,0,0,1,214.76,25.6Z"/><path class="cls-2" d="M286.12,215.45a33.83,33.83,0,0,0-10.52-24.56,34,34,0,0,0-45.24-42.06,34,34,0,1,0-55,37.83,34,34,0,0,0,26.49,55.2q.59,0,1.17,0a34,34,0,1,0,66.25,3A34,34,0,0,0,286.12,215.45Z"/><path class="cls-3" d="M269.25,245.8a33.46,33.46,0,0,1,.52,5.87,34,34,0,0,1-41.47,33.14,34,34,0,0,0,26.47-33.14,33.46,33.46,0,0,0-.52-5.87,34,34,0,0,0,6.35-53.91,34,34,0,0,0-24.71-43.8,33.25,33.25,0,0,1,7.46-.84,34,34,0,0,1,32.25,44.64,34,34,0,0,1-6.35,53.91Z"/><ellipse class="cls-4" cx="160.42" cy="459.09" rx="107.01" ry="31.47"/><circle class="cls-5" cx="280" cy="313.88" r="29"/><path class="cls-6" d="M295,313.88a29,29,0,0,1-24.5,28.66,29,29,0,0,1,0-57.32A29,29,0,0,1,295,313.88Z"/><circle class="cls-5" cx="29" cy="315.88" r="29"/><path class="cls-7" d="M14,315.88a29,29,0,0,0,24.5,28.66,29,29,0,0,0,0-57.32A29,29,0,0,0,14,315.88Z"/><path class="cls-8" d="M279.87,301.88v41c0,68.2-55.8,124-124,124s-124-55.8-124-124v-41c0-68.2,55.8-124,124-124a123.71,123.71,0,0,1,20.22,1.66c3.81,11.87,13.49,23.74,24.2,26.57v.65a29,29,0,0,0,43,25.38,29.1,29.1,0,0,0,16.37,5.14h.1a18.74,18.74,0,0,1,2.06.39A123,123,0,0,1,279.87,301.88Z"/><path class="cls-5" d="M156,177.88v289c-68.2,0-124-55.8-124-124v-41C32,233.68,87.8,177.88,156,177.88Z"/><path class="cls-9" d="M266,268A60.9,60.9,0,0,1,268.7,277a45.71,45.71,0,0,1,1.05,7.54c.2,4.35-.45,7.08-1.48,7.21s-2.31-2.27-3.82-6.09-3.37-9.06-5.62-14.74-4.51-10.76-6-14.57-2.28-6.42-1.41-7.05,3.19.93,6,4.23a45.71,45.71,0,0,1,4.42,6.2A60.9,60.9,0,0,1,266,268Z"/><path class="cls-9" d="M272.84,305.41a9,9,0,0,1-1.35,4.9,3.17,3.17,0,0,1-2.91,1.68c-2.1-.32-3.4-3.26-3.4-6.6s1.33-6.28,3.44-6.58a3.17,3.17,0,0,1,2.9,1.69A9,9,0,0,1,272.84,305.41Z"/><path class="cls-8" d="M141.66,253.29c2.76,3.85,1.06,10.47-2.72,15.07-7.46,9.07-20.38,10.14-31.4,13.11a156.47,156.47,0,0,1-16.93,3.47c-6.22,1-11.86,3.93-17.82,6.12-7.89,2.9-9.52,4.15-5.18-.92a89.53,89.53,0,0,1,20.86-17.55c14.71-8.7,34.48-16.06,52.82-19.41Z"/><path class="cls-10" d="M137.74,248c2.76,3.85,3.84,9.63.06,14.23-4.41,5.36-13.4,6.73-21,8.4a151.58,151.58,0,0,0-27,8.56c-6.95,3-12.71,7.4-19.91,10-7.89,2.9-10.57.67-6.23-4.4a89.53,89.53,0,0,1,20.86-17.55c14.71-8.7,34.48-16.06,52.82-19.41Z"/><path class="cls-11" d="M169.09,251.43c-3.07,3.6-1.94,10.34,1.44,15.24,6.67,9.67,19.46,11.82,30.18,15.71a156.47,156.47,0,0,0,16.58,4.88c6.11,1.47,11.49,4.91,17.24,7.6,7.62,3.56,9.14,4.93,5.24-.48a89.53,89.53,0,0,0-19.31-19.25c-13.92-9.91-33-18.91-51-23.79Z"/><path class="cls-10" d="M166.94,243.91c-3.07,3.6-4.64,9.27-1.26,14.17,3.94,5.71,12.79,7.83,20.24,10.14A151.58,151.58,0,0,1,212.05,279c6.67,3.55,12,8.44,19,11.69,7.62,3.56,10.48,1.56,6.58-3.86a89.53,89.53,0,0,0-19.31-19.25c-13.92-9.91-33-18.91-51-23.79Z"/><path class="cls-12" d="M137.44,317.55c0,.29,0,.58,0,.88A28.33,28.33,0,0,0,110,345.86c-.29,0-.58,0-.88,0a28.33,28.33,0,1,1,28.33-28.33Z"/><path class="cls-12" d="M175.78,317.55c0,.29,0,.58,0,.88a28.33,28.33,0,0,1,27.44,27.44c.29,0,.58,0,.88,0a28.33,28.33,0,1,0-28.33-28.33Z"/><path class="cls-13" d="M272.94,350.67"/><path class="cls-9" d="M236.6,193.53a3.34,3.34,0,0,1,2.13,2.2,3.37,3.37,0,0,1-.55,2.85,5.91,5.91,0,0,1-2.14,1.86,2.09,2.09,0,0,1-3.32-1.16,5.91,5.91,0,0,1-.51-2.79,3.37,3.37,0,0,1,1.35-2.57A3.34,3.34,0,0,1,236.6,193.53Z"/><ellipse class="cls-12" cx="156.87" cy="362.38" rx="17" ry="3.5"/><rect class="cls-14" x="208.87" y="328.38" width="4" height="49"/><circle class="cls-9" cx="224.37" cy="386.88" r="24.5"/><path class="cls-15" d="M244.64,373.11a24.51,24.51,0,0,0-34,34,24.5,24.5,0,1,1,34-34Z"/><circle class="cls-16" cx="227.37" cy="389.88" r="8.5"/><path class="cls-2" d="M261.83,237.67a18.74,18.74,0,0,0-2.06-.39h-.1a29.1,29.1,0,0,1-16.37-5.14,29,29,0,0,1-43-25.38v-.65c-10.71-2.83-20.39-14.7-24.2-26.57q4.52.75,8.91,1.82a124.87,124.87,0,0,1,71.29,48Q259.21,233.39,261.83,237.67Z"/><path class="cls-9" d="M185.65,144.65a23.52,23.52,0,0,1,7.34-3.29,19.4,19.4,0,0,1,3.49-.5c.55,0,1.08-.07,1.59,0s1,.08,1.47.14a11,11,0,0,1,2.46.56,8.74,8.74,0,0,1,1,.36q.43.23.78.45c.91.6,1.31,1.17,1.2,1.69-.24,1.09-2.32,1.51-5.09,2.35l-1.08.33c-.37.11-.75.28-1.14.41-.79.24-1.59.63-2.44,1a32,32,0,0,0-9.76,6.69c-.61.67-1.27,1.28-1.78,1.93-.26.32-.56.61-.8.92s-.46.61-.69.89c-1.79,2.29-2.93,4.07-4,3.91-.52-.08-.91-.66-1.14-1.73q-.09-.4-.14-.89a8.72,8.72,0,0,1,0-1,11,11,0,0,1,.36-2.49q.18-.68.4-1.42c.16-.49.39-1,.61-1.47a19.4,19.4,0,0,1,1.72-3.07A23.52,23.52,0,0,1,185.65,144.65Z"/><circle class="cls-17" cx="155.87" cy="407.38" r="34"/><path class="cls-18" d="M189.87,407.38a34,34,0,0,1-.62,6.5,34,34,0,0,0-66.76,0,34,34,0,1,1,67.38-6.5Z"/></g></g></svg>