<svg xmlns="http://www.w3.org/2000/svg" viewBox="0 0 633 558"><defs><style>.cls-1{fill:#2b2b2b;}</style></defs><title>Asset 1</title><g id="Layer_2" data-name="Layer 2"><g id="Layer_1-2" data-name="Layer 1"><g id="Page-1"><g id="Group-8"><g id="Group-7"><g id="Group-6"><g id="Group-4-Copy"><g id="Group"><g id="logo"><path id="Shape" class="cls-1" d="M627.51,318a364.34,364.34,0,0,1-12.4-50.29q-1.26-7-2.31-14.07l-.47-3.18c-.28-2.92-.74-5.84-1.1-8.75q-2-17.28-3.06-34.67c-1.32-21.16.1-42.69-2.45-63.72-2.08-17.16-6.4-33-14.36-48.43-25.1-48.73-80-73.93-131.07-85.29A394.71,394.71,0,0,0,374,0Q316.35.12,258.67,0a391.76,391.76,0,0,0-87.46,10c-51,11.59-106,37.28-130.32,86.45C33.14,112.1,29,127.9,27.06,145.22c-1,9.07-.74,18.18-.88,27.29q-.3,18.89-1.53,37.79-1.15,17.22-3.2,34.36c-.11.92-1.23,9-.64,5.1s-.59,4-.74,4.85q-1.2,7.88-2.64,15.72A433.51,433.51,0,0,1,4.93,319.77c-14.37,46.58,3.56,97,42.07,126,16.16,12.19,35.19,21.3,53.17,30.47,20,10.24,40.29,19.84,60.76,29.06q31.15,14,62.78,27c17.15,7.07,34.47,15,52.24,20.46,13.95,4.25,28.38,5.13,42.85,5.25a125.54,125.54,0,0,0,42.68-6.69c17.27-6.12,34.21-13.38,51.16-20.38,41.86-17.36,83.42-35.67,123.68-56.48,19.33-10,39.41-20,56.28-33.83,17.39-14.23,30.11-34.71,36.18-56.26A116.06,116.06,0,0,0,627.51,318Zm-70.16,85.61-.48.33C558,403.07,560.48,401.54,557.35,403.65Zm24.06-41.9v.31a3,3,0,0,1-.1.47,106.54,106.54,0,0,1-4,14.7c-.19.53-.44,1.07-.66,1.61v.07c-.92,1.75-1.77,3.54-2.74,5.26q-1.67,3-3.55,5.8c-.55.82-1.15,1.63-1.7,2.44a102,102,0,0,1-9.55,9.79c-.53.46-1.88,1.34-2.45,2-2,1.32-3.9,2.62-5.95,3.85-35.93,21.7-74.19,39.7-112.51,56.73Q424.06,471,409.93,477l-2.65,1.12-6.53,2.73q-6.92,2.88-13.86,5.71C370,493.47,352.58,502,334.68,505.69c-1.31.27-2.62.5-3.95.74h-.51c-3,.22-6,.41-9.08.41-6.42,0-12.77-.18-19.18-.52h-.06c-1.1-.27-2.23-.4-3.37-.63-3-.62-5.95-1.38-8.88-2.27-4.9-1.49-9.67-3.44-14.43-5.3q-24.64-9.59-49-19.83c-1-.45-2-.82-3-1.24l-7-3q-8-3.43-15.94-6.94-14.51-6.41-28.87-13c-19.33-8.92-38.48-18.27-57.3-28.24-3.52-1.87-7-3.77-10.49-5.68,30.81-44,96.17-91.51,96.17-91.51-34.21-10-105.45,20.06-146.74,39.91-.44-1.72-.85-3.46-1.18-5.2-.12-.63-.33-2.31-.38-2.55a89.46,89.46,0,0,1-.11-13.64,12.63,12.63,0,0,1,.22-1.61C100.78,299,191.5,241.71,191.5,241.71,163.6,223.13,107.56,242,71,257.95c3.06-22.7,5.15-45.47,6-68.37.43-11.33.28-22.67.62-34,.1-3.27.39-6.51.68-9.76q.45-2.68,1-5.32c1.29-5.94,3.79-11.48,5.41-17.28q.94-2,2-3.89,2.06-3.84,4.46-7.5,1.17-1.81,2.42-3.55c1.75-2,3.35-4.09,5.15-6a136.56,136.56,0,0,1,12.6-11.72c.94-.68,1.87-1.37,2.81-2q3.52-2.46,7.18-4.72a175.52,175.52,0,0,1,15.62-8.55c2.32-1.13,4.66-2.18,7-3.23,1.4-.55,2.79-1.12,4.19-1.66q8-3,16.17-5.52a309.82,309.82,0,0,1,32.76-8q6.42-1.21,12.89-2.18a30.37,30.37,0,0,1,3-.47h.26l2.23-.31-1.66.25c2.07-.25,4.15-.51,6.23-.74A342.64,342.64,0,0,1,255.8,51.2c31.23-.07,62.41,0,93.62,0,10.61,0,21.24-.17,31.85,0,5.76.11,11.52.39,17.26.8q6,.42,12.07,1,3.25.33,6.49.74l2.19.27c21.3,3.23,42.39,7.73,62.64,15.14,2.47.9,4.91,1.88,7.35,2.84,1.32.59,2.64,1.17,3.95,1.78,5.38,2.51,10.65,5.25,15.75,8.28s9.51,6.33,14.27,9.54c-7.95-5.36.25.29,2.28,2.07q3.41,3,6.6,6.22,3,3,5.76,6.31c.79.94,1.49,2,2.37,2.9l-.74-.74a6.31,6.31,0,0,1,.54.74,113.86,113.86,0,0,1,8.74,15.14l.1.21c.39,1,.79,2,1.15,3.06q1.64,4.67,2.85,9.47c.74,3,1.32,6,1.86,9,.18,1.87.36,3.72.48,5.6,1.34,22.29.74,44.7,2.49,67a632.23,632.23,0,0,0,8.57,66.08,358.89,358.89,0,0,0,11.8,46.89,121.06,121.06,0,0,1,3.42,13.52c.08,1,.15,2.16.14,2q.27,3.87.19,7.74Q581.73,358.35,581.41,361.76Zm-.1-18a6.59,6.59,0,0,1,.15,1.2A5.2,5.2,0,0,1,581.31,343.74Z"/></g></g></g></g></g></g></g></g></g></svg>