<svg xmlns="http://www.w3.org/2000/svg" viewBox="0 0 60 60"><defs><style>.cls-1{fill:#fff;}</style></defs><title>Asset 1erre</title><g id="Layer_2" data-name="Layer 2"><g id="Layer_1-2" data-name="Layer 1"><path class="cls-1" d="M39.27,22.58h0c.5,0,1,0,1.51,0A1.22,1.22,0,0,0,42,21.35V18.46a1.23,1.23,0,0,0-1.24-1.24H37.83a1.23,1.23,0,0,0-1.24,1.24c0,1,0,1.91,0,2.86a1.4,1.4,0,0,0,.07.43,1.23,1.23,0,0,0,1.21.82ZM30,23.82a6.18,6.18,0,1,0,6.18,6.32A6.18,6.18,0,0,0,30,23.82Zm-12,3.3v.08Q18,34,18,40.74A1.23,1.23,0,0,0,19.26,42H40.74A1.23,1.23,0,0,0,42,40.74Q42,34,42,27.21v-.09H39a9.55,9.55,0,0,1,.38,4,9.32,9.32,0,0,1-1.32,3.8,9.48,9.48,0,0,1-12.72,3.35,9.27,9.27,0,0,1-3.68-3.71A9.47,9.47,0,0,1,21,27.12ZM42.21,45.26l.47-.08a3.3,3.3,0,0,0,2.51-2.56c0-.14,0-.27.07-.41V17.79c0-.13,0-.27-.06-.4a3.3,3.3,0,0,0-2.78-2.62l-.17,0H17.76l-.44.08a3.29,3.29,0,0,0-2.55,2.77l0,.17V42.24c0,.15,0,.31.08.47a3.3,3.3,0,0,0,2.77,2.52l.19,0ZM30,60A30,30,0,1,1,60,30,30,30,0,0,1,30,60Z"/></g></g></svg>