<svg xmlns="http://www.w3.org/2000/svg" viewBox="0 0 60 60"><defs><style>.cls-1{fill:#fff;}</style></defs><title>Asset 1</title><g id="Layer_2" data-name="Layer 2"><g id="Layer_1-2" data-name="Layer 1"><path class="cls-1" d="M34.17,18.28a6.07,6.07,0,0,0-4.09,6.1l.06,1-1-.13a17,17,0,0,1-10-4.91L17.74,19l-.36,1a6.12,6.12,0,0,0,1.3,6.27c.84.89.65,1-.8.49a2.49,2.49,0,0,0-1-.23,7.61,7.61,0,0,0,.75,2.84,6.77,6.77,0,0,0,2.87,2.71l1,.49-1.22,0c-1.17,0-1.22,0-1.09.47a6.34,6.34,0,0,0,3.92,3.47l1.3.44-1.13.68a11.75,11.75,0,0,1-5.62,1.57A6.16,6.16,0,0,0,16,39.4a16,16,0,0,0,4,1.86A17.68,17.68,0,0,0,33.79,39.7a18.42,18.42,0,0,0,7-8.22,21.85,21.85,0,0,0,1.42-6.35c0-1,.06-1.1,1.24-2.27a13.81,13.81,0,0,0,1.47-1.63c.21-.4.19-.4-.88,0-1.78.64-2,.55-1.15-.4a6.17,6.17,0,0,0,1.42-2.27c0-.06-.31,0-.67.23a11.58,11.58,0,0,1-1.84.72l-1.13.36-1-.7a8.52,8.52,0,0,0-1.78-.93A7.16,7.16,0,0,0,34.17,18.28ZM30,60A30,30,0,1,1,60,30,30,30,0,0,1,30,60Z"/></g></g></svg>