<svg xmlns="http://www.w3.org/2000/svg" xmlns:xlink="http://www.w3.org/1999/xlink" viewBox="0 0 94.11 70.33"><defs><style>.cls-1{fill:#fff;}.cls-2{fill:#cec1bc;}.cls-3,.cls-6,.cls-8{fill:#389bf3;}.cls-3,.cls-4{opacity:0.8;}.cls-10,.cls-4,.cls-7{fill:#ff9d23;}.cls-5,.cls-9{fill:#aa7dff;}.cls-10,.cls-8,.cls-9{opacity:0.5;}.cls-11,.cls-12,.cls-14,.cls-15,.cls-16{fill:none;stroke-miterlimit:10;}.cls-11,.cls-12{stroke:#732e54;stroke-width:2px;}.cls-12,.cls-14,.cls-15,.cls-16{stroke-linecap:round;}.cls-13{fill:url(#lukaszadam_gradient);}.cls-14,.cls-15,.cls-16{stroke:#fff;}.cls-15{opacity:0.3;}.cls-16{opacity:0.7;}</style><linearGradient id="lukaszadam_gradient" x1="19" y1="42.18" x2="74.91" y2="42.18" gradientUnits="userSpaceOnUse"><stop offset="0.04" stop-color="#f27b40"/><stop offset="1" stop-color="#ec697d"/></linearGradient></defs><title>Asset 24</title><g id="Layer_2" data-name="Layer 2"><g id="Layer_1-2" data-name="Layer 1"><path class="cls-1" d="M46.9,26.91H89.45a3.29,3.29,0,0,1,3.29,3.29V64.52a3.29,3.29,0,0,1-3.29,3.29H46.9a3.37,3.37,0,0,1-3.37-3.37V30.28A3.37,3.37,0,0,1,46.9,26.91Z"/><path class="cls-2" d="M92.43,29.47V64.28c0,1.69.83,3-.85,3H46.35a3.11,3.11,0,0,1-3.06-2.46A2.49,2.49,0,0,0,44,65H87a3,3,0,0,0,3-3.05V27.09A2.81,2.81,0,0,0,90,26.5,3,3,0,0,1,92.43,29.47Z"/><path class="cls-3" d="M58.49,12.91,36.65,27.1a2.87,2.87,0,1,1-3.13-4.82L55.35,8.09a2.88,2.88,0,0,1,3.14,4.82Z"/><path class="cls-4" d="M29.3,31.88,14.7,41.37a2.88,2.88,0,0,1-3.14-4.82l14.61-9.49a2.87,2.87,0,0,1,3.13,4.82Z"/><path class="cls-5" d="M48.23,9.57,26.4,23.77a2.88,2.88,0,0,1-3.14-4.83L45.1,4.75a2.87,2.87,0,1,1,3.13,4.82Z"/><path class="cls-6" d="M19.05,28.54,4.44,38a2.88,2.88,0,0,1-3.13-4.83l14.6-9.49a2.88,2.88,0,0,1,3.14,4.82Z"/><path class="cls-7" d="M54.82,5.29l-.13.08A2.88,2.88,0,1,1,51.55.55l.13-.08a2.88,2.88,0,0,1,3.14,4.82Z"/><path class="cls-8" d="M57.38,23.64,35.54,37.83A2.88,2.88,0,1,1,32.4,33l21.84-14.2a2.88,2.88,0,0,1,3.14,4.83Z"/><path class="cls-9" d="M28.19,42.61,13.59,52.1a2.88,2.88,0,1,1-3.14-4.82l14.61-9.49a2.87,2.87,0,0,1,3.13,4.82Z"/><path class="cls-10" d="M64,19.35l-.13.09a2.88,2.88,0,1,1-3.14-4.82l.14-.09A2.87,2.87,0,1,1,64,19.35Z"/><path class="cls-11" d="M45.09,27H89.9a3.22,3.22,0,0,1,3.22,3.22V64.71a3.22,3.22,0,0,1-3.22,3.22H45.09a1.18,1.18,0,0,1-1.18-1.18V28.21A1.18,1.18,0,0,1,45.09,27Z"/><line class="cls-12" x1="80.08" y1="34.79" x2="93.11" y2="34.79"/><line class="cls-12" x1="43.91" y1="34.79" x2="59.87" y2="34.79"/><path class="cls-13" d="M71.55,36.41H69.33A3.41,3.41,0,0,1,66,33a3.21,3.21,0,0,1,1.09-2.41l1.43-1.4a3.56,3.56,0,0,0,0-5.08l-3.25-3.22a3.7,3.7,0,0,0-5.1,0l-1.37,1.37a3.31,3.31,0,0,1-2.48,1.12,3.41,3.41,0,0,1-3.43-3.31V17.84a3.64,3.64,0,0,0-3.57-3.66H44.9a3.63,3.63,0,0,0-3.56,3.66v2.22a3.4,3.4,0,0,1-3.42,3.3,3.24,3.24,0,0,1-2.42-1.08l-1.41-1.39a3.6,3.6,0,0,0-2.56-1,3.65,3.65,0,0,0-2.54,1l-3.28,3.2a3.6,3.6,0,0,0,0,5.08l1.37,1.36A3.33,3.33,0,0,1,28.21,33a3.4,3.4,0,0,1-3.32,3.41H22.67A3.62,3.62,0,0,0,19,40v4.43a3.62,3.62,0,0,0,3.67,3.53h2.22a3.42,3.42,0,0,1,3.32,3.42,3.29,3.29,0,0,1-1.13,2.46l-1.37,1.36a3.59,3.59,0,0,0,0,5.07L29,63.46a3.57,3.57,0,0,0,2.55,1,3.7,3.7,0,0,0,2.55-1l1.41-1.4A3.23,3.23,0,0,1,37.89,61a3.41,3.41,0,0,1,3.43,3.31v2.21a3.63,3.63,0,0,0,3.57,3.66h4.43a3.63,3.63,0,0,0,3.56-3.66V64.3a3.39,3.39,0,0,1,5.9-2.19l1.37,1.37a3.7,3.7,0,0,0,5.1,0l3.25-3.24a3.6,3.6,0,0,0,0-5.08l-1.43-1.41A3.18,3.18,0,0,1,66,51.35a3.4,3.4,0,0,1,3.32-3.41h2.22a3.39,3.39,0,0,0,3.39-3.54V40A3.35,3.35,0,0,0,71.55,36.41ZM47.11,53.83A11.66,11.66,0,1,1,58.76,42.17,11.66,11.66,0,0,1,47.11,53.83Z"/><path class="cls-1" d="M58.48,41.26A11.66,11.66,0,0,1,47.05,52.92,11.66,11.66,0,1,1,58.48,41.26Z"/><path class="cls-1" d="M58.3,42.48a10.7,10.7,0,0,1-.09,1.39,11.41,11.41,0,0,0-22.68,0,10.7,10.7,0,0,1-.09-1.39,11.43,11.43,0,1,1,22.86,0Z"/><path class="cls-2" d="M35.52,40.63a10.7,10.7,0,0,1,.09-1.39,11.41,11.41,0,0,0,22.68,0,10.7,10.7,0,0,1,.09,1.39,11.43,11.43,0,1,1-22.86,0Z"/><path class="cls-11" d="M71.55,35.57H69.33A3.4,3.4,0,0,1,66,32.16a3.17,3.17,0,0,1,1.09-2.4l1.43-1.4a3.59,3.59,0,0,0,0-5.09l-3.25-3.22a3.7,3.7,0,0,0-5.1,0l-1.37,1.37a3.29,3.29,0,0,1-2.48,1.12,3.41,3.41,0,0,1-3.43-3.31V17a3.63,3.63,0,0,0-3.57-3.65H44.9A3.61,3.61,0,0,0,41.35,17v2.22a3.41,3.41,0,0,1-3.43,3.31,3.29,3.29,0,0,1-2.42-1.08l-1.41-1.4a3.57,3.57,0,0,0-2.55-1,3.66,3.66,0,0,0-2.55,1l-3.28,3.21a3.59,3.59,0,0,0,0,5.07l1.37,1.37a3.33,3.33,0,0,1,1.13,2.46,3.39,3.39,0,0,1-3.32,3.41H22.67A3.62,3.62,0,0,0,19,39.12v4.43a3.63,3.63,0,0,0,3.67,3.54h2.22a3.4,3.4,0,0,1,3.32,3.41A3.31,3.31,0,0,1,27.08,53l-1.37,1.36a3.59,3.59,0,0,0,0,5.07L29,62.63a3.6,3.6,0,0,0,2.55,1,3.7,3.7,0,0,0,2.55-1l1.41-1.4a3.22,3.22,0,0,1,2.42-1.08,3.41,3.41,0,0,1,3.43,3.31v2.21a3.63,3.63,0,0,0,3.57,3.66h4.43a3.62,3.62,0,0,0,3.55-3.66V63.46a3.39,3.39,0,0,1,5.91-2.19l1.37,1.37a3.7,3.7,0,0,0,5.1,0L68.5,59.4a3.6,3.6,0,0,0,0-5.08l-1.43-1.4A3.22,3.22,0,0,1,66,50.51,3.4,3.4,0,0,1,69.3,47.1h2.22a3.39,3.39,0,0,0,3.39-3.54V39.12A3.35,3.35,0,0,0,71.55,35.57Z"/><path class="cls-12" d="M58.48,41.36A11.34,11.34,0,1,1,47.05,29.7,11.66,11.66,0,0,1,58.48,41.36Z"/><path class="cls-14" d="M61,47.65a15.37,15.37,0,0,1-1,2.15"/><path class="cls-15" d="M62.43,41a16.1,16.1,0,0,1-.32,2.51"/><path class="cls-14" d="M55.28,26.79a14.51,14.51,0,0,1,7.24,9.62"/><path class="cls-16" d="M39.54,28A14.61,14.61,0,0,1,50.8,25.22"/></g></g></svg>