<svg xmlns="http://www.w3.org/2000/svg" viewBox="0 0 41.83 68.69"><defs><style>.cls-1{fill:#24d359;}.cls-2,.cls-3{fill:#008831;}.cls-3{opacity:0.5;}.cls-4{fill:#97f65c;}.cls-5{fill:#181828;}.cls-6{fill:#fff;}.cls-7{fill:#dadadc;}.cls-8,.cls-9{fill:#bbbbc8;}.cls-9{opacity:0.4;}.cls-10{fill:#e5e5ee;}.cls-11{opacity:0.1;}</style></defs><title>Asset 18</title><g id="Layer_2" data-name="Layer 2"><g id="Layer_1-2" data-name="Layer 1"><path class="cls-1" d="M16.58,27.78,12.84,29.6l3.6,1.77a44.87,44.87,0,0,1-3.2,13.46s-7.6-8.6-9.38-20.34S6.8,2.28,6.8,2.28s7.6,8.59,9.38,20.34A38.47,38.47,0,0,1,16.58,27.78Z"/><path class="cls-2" d="M16.59,31.74a52.87,52.87,0,0,1-3.29,11.4,52,52,0,0,1-5.78-8.53A24.86,24.86,0,0,0,16.59,31.74Z"/><path class="cls-3" d="M16.78,31.13c0,.28-.05.56-.08.84A29.63,29.63,0,0,1,7.45,34.8a40,40,0,0,1-2.88-8.52C6.1,28,8.89,29.77,13.73,29.64Z"/><ellipse class="cls-2" cx="7.18" cy="26.83" rx="0.55" ry="1.17" transform="translate(-20.53 28.65) rotate(-78.78)"/><circle class="cls-2" cx="8.85" cy="26.01" r="0.37"/><path class="cls-4" d="M12.6,37.51a.28.28,0,0,1-.28-.23L8.09,9.35A.28.28,0,0,1,8.33,9a.27.27,0,0,1,.31.23l4.23,27.92a.28.28,0,0,1-.23.32Z"/><path class="cls-5" d="M12.05,37.59a.26.26,0,0,1-.27-.23L7.55,9.44a.29.29,0,0,1,.23-.32.27.27,0,0,1,.31.23l4.23,27.93a.27.27,0,0,1-.23.31Z"/><path class="cls-6" d="M4.62,16.4h0a.47.47,0,0,1-.42-.5c0-.32.72-7.87,2.61-12.64A.46.46,0,0,1,7.37,3a.46.46,0,0,1,.26.59C5.78,8.25,5.08,15.9,5.08,16A.47.47,0,0,1,4.62,16.4Z"/><path class="cls-5" d="M13.4,45.26a.66.66,0,0,1-.49-.22A44.3,44.3,0,0,1,3.38,24.37a44.09,44.09,0,0,1,3-22.56.63.63,0,0,1,1.07-.16A44.24,44.24,0,0,1,17,22.32a37.31,37.31,0,0,1,.41,5.24.65.65,0,0,1-.37.59l-2.55,1.24,2.42,1.19a.65.65,0,0,1,.36.63A44.76,44.76,0,0,1,14,44.88a.63.63,0,0,1-.49.37ZM7.14,3.32C6.06,6.18,3.24,14.81,4.65,24.18S11.33,41,13.21,43.36a46.11,46.11,0,0,0,2.71-11.82L12.71,30a.63.63,0,0,1-.36-.58.66.66,0,0,1,.36-.58l3.37-1.64a35.28,35.28,0,0,0-.39-4.66C14.27,13.13,9,5.72,7.14,3.32Z"/><ellipse class="cls-4" cx="6.34" cy="19.31" rx="0.74" ry="0.37" transform="translate(-13.95 18.17) rotate(-68.61)"/><ellipse class="cls-4" cx="7.46" cy="7.31" rx="0.32" ry="0.64" transform="translate(-1.01 1.2) rotate(-8.61)"/><path class="cls-4" d="M6.76,20.3a.28.28,0,0,0-.18,0H6.47a.51.51,0,0,0-.39.5,1,1,0,0,0,.13.36c.07.17,0,.19-.08.34a.56.56,0,0,0,.18.67.75.75,0,0,0,1.17-.46A1.35,1.35,0,0,0,6.76,20.3Z"/><path class="cls-4" d="M6.73,13.24a.25.25,0,0,1,.17,0l.11,0a.5.5,0,0,1,.35.53.91.91,0,0,1-.15.35c-.09.17,0,.19,0,.35a.56.56,0,0,1-.23.65.75.75,0,0,1-1.13-.55A1.34,1.34,0,0,1,6.73,13.24Z"/><circle class="cls-4" cx="6.47" cy="12.77" r="0.18"/><path class="cls-5" d="M9.65,21.3a.28.28,0,0,1-.24-.13.27.27,0,0,1,.1-.38l3.36-2a.28.28,0,0,1,.28.48l-3.36,2Z"/><path class="cls-5" d="M8.9,16.38a.27.27,0,0,1-.25-.15.28.28,0,0,1,.13-.37l2-1a.28.28,0,0,1,.37.12.27.27,0,0,1-.12.37l-2,1A.31.31,0,0,1,8.9,16.38Z"/><path class="cls-5" d="M11.11,32.64h0l-2.24-.38a.28.28,0,0,1,.1-.55l2.23.39a.27.27,0,0,1,.22.32A.28.28,0,0,1,11.11,32.64Z"/><path class="cls-5" d="M9.94,25H9.87L6.09,24a.28.28,0,0,1-.19-.34.27.27,0,0,1,.33-.2l3.78,1a.28.28,0,0,1-.07.55Z"/><path class="cls-1" d="M22.28,38.1,26,39.92l-3.61,1.77a44.87,44.87,0,0,0,3.2,13.46s7.6-8.6,9.38-20.34S32.05,12.6,32.05,12.6s-7.59,8.59-9.37,20.34A35.43,35.43,0,0,0,22.28,38.1Z"/><path class="cls-2" d="M22.26,42.06a53.57,53.57,0,0,0,3.29,11.4,51.22,51.22,0,0,0,5.78-8.53A25.12,25.12,0,0,1,22.26,42.06Z"/><path class="cls-3" d="M22.07,41.45c0,.28.05.56.08.84a29.63,29.63,0,0,0,9.25,2.83,39.43,39.43,0,0,0,2.88-8.52C32.75,38.28,30,40.09,25.12,40Z"/><ellipse class="cls-2" cx="31.68" cy="37.15" rx="1.17" ry="0.55" transform="translate(-6.62 6.87) rotate(-11.22)"/><circle class="cls-2" cx="30.01" cy="36.33" r="0.37"/><path class="cls-4" d="M26.26,47.83h0a.29.29,0,0,1-.24-.32l4.23-27.92a.29.29,0,0,1,.32-.23.27.27,0,0,1,.23.31L26.53,47.6A.28.28,0,0,1,26.26,47.83Z"/><path class="cls-5" d="M26.8,47.91h0a.27.27,0,0,1-.23-.31l4.23-27.93a.27.27,0,0,1,.31-.23.3.3,0,0,1,.24.32L27.08,47.68A.27.27,0,0,1,26.8,47.91Z"/><path class="cls-6" d="M34.23,26.72a.46.46,0,0,1-.45-.42c0-.08-.71-7.74-2.55-12.38a.46.46,0,1,1,.85-.34c1.9,4.77,2.59,12.32,2.61,12.64a.46.46,0,0,1-.41.5Z"/><path class="cls-5" d="M25.46,55.58h-.1a.63.63,0,0,1-.49-.37,45.1,45.1,0,0,1-3.26-13.67A.65.65,0,0,1,22,40.9l2.42-1.19-2.55-1.24a.66.66,0,0,1-.36-.59,37.58,37.58,0,0,1,.4-5.25A44.22,44.22,0,0,1,31.42,12a.65.65,0,0,1,.58-.21.68.68,0,0,1,.49.38,44.26,44.26,0,0,1,3,22.56,44.08,44.08,0,0,1-9.53,20.67A.64.64,0,0,1,25.46,55.58ZM22.94,41.86a46.11,46.11,0,0,0,2.71,11.82c1.87-2.4,7.13-9.81,8.55-19.18s-1.41-18-2.49-20.86c-1.88,2.41-7.13,9.82-8.55,19.19a35.28,35.28,0,0,0-.39,4.66l3.37,1.64a.65.65,0,0,1,.37.58.64.64,0,0,1-.37.58Z"/><ellipse class="cls-4" cx="32.51" cy="29.63" rx="0.37" ry="0.74" transform="translate(-8.57 13.9) rotate(-21.39)"/><ellipse class="cls-4" cx="31.4" cy="17.63" rx="0.64" ry="0.32" transform="translate(9.27 46.03) rotate(-81.39)"/><path class="cls-4" d="M32.1,30.62a.25.25,0,0,1,.17,0h.11a.5.5,0,0,1,.39.5.83.83,0,0,1-.13.36c-.07.17,0,.19.08.34a.56.56,0,0,1-.18.67A.75.75,0,0,1,31.37,32,1.36,1.36,0,0,1,32.1,30.62Z"/><path class="cls-4" d="M32.12,23.55a.32.32,0,0,0-.17,0l-.11,0a.5.5,0,0,0-.35.53.93.93,0,0,0,.16.35c.08.17,0,.19-.06.35a.56.56,0,0,0,.23.65A.75.75,0,0,0,33,24.91,1.35,1.35,0,0,0,32.12,23.55Z"/><circle class="cls-4" cx="32.39" cy="23.09" r="0.18"/><path class="cls-5" d="M29.21,31.62a.23.23,0,0,1-.14,0l-3.37-2a.28.28,0,0,1-.09-.38.27.27,0,0,1,.37-.1l3.37,2a.29.29,0,0,1,.1.38A.31.31,0,0,1,29.21,31.62Z"/><path class="cls-5" d="M30,26.7a.27.27,0,0,1-.12,0l-2-1a.27.27,0,0,1-.12-.37.28.28,0,0,1,.37-.12l2,1a.28.28,0,0,1,.12.37A.27.27,0,0,1,30,26.7Z"/><path class="cls-5" d="M27.74,43a.28.28,0,0,1-.27-.23.27.27,0,0,1,.22-.32L29.93,42a.28.28,0,0,1,.32.23.29.29,0,0,1-.23.32L27.79,43Z"/><path class="cls-5" d="M28.91,35.35a.3.3,0,0,1-.27-.21.29.29,0,0,1,.2-.34l3.78-1a.28.28,0,1,1,.14.54l-3.78,1Z"/><path class="cls-1" d="M25.62,29.43l-4,1.25L25,33a44.71,44.71,0,0,1-5.18,12.82s-6.23-9.63-6.23-21.51S19.77,2.76,19.77,2.76,26,12.4,26,24.28A35.86,35.86,0,0,1,25.62,29.43Z"/><path class="cls-2" d="M25,33.35a53,53,0,0,1-5,10.78,51.58,51.58,0,0,1-4.43-9.29A24.86,24.86,0,0,0,25,33.35Z"/><path class="cls-3" d="M25.32,32.78c-.06.28-.13.55-.2.82A30,30,0,0,1,15.55,35,40.42,40.42,0,0,1,14,26.16c1.26,1.89,3.74,4.1,8.55,4.69Z"/><ellipse class="cls-2" cx="16.47" cy="27.09" rx="0.55" ry="1.17" transform="translate(-14.6 33.39) rotate(-70.17)"/><circle class="cls-2" cx="18.24" cy="26.54" r="0.37"/><path class="cls-4" d="M20.27,38.47a.29.29,0,0,1-.28-.28V10a.28.28,0,0,1,.56,0V38.19A.29.29,0,0,1,20.27,38.47Z"/><path class="cls-5" d="M19.72,38.47a.28.28,0,0,1-.28-.28V10A.28.28,0,1,1,20,10V38.19A.28.28,0,0,1,19.72,38.47Z"/><path class="cls-6" d="M15.57,16.4h-.11a.47.47,0,0,1-.34-.56c.08-.31,1.89-7.67,4.48-12.1a.47.47,0,0,1,.63-.17.46.46,0,0,1,.16.63C17.87,8.51,16,16,16,16.05A.46.46,0,0,1,15.57,16.4Z"/><path class="cls-5" d="M20,46.25a.63.63,0,0,1-.54-.29,44.19,44.19,0,0,1-6.34-21.87A44.18,44.18,0,0,1,19.42,2.23a.64.64,0,0,1,.54-.3h0a.66.66,0,0,1,.54.3,44.22,44.22,0,0,1,6.33,21.86,36.19,36.19,0,0,1-.39,5.25.64.64,0,0,1-.44.53l-2.71.85,2.21,1.53a.65.65,0,0,1,.27.68A45.09,45.09,0,0,1,20.5,46,.65.65,0,0,1,20,46.25Zm0-42.4c-1.5,2.65-5.59,10.77-5.59,20.24S18.46,41.69,20,44.34a46.49,46.49,0,0,0,4.45-11.28l-2.94-2a.65.65,0,0,1-.27-.63.67.67,0,0,1,.44-.52l3.58-1.12a35.59,35.59,0,0,0,.32-4.67C25.54,14.62,21.45,6.5,20,3.85Zm5.85,25.4Z"/><ellipse class="cls-4" cx="16.77" cy="19.53" rx="0.74" ry="0.37" transform="translate(-8.53 24.29) rotate(-60)"/><ellipse class="cls-4" cx="19.67" cy="7.83" rx="0.32" ry="0.64"/><path class="cls-4" d="M17,20.57a.27.27,0,0,0-.17,0h-.11a.49.49,0,0,0-.46.44.94.94,0,0,0,.07.37c.05.18,0,.19-.13.33a.56.56,0,0,0,.08.68.74.74,0,0,0,1.22-.28A1.34,1.34,0,0,0,17,20.57Z"/><path class="cls-4" d="M18.06,13.58a.34.34,0,0,1,.18,0l.1,0a.51.51,0,0,1,.26.58.83.83,0,0,1-.2.32c-.11.15,0,.19,0,.35a.56.56,0,0,1-.32.61.75.75,0,0,1-1-.71A1.37,1.37,0,0,1,18.06,13.58Z"/><circle class="cls-4" cx="17.87" cy="13.08" r="0.18"/><path class="cls-5" d="M19.78,22a.3.3,0,0,1-.26-.17.28.28,0,0,1,.16-.36L23.3,20a.29.29,0,0,1,.36.16.28.28,0,0,1-.15.36L19.88,22Z"/><path class="cls-5" d="M19.78,17a.27.27,0,0,1-.09-.53l2.15-.72a.28.28,0,0,1,.35.17.27.27,0,0,1-.17.35L19.87,17Z"/><path class="cls-5" d="M19.53,33.43l-.08,0-2.15-.72a.26.26,0,0,1-.18-.34.28.28,0,0,1,.35-.18l2.15.72a.28.28,0,0,1,.18.35A.29.29,0,0,1,19.53,33.43Z"/><path class="cls-5" d="M19.52,25.73a.2.2,0,0,1-.11,0l-3.59-1.53a.28.28,0,0,1-.15-.36.29.29,0,0,1,.37-.15l3.59,1.54a.27.27,0,0,1,.14.36A.28.28,0,0,1,19.52,25.73Z"/><path class="cls-7" d="M6.27,45.15H33.72a0,0,0,0,1,0,0v8.57A13.73,13.73,0,0,1,20,67.45h0A13.73,13.73,0,0,1,6.27,53.72V45.15a0,0,0,0,1,0,0Z"/><path class="cls-8" d="M33.72,45.15v8.57A13.73,13.73,0,0,1,8.47,61.18a13.73,13.73,0,0,0,21.2-11.52V45.15Z"/><path class="cls-9" d="M29.85,45.15v8.57c0,7.58-5.2,13.73-11.62,13.73-4.09,0-7.68-2.5-9.75-6.27a10.31,10.31,0,0,0,6.32,2.21c6.42,0,11.62-6.14,11.62-13.73V45.15Z"/><path class="cls-5" d="M20.09,68.18A14.39,14.39,0,0,1,5.71,53.81V45.24a.65.65,0,0,1,.65-.65H33.81a.65.65,0,0,1,.65.65v8.57A14.39,14.39,0,0,1,20.09,68.18ZM7,45.88v7.93a13.09,13.09,0,0,0,26.17,0V45.88Z"/><ellipse class="cls-10" cx="12.88" cy="50.87" rx="4.48" ry="3.32" transform="translate(-19.03 9.21) rotate(-23.25)"/><path class="cls-5" d="M14.37,48.56H6.63a.28.28,0,0,1,0-.56h7.74a.28.28,0,0,1,0,.56Z"/><path class="cls-5" d="M19.07,48.65H16.68a.28.28,0,1,1,0-.55h2.39a.28.28,0,1,1,0,.55Z"/><g class="cls-11"><path class="cls-5" d="M29.36,68.69H10a.47.47,0,0,1-.46-.46.46.46,0,0,1,.46-.46H29.36a.45.45,0,0,1,.46.46A.46.46,0,0,1,29.36,68.69Z"/><path class="cls-5" d="M41.09,68.69h-6a.47.47,0,0,1-.46-.46.46.46,0,0,1,.46-.46h6a.45.45,0,0,1,.46.46A.46.46,0,0,1,41.09,68.69Z"/></g><rect class="cls-7" x="3.13" y="38.33" width="34.28" height="7.19" rx="3.59"/><path class="cls-8" d="M36.67,41.92a3.6,3.6,0,0,1-3.59,3.6H28.84a3.6,3.6,0,0,0,0-7.19h4.24A3.59,3.59,0,0,1,36.67,41.92Z"/><path class="cls-9" d="M33,41.92a3.62,3.62,0,0,1-3.6,3.6H25.15a3.6,3.6,0,1,0,0-7.19h4.24A3.6,3.6,0,0,1,33,41.92Z"/><path class="cls-6" d="M18.24,39.71h-12a.65.65,0,1,1,0-1.29h12a.65.65,0,1,1,0,1.29Z"/><path class="cls-5" d="M33.63,46.07H6.54a4.15,4.15,0,0,1,0-8.29H33.63a4.15,4.15,0,1,1,0,8.29ZM6.54,38.88a3,3,0,0,0,0,6.08H33.63a3,3,0,1,0,0-6.08Z"/><circle class="cls-6" cx="7.65" cy="39.9" r="0.55"/><circle class="cls-6" cx="8.75" cy="41.19" r="0.28"/><circle class="cls-6" cx="9.49" cy="39.71" r="0.46"/><circle class="cls-6" cx="10.96" cy="41.19" r="0.28"/><circle class="cls-6" cx="12.35" cy="39.99" r="0.74"/><circle class="cls-6" cx="15.02" cy="40.63" r="0.28"/><circle class="cls-6" cx="16.68" cy="40.26" r="1.01"/><circle class="cls-6" cx="13.64" cy="41.83" r="0.37"/><path class="cls-5" d="M1.47,35.75A1.48,1.48,0,1,1,3,34.28,1.47,1.47,0,0,1,1.47,35.75Zm0-2.4a.93.93,0,0,0,0,1.85.93.93,0,1,0,0-1.85Z"/><path class="cls-5" d="M40.36,31.7a1.48,1.48,0,1,1,1.47-1.48A1.48,1.48,0,0,1,40.36,31.7Zm0-2.4a.92.92,0,1,0,.92.92A.92.92,0,0,0,40.36,29.3Z"/><path class="cls-5" d="M14.37,3a1.48,1.48,0,1,1,1.48-1.48A1.47,1.47,0,0,1,14.37,3Zm0-2.4a.93.93,0,1,0,.92.92A.93.93,0,0,0,14.37.55Z"/></g></g></svg>