<?xml version="1.0" encoding="UTF-8"?>
<svg id="Layer_2" data-name="Layer 2" xmlns="http://www.w3.org/2000/svg" viewBox="0 0 438.11 227.66">
  <defs>
    <style>
      .cls-1, .cls-2, .cls-3, .cls-4, .cls-5, .cls-6, .cls-7, .cls-8, .cls-9, .cls-10, .cls-11, .cls-12, .cls-13, .cls-14, .cls-15, .cls-16, .cls-17, .cls-18, .cls-19, .cls-20, .cls-21, .cls-22, .cls-23, .cls-24, .cls-25, .cls-26, .cls-27, .cls-28, .cls-29, .cls-30, .cls-31, .cls-32, .cls-33, .cls-34, .cls-35, .cls-36, .cls-37, .cls-38, .cls-39, .cls-40, .cls-41, .cls-42, .cls-43, .cls-44, .cls-45, .cls-46, .cls-47, .cls-48, .cls-49, .cls-50, .cls-51, .cls-52, .cls-53, .cls-54, .cls-55, .cls-56, .cls-57, .cls-58, .cls-59, .cls-60, .cls-61, .cls-62, .cls-63, .cls-64, .cls-65, .cls-66, .cls-67, .cls-68, .cls-69, .cls-70, .cls-71, .cls-72, .cls-73, .cls-74 {
        fill: none;
      }

      .cls-1, .cls-2, .cls-3, .cls-4, .cls-5, .cls-6, .cls-7, .cls-8, .cls-9, .cls-10, .cls-11, .cls-12, .cls-13, .cls-14, .cls-15, .cls-16, .cls-17, .cls-18, .cls-19, .cls-20, .cls-22, .cls-23, .cls-24, .cls-25, .cls-26, .cls-27, .cls-28, .cls-29, .cls-30, .cls-31, .cls-32, .cls-33, .cls-34, .cls-35, .cls-36, .cls-37, .cls-38, .cls-39, .cls-40, .cls-41, .cls-42, .cls-43, .cls-44, .cls-45, .cls-46, .cls-47, .cls-48, .cls-49, .cls-50, .cls-51, .cls-52, .cls-53, .cls-54, .cls-55, .cls-56, .cls-57, .cls-58, .cls-59, .cls-60, .cls-61, .cls-62, .cls-63, .cls-64, .cls-65, .cls-66, .cls-67, .cls-69, .cls-70, .cls-71, .cls-72, .cls-73, .cls-74 {
        stroke-linecap: round;
        stroke-linejoin: round;
      }

      .cls-1, .cls-7, .cls-9, .cls-14, .cls-18, .cls-20, .cls-26, .cls-31, .cls-34, .cls-37, .cls-40, .cls-46, .cls-49, .cls-57, .cls-60 {
        stroke: #fff;
      }

      .cls-2, .cls-11, .cls-35, .cls-66, .cls-72 {
        stroke: #ffa300;
      }

      .cls-3 {
        stroke: #05dd29;
      }

      .cls-4 {
        stroke: #b7b7b7;
      }

      .cls-5 {
        stroke: #f9b200;
      }

      .cls-6, .cls-8, .cls-13, .cls-16, .cls-19, .cls-24, .cls-28, .cls-30, .cls-38, .cls-39, .cls-47, .cls-48, .cls-52, .cls-53, .cls-55, .cls-58, .cls-61, .cls-67, .cls-69 {
        stroke: #4c4047;
      }

      .cls-7 {
        stroke-width: 1.41px;
      }

      .cls-8 {
        stroke-width: 1.1px;
      }

      .cls-9, .cls-16 {
        stroke-width: .75px;
      }

      .cls-10, .cls-11, .cls-17, .cls-22, .cls-29, .cls-46, .cls-49, .cls-50, .cls-63, .cls-65, .cls-66, .cls-71, .cls-72, .cls-74 {
        stroke-width: 3px;
      }

      .cls-10, .cls-50, .cls-63, .cls-68 {
        stroke: #7ae3f4;
      }

      .cls-11 {
        opacity: .49;
      }

      .cls-12, .cls-25, .cls-27, .cls-31, .cls-32, .cls-33, .cls-34, .cls-35, .cls-36, .cls-40, .cls-42, .cls-43, .cls-44, .cls-45, .cls-59, .cls-60, .cls-62, .cls-64, .cls-73 {
        stroke-width: 2px;
      }

      .cls-12, .cls-33 {
        stroke: #f79014;
      }

      .cls-12, .cls-49, .cls-50 {
        opacity: .47;
      }

      .cls-13 {
        stroke-width: .72px;
      }

      .cls-14 {
        stroke-width: 1.25px;
      }

      .cls-15 {
        stroke: #fff1cf;
      }

      .cls-15, .cls-21, .cls-23 {
        stroke-width: 1.86px;
      }

      .cls-75 {
        fill: #f4d182;
      }

      .cls-76 {
        fill: #f9c662;
      }

      .cls-77 {
        fill: #f9ae4b;
      }

      .cls-78 {
        fill: #efa603;
      }

      .cls-79 {
        fill: #ed7d03;
      }

      .cls-80 {
        fill: #eaad00;
      }

      .cls-81 {
        fill: #ea5c2a;
      }

      .cls-82 {
        fill: #e59e00;
      }

      .cls-83, .cls-84 {
        fill: #ef9830;
      }

      .cls-85 {
        fill: #ffa300;
      }

      .cls-86 {
        fill: #ffb000;
      }

      .cls-87 {
        fill: #f3be75;
      }

      .cls-88 {
        fill: #f48456;
      }

      .cls-89 {
        fill: #ffdd36;
      }

      .cls-90, .cls-91, .cls-92 {
        fill: #fff;
      }

      .cls-93 {
        fill: #ffedca;
      }

      .cls-94 {
        fill: #ffe9b8;
      }

      .cls-95 {
        fill: #ffe5a4;
      }

      .cls-96 {
        fill: #ffea94;
      }

      .cls-97 {
        fill: #ffd55f;
      }

      .cls-98 {
        fill: #ffd576;
      }

      .cls-99 {
        fill: #ffcd5f;
      }

      .cls-100 {
        fill: #ffb966;
      }

      .cls-101 {
        fill: #ffc639;
      }

      .cls-102 {
        fill: #ffc533;
      }

      .cls-103 {
        fill: #ffc83e;
      }

      .cls-104 {
        fill: #fcecc5;
      }

      .cls-105 {
        fill: #ff3939;
      }

      .cls-106 {
        fill: #fdffff;
      }

      .cls-107 {
        fill: #6b6b6b;
      }

      .cls-108 {
        fill: #80b1bc;
      }

      .cls-109 {
        fill: #9faf00;
      }

      .cls-110 {
        fill: #bc0029;
      }

      .cls-111 {
        fill: #ccf5ff;
      }

      .cls-112 {
        fill: #af694c;
      }

      .cls-113 {
        fill: #ade700;
      }

      .cls-114, .cls-115 {
        fill: #c6dee5;
      }

      .cls-116 {
        fill: #cacad8;
      }

      .cls-117, .cls-118 {
        fill: #db9905;
      }

      .cls-119 {
        fill: #d8ff33;
      }

      .cls-120 {
        fill: #07d329;
      }

      .cls-121 {
        fill: #a3a3c6;
      }

      .cls-122 {
        fill: #a2ce00;
      }

      .cls-123 {
        fill: #92ff5f;
      }

      .cls-124 {
        fill: #87c400;
      }

      .cls-125 {
        fill: #56fc76;
      }

      .cls-126 {
        fill: #4c4047;
      }

      .cls-127, .cls-128 {
        fill: #5ecbdd;
      }

      .cls-129 {
        fill: #7ae3f4;
      }

      .cls-17 {
        opacity: .35;
      }

      .cls-17, .cls-29, .cls-65 {
        stroke: #ef9830;
      }

      .cls-18 {
        opacity: .32;
      }

      .cls-18, .cls-37, .cls-51, .cls-56 {
        stroke-width: 4px;
      }

      .cls-19 {
        stroke-width: 1.25px;
      }

      .cls-20, .cls-24 {
        stroke-width: 1.15px;
      }

      .cls-21 {
        stroke: #e29700;
      }

      .cls-21, .cls-68 {
        stroke-miterlimit: 10;
      }

      .cls-22 {
        opacity: .33;
        stroke: #c6dee5;
      }

      .cls-23 {
        stroke: #d67a00;
      }

      .cls-25 {
        opacity: .5;
      }

      .cls-25, .cls-43 {
        stroke: #ce0913;
      }

      .cls-26 {
        opacity: .69;
        stroke-width: 2.86px;
      }

      .cls-27 {
        opacity: .27;
      }

      .cls-27, .cls-45 {
        stroke: #c63509;
      }

      .cls-28 {
        stroke-width: 1.16px;
      }

      .cls-29, .cls-73 {
        opacity: .67;
      }

      .cls-30 {
        stroke-width: .59px;
      }

      .cls-31 {
        opacity: .72;
      }

      .cls-32 {
        stroke: #ffcebd;
      }

      .cls-36 {
        stroke: #ffe3e7;
      }

      .cls-38 {
        stroke-width: 1.06px;
      }

      .cls-39 {
        stroke-width: 1.01px;
      }

      .cls-40, .cls-92, .cls-74 {
        opacity: .42;
      }

      .cls-41 {
        stroke: #93482e;
      }

      .cls-41, .cls-54 {
        stroke-width: 1.91px;
      }

      .cls-42 {
        stroke: #87c400;
      }

      .cls-91 {
        opacity: .2;
      }

      .cls-44 {
        stroke: #8080af;
      }

      .cls-44, .cls-45, .cls-70 {
        opacity: .55;
      }

      .cls-46 {
        opacity: .62;
      }

      .cls-47 {
        stroke-width: .79px;
      }

      .cls-48 {
        stroke-width: .79px;
      }

      .cls-51, .cls-56, .cls-59 {
        stroke: #e27a0a;
      }

      .cls-52 {
        stroke-width: .84px;
      }

      .cls-53 {
        stroke-width: .93px;
      }

      .cls-54 {
        stroke: #eda48a;
      }

      .cls-54, .cls-66 {
        opacity: .29;
      }

      .cls-55 {
        stroke-width: .99px;
      }

      .cls-56 {
        opacity: .41;
      }

      .cls-130, .cls-62 {
        opacity: .31;
      }

      .cls-131 {
        opacity: .26;
      }

      .cls-132 {
        opacity: .23;
      }

      .cls-57 {
        stroke-width: 1.35px;
      }

      .cls-133 {
        opacity: .39;
      }

      .cls-134 {
        opacity: .51;
      }

      .cls-135, .cls-136 {
        opacity: .81;
      }

      .cls-58 {
        stroke-width: .96px;
      }

      .cls-59, .cls-60 {
        opacity: .4;
      }

      .cls-61 {
        stroke-width: .89px;
      }

      .cls-62, .cls-64 {
        stroke: #fcbb17;
      }

      .cls-63 {
        opacity: .53;
      }

      .cls-64 {
        opacity: .86;
      }

      .cls-65, .cls-118, .cls-84 {
        opacity: .52;
      }

      .cls-67 {
        stroke-dasharray: 0 0 2.19 2.19;
      }

      .cls-68 {
        stroke-width: 1.3px;
      }

      .cls-69 {
        stroke-dasharray: 0 0 2.45 2.45;
      }

      .cls-70 {
        stroke: #424242;
      }

      .cls-128 {
        opacity: .48;
      }

      .cls-71, .cls-74 {
        stroke: #07d329;
      }

      .cls-136 {
        fill: #8080af;
      }

      .cls-137 {
        fill: #e5d7f9;
      }

      .cls-137, .cls-115, .cls-138 {
        opacity: .45;
      }

      .cls-138 {
        fill: #f3ebfc;
      }

      .cls-73 {
        stroke: #ffabb3;
      }
    </style>
  </defs>
  <g id="Layer_2-2" data-name="Layer 2">
    <g>
      <path class="cls-107" d="M163.42,222.41h24.92v2.07c0,1.45-1.18,2.63-2.63,2.63h-19.66c-1.45,0-2.63-1.18-2.63-2.63v-2.07h0Z"/>
      <rect class="cls-114" x="249.02" y="182.53" width="12.08" height="43.39" rx="1.85" ry="1.85"/>
      <g>
        <path class="cls-123" d="M410.87,9.87c-2.51,3.57-8.69,3.54-8.69,3.54,0,0-2.11-5.81,.4-9.37s8.69-3.54,8.69-3.54c0,0,2.11,5.81-.4,9.37Z"/>
        <path class="cls-97" d="M398.84,58.88c-11.97,0-21.67-9.7-21.67-21.67s9.7-21.67,21.67-21.67"/>
        <path class="cls-78" d="M404.97,58.88c-11.97,0-21.67-9.7-21.67-21.67s9.7-21.67,21.67-21.67"/>
        <circle class="cls-95" cx="412.15" cy="38.09" r="23.24"/>
        <circle class="cls-39" cx="412.15" cy="38.09" r="23.24"/>
        <path class="cls-39" d="M377.61,32.84c2.02-9.88,10.76-17.31,21.23-17.31"/>
        <path class="cls-39" d="M380.87,49.33c-2.34-3.46-3.7-7.63-3.7-12.12"/>
        <path class="cls-39" d="M398.84,58.88c-5.65,0-10.79-2.16-14.65-5.7"/>
        <circle class="cls-97" cx="411.57" cy="38.13" r="18.95"/>
        <ellipse class="cls-95" cx="412.15" cy="38.65" rx="2.29" ry="2.25"/>
        <line class="cls-39" x1="412.15" y1="19.31" x2="412.15" y2="35.63"/>
        <line class="cls-39" x1="409.24" y1="38.46" x2="393.22" y2="38.46"/>
        <line class="cls-39" x1="430.95" y1="38.46" x2="414.99" y2="38.46"/>
        <line class="cls-39" x1="412.15" y1="41" x2="412.15" y2="56.93"/>
        <line class="cls-39" x1="425.18" y1="51.24" x2="414.21" y2="40.22"/>
        <line class="cls-39" x1="410.41" y1="36.42" x2="398.78" y2="24.84"/>
        <line class="cls-39" x1="414.27" y1="36.42" x2="425.4" y2="25.17"/>
        <line class="cls-39" x1="399.17" y1="51.41" x2="410.3" y2="40.16"/>
        <path class="cls-39" d="M392.69,8.26s6.65,1.18,7.63,5.84"/>
        <path class="cls-39" d="M410.87,9.87c-2.51,3.57-8.69,3.54-8.69,3.54,0,0-2.11-5.81,.4-9.37s8.69-3.54,8.69-3.54c0,0,2.11,5.81-.4,9.37Z"/>
        <path class="cls-39" d="M407.48,6.39c-.83,3.49-5.29,7.02-5.29,7.02"/>
        <circle class="cls-39" cx="412.15" cy="38.09" r="18.95"/>
        <ellipse class="cls-39" cx="412.15" cy="38.32" rx="2.29" ry="2.25"/>
        <path class="cls-78" d="M396.62,36.22c2.31,0,4.61,0,6.92,0,.91,0,.91-1.41,0-1.41-2.31,0-4.61,0-6.92,0-.91,0-.91,1.41,0,1.41h0Z"/>
        <path class="cls-78" d="M403.67,52.14c1.71-1.71,3.41-3.42,5.12-5.13,.27-.27,.27-.73,0-1s-.73-.27-1,0c-1.71,1.71-3.41,3.42-5.12,5.13-.27,.27-.27,.73,0,1s.73,.27,1,0h0Z"/>
        <path class="cls-90" d="M413.61,23v6.92c0,.91,1.41,.91,1.41,0v-6.92c0-.91-1.41-.91-1.41,0h0Z"/>
        <path class="cls-78" d="M403.44,26.43l4.26,4.26c.26,.26,.74,.28,1,0s.28-.72,0-1l-4.26-4.26c-.26-.26-.74-.28-1,0s-.28,.72,0,1h0Z"/>
        <path class="cls-90" d="M420.17,43.4h4.79c.38,0,.71-.32,.71-.71s-.32-.71-.71-.71h-4.79c-.38,0-.71,.32-.71,.71s.32,.71,.71,.71h0Z"/>
        <path class="cls-78" d="M420.57,36.61h6.79c.91,0,.91-1.41,0-1.41h-6.79c-.91,0-.91,1.41,0,1.41h0Z"/>
        <path class="cls-90" d="M396.89,41.67c2.13,0,4.26,0,6.39,0,.91,0,.91-1.41,0-1.41-2.13,0-4.26,0-6.39,0-.91,0-.91,1.41,0,1.41h0Z"/>
        <path class="cls-90" d="M381.04,33.35c.13-.62,.29-1.23,.5-1.83,.05-.14,.1-.27,.15-.41,.03-.07,.05-.13,.08-.2,.03-.07,.03-.06-.01,.02,.01-.03,.03-.06,.04-.1,.11-.25,.22-.49,.35-.72,.17-.33,.09-.78-.25-.97-.33-.17-.78-.1-.97,.25-.59,1.12-.99,2.33-1.25,3.57-.08,.36,.11,.78,.49,.87,.36,.08,.79-.11,.87-.49h0Z"/>
      </g>
      <g>
        <path class="cls-114" d="M313.9,81.17h25.48c1.98,0,3.58,1.6,3.58,3.58h-32.64c0-1.98,1.6-3.58,3.58-3.58Z"/>
        <rect class="cls-108" x="318.28" y="81.41" width="12.25" height="3.11" rx="1.55" ry="1.55"/>
        <rect class="cls-108" x="310.32" y="81.41" width="5.25" height="3.11" rx="1.55" ry="1.55"/>
        <path class="cls-111" d="M341.05,92.25c0,2.34,.86,6.79,2.36,8.59h0c.8,.96,1.24,2.17,1.24,3.42v30.31c0,1.83-1.48,3.31-3.31,3.31h-29.87c-1.83,0-3.31-1.48-3.31-3.31v-30.31c0-1.25,.44-2.46,1.24-3.42h0c1.49-1.79,2.31-5.05,2.31-7.39l29.35-1.2Z"/>
        <rect class="cls-127" x="311.6" y="93.72" width="15.25" height="3.11" rx="1.55" ry="1.55"/>
        <rect class="cls-90" x="308.16" y="108.04" width="36.49" height="3.62"/>
        <rect class="cls-90" x="308.16" y="106.42" width="36.49" height=".9"/>
        <rect class="cls-90" x="308.16" y="104.16" width="36.49" height=".9"/>
        <line class="cls-19" x1="340.08" y1="107.33" x2="343.89" y2="107.33"/>
        <line class="cls-19" x1="308.41" y1="132.1" x2="312.23" y2="132.1"/>
        <rect class="cls-90" x="312.63" y="115.98" width="27.5" height="12.77"/>
        <path class="cls-94" d="M309.44,89.67h-.9c-1.18,1.91,.3,4.4,2.45,4.12l5.1-.54c.41-.05,.82,0,1.21,.15h0c2.88,1.13,6.06,1.09,8.91-.14l.21-.09c.6-.26,1.28-.27,1.88-.02l.92,.68c1.62,1.2,3.63,1.72,5.57,1.31l2.44-1.45c.67-.5,1.53-.66,2.33-.44l2.61,.73c2.28,.64,4.2-1.78,3.07-3.86l-.3-.56"/>
        <path class="cls-19" d="M337.43,93.69c.67-.5,1.53-.66,2.33-.44l2.61,.73c2.28,.64,4.2-1.78,3.07-3.86l-.3-.56"/>
        <path class="cls-19" d="M309.64,89.67h-.9c-1.18,1.91,.3,4.4,2.45,4.12l5.1-.54c.41-.05,.82,0,1.21,.15h0c2.88,1.13,6.06,1.09,8.91-.14l.21-.09c.6-.26,1.28-.27,1.88-.02l.92,.68c1.62,1.2,3.63,1.72,5.57,1.31"/>
        <path class="cls-19" d="M313.9,81.17h25.48c1.98,0,3.58,1.6,3.58,3.58h-32.64c0-1.98,1.6-3.58,3.58-3.58Z"/>
        <rect class="cls-102" x="306.66" y="84.5" width="40.37" height="5.18" rx="2.59" ry="2.59"/>
        <rect class="cls-127" x="314.3" y="135.05" width="15.25" height="3.11" rx="1.55" ry="1.55"/>
        <rect class="cls-127" x="323.83" y="128.52" width="15.25" height="3.11" rx="1.55" ry="1.55"/>
        <rect class="cls-114" x="314.3" y="116.06" width="15.25" height="3.11" rx="1.55" ry="1.55"/>
        <polyline class="cls-19" points="336.08 115.98 340.12 115.98 340.12 128.75 312.63 128.75 312.63 115.98 332.62 115.98"/>
        <path class="cls-19" d="M308.16,115.98v-11.73c0-1.25,.44-2.46,1.24-3.42h0c1.49-1.79,2.31-4.05,2.31-6.39"/>
        <line class="cls-19" x1="308.16" y1="125.62" x2="308.16" y2="119.16"/>
        <path class="cls-19" d="M344.65,118.5v16.06c0,1.83-1.48,3.31-3.31,3.31h-29.87c-1.83,0-3.31-1.48-3.31-3.31v-5.81"/>
        <path class="cls-19" d="M341.05,94.25c0,2.34,.86,4.79,2.36,6.59h0c.8,.96,1.24,2.17,1.24,3.42v10.29"/>
        <rect class="cls-82" x="309.15" y="84.5" width="15.25" height="3.11" rx="1.55" ry="1.55"/>
        <rect class="cls-82" x="327.22" y="84.5" width="5.25" height="3.11" rx="1.55" ry="1.55"/>
        <rect class="cls-76" x="329.13" y="89.14" width="5.25" height="3.11" rx="1.55" ry="1.55"/>
        <rect class="cls-76" x="309.93" y="89.14" width="5.25" height="3.11" rx="1.55" ry="1.55"/>
        <path class="cls-19" d="M321.19,89.67h-11.94c-1.43,0-2.59-1.16-2.59-2.59h0c0-1.43,1.16-2.59,2.59-2.59h35.19c1.43,0,2.59,1.16,2.59,2.59h0c0,1.43-1.16,2.59-2.59,2.59h-2.85"/>
        <line class="cls-19" x1="338.62" y1="89.67" x2="323.8" y2="89.67"/>
        <g>
          <line class="cls-16" x1="317.37" y1="120.39" x2="321.18" y2="120.39"/>
          <line class="cls-16" x1="317.37" y1="122.78" x2="327.85" y2="122.78"/>
          <line class="cls-16" x1="317.37" y1="125.17" x2="327.85" y2="125.17"/>
        </g>
        <ellipse class="cls-16" cx="349.39" cy="92.06" rx="2.39" ry="4.09" transform="translate(73.29 325.11) rotate(-54.93)"/>
      </g>
      <g>
        <path class="cls-97" d="M258.23,111.23c-6.03,3.53-14.34,5.46-25.55,2.76-1.02-.25-2.11,.12-2.71,.98-.02,.03-.05,.07-.07,.1-.86,1.28-.44,3.02,.91,3.76,4.92,2.71,21.82,10.81,35.43,2.98,11.69-6.72,13.31-17.24,13.33-22.5,0-1.9-1.15-3.61-2.91-4.34h0s-1.79-10.04-1.79-10.04l-.95,6.59-4.04,7.76-4.14,5.73-3.42,3.33-4.08,2.88Z"/>
        <path class="cls-21" d="M229.96,116.11s36.71,16.56,48.03-15.38"/>
        <path class="cls-28" d="M258.23,111.23c-6.03,3.53-14.34,5.46-25.55,2.76-1.02-.25-2.11,.12-2.71,.98-.02,.03-.05,.07-.07,.1-.86,1.28-.44,3.02,.91,3.76,4.92,2.71,21.82,10.81,35.43,2.98,11.69-6.72,13.31-17.24,13.33-22.5,0-1.9-1.15-3.61-2.91-4.34h0s-1.79-10.04-1.79-10.04"/>
        <path class="cls-53" d="M229.94,115.67s36.31,16.15,47.62-15.78"/>
        <path class="cls-97" d="M276.5,126.4c1.68-1.38,3.22-3.01,4.54-4.92,7.68-11.08,4.64-21.28,2.4-26.04-.81-1.72-2.59-2.77-4.49-2.67h0s-3.14-8.29-3.14-8.29c-.26-.88-1.09-1.47-2.01-1.42h0c-1.22,.06-2.11,1.2-1.86,2.4,.35,1.7,2.81,8.37,2.72,8.37,0,0,3.58,28.48-27.3,34.96-1.03,.21-1.85,1.02-2.03,2.05,0,.04-.01,.08-.02,.13-.23,1.52,.9,2.92,2.43,3.01,4.22,.25,15.85,.36,25.16-5.08"/>
        <path class="cls-86" d="M280.97,121.8c-1.29,1.88-2.79,3.48-4.43,4.83l-3.5,2.45c-9.09,5.35-20.44,5.24-24.56,4.99-1.3-.08-2.3-1.11-2.4-2.36,4.89-.1,20.67-1.74,27.9-16.04,.66-1.31,1.33-2.73,1.95-4.2,2.68-6.42,2.8-13.63,.35-20.14l-1.69-4.53c.75,.09,1.44-1.29,1.67-.54l2.7,6.52c1.85-.09,3.56,1.73,4.35,3.42,2.19,4.68,5.16,14.71-2.33,25.6Z"/>
        <path class="cls-90" d="M249.61,118.38c3.5-.41,6.85-1.47,9.96-3.14,1.19-.64,.13-2.44-1.06-1.81-2.76,1.48-5.79,2.49-8.9,2.86-.56,.07-1.05,.43-1.05,1.05,0,.51,.48,1.11,1.05,1.05h0Z"/>
        <rect class="cls-112" x="272.27" y="83.41" width="3.36" height="3.64" rx="1.68" ry="1.68" transform="translate(-3.7 12.95) rotate(-2.69)"/>
        <path class="cls-28" d="M272.34,86.88s2.9,.91,3.88-1.3"/>
        <circle class="cls-90" cx="261.95" cy="112.64" r="1.08"/>
        <path class="cls-23" d="M272.61,120.21s4.09-4.94,4.64-9.31"/>
        <path class="cls-23" d="M261.35,129.07s2.11-.76,3.49-2.05"/>
        <path class="cls-23" d="M250.3,132.04s3.97-.51,5.29-.94"/>
        <path class="cls-53" d="M245.62,131.48s28.72,1.73,32.5-28.23"/>
        <path class="cls-23" d="M284.42,102.24s1.84,7.02-2.53,16.05"/>
        <path class="cls-28" d="M276.5,126.4c1.68-1.38,3.22-3.01,4.54-4.92,7.68-11.08,4.64-21.28,2.4-26.04-.81-1.72-2.59-2.77-4.49-2.67h0s-3.14-8.29-3.14-8.29c-.26-.88-1.09-1.47-2.01-1.42h0c-1.22,.06-2.11,1.2-1.86,2.4,.35,1.7,2.81,8.37,2.72,8.37,0,0,3.58,28.48-27.3,34.96-1.03,.21-1.85,1.02-2.03,2.05,0,.04-.01,.08-.02,.13-.23,1.52,.9,2.92,2.43,3.01,4.22,.25,15.85,.36,25.16-5.08"/>
        <path class="cls-15" d="M269.76,101.12s-2.22,3.54-4.69,5.8"/>
        <line class="cls-15" x1="272.43" y1="96.33" x2="271.31" y2="98.62"/>
        <path class="cls-28" d="M272.33,94.11s-2.65,8.07-10.02,14.25"/>
      </g>
      <g>
        <path class="cls-104" d="M172.51,90.59c.52-1.61,1.38-3.82,2.99-4.32l1.86-1.23c3.81-1.05,6.84-.77,10.28-2.73,.14-.08,.29-.16,.45-.24l2.94-.13c1.93,.83,5.08,.48,6.73,1.77,1.05,.82,2.06,1.78,2.6,3.15,.43,1.1,.4,2.62,1.01,3.5"/>
        <ellipse class="cls-75" cx="187.83" cy="85.15" rx="2.02" ry="1.11"/>
        <polyline class="cls-111" points="167.52 96.35 157 96.35 157.37 117.75 162.08 117.75 162.91 101.59 167.64 101.59"/>
        <line class="cls-68" x1="157.63" y1="97.62" x2="166.05" y2="97.62"/>
        <path class="cls-111" d="M196.45,137.83h-22.31l-4.89-45.3c-.05-.78,.57-1.44,1.35-1.46l29.37-.41h6.62c-2.34,3.22-3.88,6.96-4.46,10.9l-5.68,36.27Z"/>
        <polygon class="cls-127" points="204.68 93.77 169.82 93.77 169.82 90.87 206.42 90.87 204.68 93.77"/>
        <g>
          <polygon class="cls-90" points="180.53 138.04 176.87 138.04 173.32 90.52 176.98 90.52 180.53 138.04"/>
          <polygon class="cls-90" points="182.82 138.15 181.38 138.15 177.72 90.52 179.16 90.52 182.82 138.15"/>
        </g>
        <g>
          <line class="cls-16" x1="171.9" y1="128.93" x2="177.74" y2="128.93"/>
          <line class="cls-16" x1="167.33" y1="126.66" x2="174.91" y2="126.66"/>
          <line class="cls-16" x1="164.75" y1="124.39" x2="171.03" y2="124.39"/>
        </g>
        <line class="cls-24" x1="184.4" y1="124.92" x2="197.76" y2="124.92"/>
        <g>
          <line class="cls-6" x1="187.32" y1="120.28" x2="189.32" y2="120.28"/>
          <line class="cls-69" x1="191.77" y1="120.28" x2="195.45" y2="120.28"/>
          <line class="cls-6" x1="196.67" y1="120.28" x2="198.67" y2="120.28"/>
        </g>
        <g>
          <line class="cls-6" x1="180.19" y1="129.57" x2="181.19" y2="129.57"/>
          <line class="cls-67" x1="183.38" y1="129.57" x2="195.45" y2="129.57"/>
          <line class="cls-6" x1="196.55" y1="129.57" x2="197.55" y2="129.57"/>
        </g>
        <g>
          <line class="cls-6" x1="194.46" y1="110.98" x2="196.46" y2="110.98"/>
          <line class="cls-6" x1="198.82" y1="110.98" x2="200.82" y2="110.98"/>
        </g>
        <line class="cls-24" x1="190.46" y1="115.63" x2="199.82" y2="115.63"/>
        <line class="cls-24" x1="196.83" y1="106.25" x2="201.19" y2="106.25"/>
        <line class="cls-24" x1="198.5" y1="101.52" x2="201.86" y2="101.52"/>
        <g>
          <path class="cls-24" d="M191.04,81.94c6.73,0,10.34,3.21,10.34,8.42"/>
          <path class="cls-24" d="M172.51,90.59l.11-.28c1.3-3.41,4.39-5.83,8.02-6.25,2.57-.3,5.14-.68,7.02-1.75"/>
        </g>
        <g>
          <polyline class="cls-24" points="162.54 108.77 162.91 101.59 167.54 101.59"/>
          <polyline class="cls-24" points="167.52 96.35 157 96.35 157.37 117.75 162.08 117.75 162.34 112.69"/>
        </g>
        <circle class="cls-128" cx="197.45" cy="96.84" r=".78"/>
        <circle class="cls-128" cx="193.72" cy="95.65" r=".78"/>
        <circle class="cls-128" cx="200.37" cy="93.77" r=".78"/>
        <circle class="cls-128" cx="199.59" cy="96.35" r=".53"/>
        <circle class="cls-128" cx="195.12" cy="96.88" r=".53"/>
        <circle class="cls-128" cx="197.24" cy="95.12" r=".53"/>
        <ellipse class="cls-75" cx="190.82" cy="87.27" rx="2.02" ry="1.11"/>
        <ellipse class="cls-75" cx="183.75" cy="85.93" rx=".78" ry=".4"/>
        <ellipse class="cls-75" cx="186.22" cy="87.27" rx=".78" ry=".4"/>
        <ellipse class="cls-75" cx="179.84" cy="88.35" rx=".89" ry=".46"/>
        <ellipse class="cls-75" cx="195.48" cy="88.81" rx=".89" ry=".46"/>
        <ellipse class="cls-75" cx="183.48" cy="88.81" rx=".89" ry=".46"/>
        <rect class="cls-127" x="184.83" y="134.74" width="10.05" height="2.86" rx="1.43" ry="1.43"/>
        <path class="cls-127" d="M171.38,113.02l-1.17-11.39c-.04-.79,.57-1.46,1.36-1.5h0c.79-.04,1.46,.57,1.5,1.36l1.17,11.39c.04,.79-.6,1.45-1.39,1.48h.03c-.79,.05-1.46-.56-1.5-1.35Z"/>
        <path class="cls-24" d="M195.15,138.04h-19.36c-.87,0-1.58-.69-1.6-1.56l-4.85-44.17c-.05-.78,.57-1.44,1.35-1.44h35.99c-1.35,1.86-3.22,5.02-3.22,5.02,0,0-1,4.21-1.24,5.87l-5.47,34.91c-.12,.78-.79,1.37-1.58,1.37Z"/>
        <line class="cls-16" x1="157.63" y1="106.03" x2="160.33" y2="106.03"/>
        <line class="cls-16" x1="194.45" y1="97.62" x2="202.45" y2="97.62"/>
      </g>
      <g>
        <ellipse class="cls-138" cx="115.18" cy="110.96" rx="16.77" ry="24.19"/>
        <ellipse class="cls-101" cx="115.18" cy="116.55" rx="10.14" ry="12.03"/>
        <ellipse class="cls-89" cx="113.07" cy="116.57" rx="5.54" ry="6.32"/>
        <ellipse class="cls-90" cx="110.26" cy="114.28" rx="1.26" ry="1.44"/>
        <ellipse class="cls-90" cx="112.34" cy="112.05" rx=".61" ry=".69"/>
        <path class="cls-137" d="M132.24,110.54c0,13.36-7.51,24.19-16.77,24.19-7.55,0-13.94-7.19-16.05-17.09,2.84,7.57,8.39,12.71,14.78,12.71,9.26,0,16.77-10.83,16.77-24.19,0-2.47-.26-4.86-.73-7.1,1.27,3.41,2,7.33,2,11.48Z"/>
        <path class="cls-101" d="M120.62,116.14c.02,1.25-.86,2.64-2.45,2.94-.77,.15-1.66-.06-2.34-.61-.68-.54-1.11-1.44-1.11-2.34,0-.9,.42-1.8,1.1-2.34,.68-.55,1.57-.75,2.34-.61,1.59,.3,2.47,1.7,2.45,2.95Zm0,0c0-.64-.32-1.27-.81-1.63-.5-.36-1.12-.46-1.63-.31-1.05,.32-1.45,1.23-1.45,1.94,0,.72,.4,1.63,1.45,1.95,.51,.14,1.14,.05,1.63-.32,.5-.36,.82-.99,.81-1.63Z"/>
        <path class="cls-35" d="M112.37,105.86c.98-.39,2.68-.8,4.82-.18"/>
        <path class="cls-24" d="M124.21,111.04c-.46-1.94-1.3-3.76-2.4-5.3-1.6-2.24-3.75-3.89-6.1-4.46"/>
        <path class="cls-35" d="M116.39,127.34s4.05,.09,7.06-6.02"/>
        <path class="cls-24" d="M125.28,117.67c-.47,6.12-4.81,10.92-10.1,10.92-5.6,0-10.14-5.39-10.14-12.03,0-3.26,1.09-6.21,2.86-8.37"/>
        <path class="cls-24" d="M110.37,105.96c1.43-.92,3.07-1.44,4.82-1.44,5.19,0,9.47,4.63,10.07,10.61"/>
        <path class="cls-2" d="M110.84,122.16s2.45,1.79,5.27-.38"/>
        <path class="cls-9" d="M108.93,112.32s1.58-2.17,4.14-2.08"/>
        <path class="cls-24" d="M103.79,93.21c2.99-3.99,6.99-6.44,11.39-6.44,9.26,0,16.77,10.83,16.77,24.19s-7.51,24.19-16.77,24.19-16.77-10.83-16.77-24.19"/>
        <ellipse class="cls-90" cx="89.02" cy="110.96" rx="16.77" ry="24.19"/>
        <ellipse class="cls-101" cx="89.02" cy="116.55" rx="10.14" ry="12.03"/>
        <ellipse class="cls-89" cx="86.91" cy="116.57" rx="5.54" ry="6.32"/>
        <ellipse class="cls-96" cx="86.91" cy="116.57" rx="3.06" ry="3.49"/>
        <g>
          <ellipse class="cls-90" cx="84.87" cy="117.18" rx="1.26" ry="1.44"/>
          <ellipse class="cls-90" cx="86.95" cy="114.95" rx=".61" ry=".69"/>
        </g>
        <path class="cls-115" d="M106.08,110.54c0,13.36-7.51,24.19-16.77,24.19-7.55,0-13.94-7.19-16.05-17.09,2.84,7.57,8.39,12.71,14.78,12.71,9.26,0,16.77-10.83,16.77-24.19,0-2.47-.26-4.86-.73-7.1,1.27,3.41,2,7.33,2,11.48Z"/>
        <path class="cls-24" d="M81.35,94.49c.35-.42,.73-.82,1.13-1.19"/>
        <path class="cls-24" d="M77.52,101.44s.8-2.54,2.5-5.15"/>
        <path class="cls-66" d="M85.77,106.27c1.34-.74,4.94-1.38,8.19,1.06"/>
        <path class="cls-11" d="M88.09,105.63c.83-.08,1.79-.03,2.79,.22"/>
        <path class="cls-24" d="M98.64,112.95c-.78-6.6-6.13-12.39-11.69-11.73-1.25,.15-2.41,.56-3.45,1.18"/>
        <path class="cls-11" d="M88.62,127.62l1.6-.21s2.75-.21,5.39-3.34c1.22-1.44,2.02-3.19,2.44-5.03h0"/>
        <path class="cls-72" d="M92.53,126.67c1.14-.59,2.55-1.69,3.86-3.76"/>
        <path class="cls-24" d="M84.2,105.96c1.43-.92,3.07-1.44,4.82-1.44,5.6,0,10.14,5.39,10.14,12.03s-4.54,12.03-10.14,12.03-10.14-5.39-10.14-12.03c0-3.26,1.09-6.21,2.86-8.37"/>
        <path class="cls-2" d="M84.67,122.16s2.45,1.79,5.27-.38"/>
        <path class="cls-60" d="M83.21,113.45s1.41-2.45,4.16-2.19"/>
        <path class="cls-31" d="M84.17,112.34c.33-.29,.75-.58,1.26-.79"/>
        <path class="cls-24" d="M73.78,100.86c1.17-3.67,2.96-6.85,5.18-9.25"/>
        <path class="cls-24" d="M72.31,108.83c.1-1.69,.32-3.32,.65-4.89"/>
        <path class="cls-24" d="M81.07,89.65c2.37-1.84,5.07-2.88,7.95-2.88,9.26,0,16.77,10.83,16.77,24.19s-7.51,24.19-16.77,24.19-16.35-10.23-16.75-23.06"/>
      </g>
      <g>
        <path class="cls-111" d="M30.38,137.15H14.02c-1.35,0-2.47-1.03-2.59-2.38l-4.06-35.74h29.22l-3.61,35.71c-.1,1.35-1.23,2.4-2.59,2.4Z"/>
        <path class="cls-97" d="M34.44,117.56l-1.54,16.78c-.1,1.36-1.23,2.4-2.59,2.4H13.94c-1.35,0-2.48-1.03-2.59-2.37l-1.67-14.72,3.84-1.04c2.47-1.02,5.62-.96,7.39,1.04,1.21,1.37,3.23,.75,4.99,.75,.8,0,.88,.32,1.65,0l6.9-2.84Z"/>
        <path class="cls-111" d="M7.61,96.25c0-7.94,6.43-14.37,14.37-14.37s14.37,6.43,14.37,14.37"/>
        <path class="cls-90" d="M29.08,83.72l.19,.09c-.44,2.09-3.15,3.72-5.79,3.17-2.61-.54-4.53-2.86-4.16-4.92,.71-.11,1.56-.19,2.29-.19,2.72,0,5.3,.54,7.46,1.85Z"/>
        <path class="cls-24" d="M34.92,90c.91,1.89,1.43,4.01,1.43,6.25"/>
        <line class="cls-24" x1="27.5" y1="75.08" x2="23.17" y2="86.47"/>
        <path class="cls-24" d="M29.39,84.05c-.44,2.09-2.93,3.33-5.58,2.78s-4.44-2.69-4-4.78"/>
        <g class="cls-134">
          <path class="cls-90" d="M12.05,89.86c.21-.33,.44-.65,.68-.96l-.23,.3c.71-.91,1.52-1.73,2.43-2.44l-.3,.23c.54-.41,1.11-.79,1.7-1.12,.69-.38,.97-1.38,.54-2.05s-1.32-.95-2.05-.54c-2.17,1.21-4.01,2.97-5.35,5.05-.42,.66-.16,1.68,.54,2.05,.74,.39,1.6,.17,2.05-.54h0Z"/>
        </g>
        <g class="cls-134">
          <path class="cls-90" d="M12.8,88.81c.5-.6,1.05-1.15,1.64-1.66,.15-.14,.25-.3,.31-.48,.09-.18,.14-.37,.13-.58,0-.21-.04-.4-.13-.58-.06-.19-.16-.35-.31-.48-.29-.26-.66-.46-1.06-.44l-.4,.05c-.25,.07-.47,.2-.66,.39-.59,.51-1.14,1.06-1.64,1.66-.15,.14-.25,.3-.31,.48-.09,.18-.14,.37-.13,.58,0,.21,.04,.4,.13,.58,.06,.19,.16,.35,.31,.48,.29,.26,.66,.46,1.06,.44l.4-.05c.25-.07,.47-.2,.66-.39h0Z"/>
        </g>
        <path class="cls-129" d="M26.02,101.25H7.55v-2.24h28.8c-3.24,1.48-6.76,2.24-10.33,2.24Z"/>
        <g>
          <polygon class="cls-90" points="16.8 137.15 12.98 137.15 21.98 99.04 25.8 99.04 16.8 137.15"/>
          <polygon class="cls-90" points="19.12 137.15 17.62 137.15 26.62 99.04 28.12 99.04 19.12 137.15"/>
        </g>
        <g>
          <ellipse class="cls-90" cx="12.82" cy="123.55" rx="1.26" ry="1.44"/>
          <ellipse class="cls-90" cx="14.91" cy="121.33" rx=".61" ry=".69"/>
        </g>
        <g>
          <line class="cls-63" x1="34.74" y1="102.44" x2="33.5" y2="113.91"/>
          <line class="cls-10" x1="34.52" y1="104.5" x2="33.91" y2="110.07"/>
        </g>
        <g>
          <line class="cls-63" x1="9.45" y1="103.41" x2="10.7" y2="114.88"/>
          <line class="cls-10" x1="9.67" y1="105.47" x2="10.28" y2="111.03"/>
        </g>
        <polyline class="cls-24" points="9.07 114.04 7.37 99.04 36.58 99.04 35.72 107.09"/>
        <line class="cls-11" x1="22.11" y1="135.83" x2="30.58" y2="135.83"/>
        <line class="cls-72" x1="25.64" y1="135.83" x2="28.46" y2="135.83"/>
        <path class="cls-72" d="M25.33,121.53s2.04,.21,4.27-.52"/>
        <path class="cls-24" d="M9.68,119.65l3.14-.96c2.7-.82,5.61-.57,8.12,.71h0c3.22,1.63,7.03,1.57,10.19-.16l3.32-1.83"/>
        <line class="cls-11" x1="33.1" y1="123.36" x2="32.06" y2="132.16"/>
        <line class="cls-72" x1="32.67" y1="126.37" x2="32.34" y2="129.48"/>
        <line class="cls-24" x1="10.68" y1="128.19" x2="9.47" y2="117.55"/>
        <path class="cls-24" d="M35.38,110.22l-2.4,24.53c-.1,1.35-1.23,2.4-2.59,2.4H14.02c-1.35,0-2.47-1.03-2.59-2.38l-.41-3.59"/>
        <g class="cls-133">
          <circle class="cls-85" cx="24.4" cy="128.6" r="1.02"/>
          <circle class="cls-85" cx="25.81" cy="127.08" r=".49"/>
          <circle class="cls-85" cx="23.41" cy="132.66" r=".88"/>
          <circle class="cls-85" cx="23.66" cy="123.94" r=".49"/>
          <circle class="cls-85" cx="28.71" cy="131.07" r=".64"/>
          <circle class="cls-85" cx="32.82" cy="120.5" r=".41"/>
          <circle class="cls-85" cx="28.16" cy="125.01" r=".34"/>
        </g>
        <rect class="cls-111" x="3.41" y="95.29" width="37.14" height="3.98" rx="1.99" ry="1.99"/>
        <g>
          <line class="cls-50" x1="19.41" y1="96.25" x2="34.37" y2="96.25"/>
          <line class="cls-10" x1="24.62" y1="96.25" x2="28.53" y2="96.25"/>
        </g>
        <g>
          <line class="cls-50" x1="21.63" y1="94.64" x2="31.59" y2="94.64"/>
          <line class="cls-10" x1="23.85" y1="94.64" x2="27.75" y2="94.64"/>
        </g>
        <path class="cls-24" d="M16.98,95.29h21.57c1.1,0,1.99,.89,1.99,1.99h0c0,1.1-.89,1.99-1.99,1.99H5.4c-1.1,0-1.99-.89-1.99-1.99h0c0-1.1,.89-1.99,1.99-1.99H13.65"/>
        <path class="cls-24" d="M29.24,83.85c1.59,.94,2.99,2.17,4.11,3.62"/>
        <path class="cls-24" d="M21.98,81.88c1.99,0,3.88,.4,5.6,1.13"/>
        <path class="cls-24" d="M7.64,95.31c.43-6.71,5.48-12.17,11.99-13.24"/>
      </g>
      <g>
        <g>
          <path class="cls-125" d="M407.39,131.71l-20.28-42.63,6.15-3.98-6.8,3.29-3.67-2c-.97-.53-.94-1.93,.06-2.41l20.41-9.9c.96-.47,2.06,.31,1.93,1.37l-.49,4.25-6.96,3.28,7.09-2.35,15.3,32.15,1.63,3.42,3.36,7.06-17.72,8.43Z"/>
          <path class="cls-125" d="M429.34,128.06l-20.65,9.83c-1.02,.49-2.18-.34-2.06-1.46l.5-4.6,18.24-8.68,4.08,2.35c1.01,.58,.95,2.06-.1,2.56Z"/>
        </g>
        <rect class="cls-120" x="390.52" y="89.82" width="4.23" height="10.07" rx="2.11" ry="2.11" transform="translate(-3.51 173.79) rotate(-24.85)"/>
        <rect class="cls-120" x="408.92" y="94.59" width="4.23" height="10.07" rx="2.11" ry="2.11" transform="translate(-3.81 181.97) rotate(-24.85)"/>
        <line class="cls-19" x1="393.67" y1="89.24" x2="401.73" y2="85.39"/>
        <line class="cls-19" x1="406.66" y1="121.89" x2="418.02" y2="116.48"/>
        <rect class="cls-98" x="401.26" y="94.81" width="9.87" height="23.53" rx="4.94" ry="4.94" transform="translate(-7.18 180.58) rotate(-24.85)"/>
        <path class="cls-93" d="M405.06,110.58v-.02c-1.05,.49-2.31,.03-2.8-1.03l-3.24-7.27c-.49-1.06-.03-2.32,1.03-2.81h0c1.06-.49,2.32-.03,2.81,1.03l3.24,7.27c.49,1.06,.02,2.33-1.04,2.82Z"/>
        <path class="cls-19" d="M403.09,111.62l-4.44-9.58c-1.15-2.47-.07-5.41,2.4-6.55h0c2.47-1.15,5.41-.07,6.55,2.4l5.74,12.4c1.15,2.47,.07,5.41-2.4,6.55h0c-2.47,1.15-5.41,.07-6.55-2.4"/>
        <line class="cls-40" x1="384.7" y1="84.75" x2="393.67" y2="80.37"/>
        <line class="cls-34" x1="387.22" y1="83.5" x2="390.82" y2="81.67"/>
        <line class="cls-71" x1="411.93" y1="130.82" x2="423.13" y2="125.55"/>
        <g>
          <line class="cls-74" x1="409.95" y1="129.41" x2="421.15" y2="124.14"/>
          <line class="cls-74" x1="413.56" y1="127.71" x2="416.88" y2="126.15"/>
        </g>
        <g>
          <line class="cls-74" x1="391.04" y1="87.97" x2="402.24" y2="82.7"/>
          <line class="cls-74" x1="394.64" y1="86.27" x2="397.96" y2="84.71"/>
        </g>
        <g>
          <line class="cls-19" x1="394.89" y1="104.94" x2="387.41" y2="89.21"/>
          <polyline class="cls-19" points="407.69 131.84 402.74 121.44 401.2 118.21 396.39 108.09"/>
          <line class="cls-19" x1="422.06" y1="116.35" x2="425.41" y2="123.41"/>
          <line class="cls-19" x1="405.13" y1="80.78" x2="420.43" y2="112.93"/>
          <path class="cls-19" d="M393.56,85.23l-6.8,3.29-3.67-2c-.97-.53-.94-1.93,.06-2.41l20.41-9.9c.96-.47,2.06,.31,1.93,1.37l-.49,4.25-6.96,3.28"/>
          <path class="cls-19" d="M429.64,128.19l-20.65,9.83c-1.02,.49-2.18-.34-2.06-1.46l.5-4.6,18.24-8.68,4.08,2.35c1.01,.58,.95,2.06-.1,2.56Z"/>
        </g>
        <g>
          <line class="cls-16" x1="409.88" y1="133.76" x2="411.29" y2="136.87"/>
          <line class="cls-16" x1="412.2" y1="132.98" x2="413.61" y2="136.09"/>
          <line class="cls-16" x1="426.12" y1="126.07" x2="427.53" y2="129.17"/>
          <line class="cls-16" x1="423.8" y1="126.84" x2="425.21" y2="129.95"/>
          <line class="cls-16" x1="414.52" y1="131.57" x2="415.93" y2="134.68"/>
          <line class="cls-16" x1="416.84" y1="130.51" x2="418.25" y2="133.62"/>
          <line class="cls-16" x1="419.16" y1="129.38" x2="420.57" y2="132.49"/>
          <line class="cls-16" x1="421.48" y1="127.9" x2="422.89" y2="131.01"/>
        </g>
        <g>
          <line class="cls-16" x1="403.04" y1="78.63" x2="401.62" y2="75.52"/>
          <line class="cls-16" x1="400.72" y1="79.41" x2="399.3" y2="76.3"/>
          <line class="cls-16" x1="386.8" y1="86.32" x2="385.39" y2="83.22"/>
          <line class="cls-16" x1="389.12" y1="85.55" x2="387.71" y2="82.44"/>
          <line class="cls-16" x1="398.4" y1="80.82" x2="396.98" y2="77.71"/>
          <line class="cls-16" x1="396.08" y1="81.88" x2="394.67" y2="78.77"/>
          <line class="cls-16" x1="393.76" y1="83.01" x2="392.35" y2="79.9"/>
          <line class="cls-16" x1="391.44" y1="84.49" x2="390.03" y2="81.38"/>
        </g>
      </g>
      <g>
        <g>
          <path class="cls-124" d="M47.4,21.21l2.18,1.08c1.61,.8,1.86,2.99,.47,4.13l-6.41,3.9-2.79-3.55"/>
          <path class="cls-24" d="M43.32,30.49l6.73-4.07c1.39-1.14,1.14-3.33-.47-4.13l-2.18-1.08"/>
        </g>
        <path class="cls-109" d="M37.64,14.15l-1.77-1.66c-1.31-1.23-3.45-.7-4.03,1l-1.42,7.37,4.3,1.38"/>
        <path class="cls-24" d="M30.36,21.21l1.47-7.72c.59-1.7,2.72-2.22,4.03-1l1.77,1.66"/>
        <path class="cls-119" d="M32.99,20.87l2.05-10.13c.18-.98,1.31-1.44,2.13-.88l1.02,.7,2.89-3.31,1.03-1.18c.98-1.12,2.65-1.33,3.87-.49h0c1.23,.85,1.63,2.48,.92,3.8l-2.89,5.41,1.5-.78c.79-.41,1.75-.35,2.48,.16h0c.87,.6,1.25,1.7,.94,2.72l-1.35,4.3h0c1.08,.74,1.09,2.32,.03,3.09l-4.62,3.09"/>
        <line class="cls-42" x1="36.67" y1="22.1" x2="42.39" y2="25.91"/>
        <line class="cls-42" x1="35.4" y1="14.9" x2="39" y2="17.23"/>
        <line class="cls-42" x1="45.42" y1="19.91" x2="47.47" y2="21.32"/>
        <path class="cls-100" d="M32.33,44.24l-12.66,14.42c-1.62,1.95-4.46,2.34-6.55,.9h0c-2.09-1.44-2.74-4.23-1.49-6.44L28.88,20.44c.54-.96,1.79-1.25,2.7-.63l12.08,8.32c.91,.63,1.09,1.9,.38,2.75l-7.27,8.28"/>
        <path class="cls-20" d="M42.03,8.12l1.03-1.18c.98-1.12,2.65-1.33,3.87-.49h0"/>
        <line class="cls-24" x1="35.03" y1="13.4" x2="39.04" y2="16.16"/>
        <line class="cls-24" x1="45.43" y1="18.26" x2="47.92" y2="19.97"/>
        <circle class="cls-126" cx="34.41" cy="41.86" r=".77"/>
        <line class="cls-56" x1="19.87" y1="56.12" x2="30.25" y2="44.62"/>
        <line class="cls-51" x1="22.77" y1="52.88" x2="26.86" y2="48.36"/>
        <g>
          <line class="cls-56" x1="36.53" y1="36.99" x2="41.54" y2="31.28"/>
          <line class="cls-51" x1="38.58" y1="34.8" x2="38.58" y2="34.73"/>
        </g>
        <line class="cls-24" x1="20.95" y1="49.97" x2="24.68" y2="52.55"/>
        <line class="cls-24" x1="36.64" y1="29.29" x2="41.99" y2="32.98"/>
        <line class="cls-18" x1="28.2" y1="24.08" x2="18.25" y2="43.2"/>
        <line class="cls-37" x1="25.27" y1="29.7" x2="21" y2="37.91"/>
        <line class="cls-24" x1="22.17" y1="34.38" x2="27.8" y2="38.25"/>
        <g>
          <path class="cls-24" d="M41.25,7.41l1.03-1.18c.98-1.12,2.65-1.33,3.87-.49h0c1.23,.85,1.63,2.48,.92,3.8l-2.89,5.41,1.5-.78c.79-.41,1.75-.35,2.48,.16h0c.87,.6,1.25,1.7,.94,2.72l-1.35,4.3h0c1.08,.74,1.09,2.32,.03,3.09l-4.62,3.09"/>
          <path class="cls-24" d="M33.35,20.69l1.86-9.79c.18-.98,1.31-1.44,2.13-.88l1.02,.7"/>
        </g>
        <path class="cls-59" d="M11.85,56.52s1.41,3.39,4.71,3.01"/>
        <path class="cls-24" d="M27.11,23.81l1.78-3.36c.54-.96,1.79-1.25,2.7-.63l12.08,8.32c.91,.63,1.09,1.9,.38,2.75l-7.27,8.28"/>
        <line class="cls-24" x1="15.05" y1="46.65" x2="25.79" y2="26.29"/>
        <path class="cls-24" d="M32.33,44.24l-12.66,14.42c-1.62,1.95-4.46,2.34-6.55,.9h0c-2.09-1.44-2.74-4.23-1.49-6.44l1.93-3.66"/>
      </g>
      <g>
        <path class="cls-112" d="M102.33,29.64s-5.8-7.52-9.62-9.44l.02-.04c.95-1.73,2.55-3.47,4.65-3.84h0s4.04,3.83,4.51,8.84"/>
        <path class="cls-41" d="M95.2,21.03c.73,.49,1.84,1.54,2.7,2.53"/>
        <path class="cls-54" d="M94.64,18.7c.91-1.01,2.64-1.65,2.64-1.65"/>
        <path class="cls-54" d="M95.94,17.68c.25-.16,.51-.27,.73-.35"/>
        <path class="cls-52" d="M99.55,26.48s-2.89-4.19-6.72-6.11l.02-.04c.95-1.73,2.55-3.47,4.65-3.84h0s4.04,3.83,4.51,8.84"/>
        <path class="cls-105" d="M123.76,30.22c-1.64-3.18-4.84-5.84-8.7-6.47-3.86-.63-8.24,1.15-9.67,4.41h-2.29c-1.43-3.26-6.76-5.04-10.62-4.41-3.86,.63-6.1,3.29-7.74,6.47-1.64,3.18-1.89,6.81-1.48,10.29,.54,4.5,3.11,8.89,5.67,12.79,1.53,2.34,3.53,4.59,6.34,5.62,1.4,.51,2.94,.53,4.5,.26,2.72-.48,5.48-.48,8.2-.07,1.99,.3,4,.27,5.24-.19,2.81-1.02,4.81-3.28,6.34-5.62,2.56-3.9,5.13-8.29,5.67-12.79,.42-3.48,.16-7.11-1.48-10.29Z"/>
        <g class="cls-131">
          <path class="cls-90" d="M86.43,39.18c-.11-.62-.18-1.36-.17-2.15,0-.37,.02-.74,.06-1.11,.01-.16,.03-.32,.05-.47-.02,.16,.06-.35,.07-.41,.29-1.56,.76-2.78,1.56-4.1,.4-.66,.15-1.57-.51-1.96s-1.56-.15-1.96,.51c-1.89,3.14-2.51,6.86-1.85,10.45,.14,.76,1.06,1.19,1.76,1,.8-.22,1.14-1,1-1.76h0Z"/>
        </g>
        <g class="cls-131">
          <path class="cls-90" d="M86.27,36.55c.02-.4,.05-.79,.11-1.19l-.05,.38c.11-.79,.28-1.57,.52-2.33,.23-.71-.27-1.59-1-1.76-.78-.18-1.52,.24-1.76,1-.4,1.26-.62,2.58-.68,3.9-.03,.75,.68,1.46,1.43,1.43,.81-.04,1.39-.63,1.43-1.43h0Z"/>
        </g>
        <g class="cls-132">
          <path class="cls-110" d="M105.51,57.12c.91,1.61,2.33,2.66,4.21,2.7s3.68-.53,5.24-1.53c3.29-2.13,5.46-5.4,7.21-8.84,1.84-3.63,3.6-7.41,3.55-11.56-.04-3.82-1.14-7.83-3.81-10.66-1.47-1.56-3.39-2.74-5.46-3.31-2.28-.63-4.54-.33-6.8,.23-1.79,.45-1.03,3.21,.76,2.76,2.03-.51,4-.75,6,0,1.79,.66,3.38,1.95,4.43,3.55,2.1,3.21,2.54,7.67,1.5,11.31-.58,2.05-1.5,3.99-2.46,5.89-.88,1.74-1.8,3.48-3.01,5.02s-2.63,2.93-4.35,3.73c-.76,.35-1.61,.51-2.44,.55-1.04,.04-1.58-.38-2.09-1.27-.91-1.6-3.38-.16-2.47,1.44h0Z"/>
        </g>
        <g class="cls-134">
          <path class="cls-110" d="M113.44,23.53c-1.28,.04-2.55,.3-3.79,.62-.73,.18-1.23,1.04-1,1.76s.98,1.2,1.76,1,1.53-.37,2.3-.48l-.38,.05c.37-.05,.74-.08,1.11-.09s.75-.15,1.01-.42c.25-.25,.44-.66,.42-1.01s-.14-.75-.42-1.01-.63-.43-1.01-.42h0Z"/>
        </g>
        <g class="cls-134">
          <path class="cls-110" d="M121.81,50.14c1.73-3.38,3.54-6.91,3.86-10.75,.06-.77-.7-1.43-1.43-1.43-.83,0-1.37,.66-1.43,1.43,0,.06-.06,.57-.04,.4-.03,.21-.07,.43-.11,.64-.09,.43-.19,.86-.31,1.29-.23,.83-.53,1.64-.85,2.44-.6,1.48-1.4,3.06-2.16,4.54-.35,.69-.18,1.55,.51,1.96,.64,.37,1.6,.18,1.96-.51h0Z"/>
        </g>
        <g class="cls-134">
          <path class="cls-110" d="M105.51,57.12c.19,.37,.43,.7,.69,1.02,.19,.24,.41,.46,.65,.65,.2,.16,.4,.32,.62,.45s.46,.23,.7,.32c.39,.16,.81,.22,1.22,.24,.35,.02,.77-.17,1.01-.42s.44-.66,.42-1.01-.14-.75-.42-1.01-.62-.4-1.01-.42c-.06,0-.13,0-.19-.02l.38,.05c-.23-.03-.45-.09-.66-.18l.34,.14c-.24-.1-.45-.23-.66-.39l.29,.22c-.26-.2-.49-.44-.69-.69l.22,.29c-.17-.22-.32-.45-.45-.7-.16-.31-.53-.57-.86-.66s-.8-.05-1.1,.14-.57,.49-.66,.86c-.09,.39-.04,.75,.14,1.1h0Z"/>
        </g>
        <g>
          <path class="cls-8" d="M88.24,52.23c.23,.36,.46,.71,.69,1.06,1.53,2.34,3.53,4.59,6.34,5.62,1.61,.59,3.24,.73,5.4,.41"/>
          <path class="cls-8" d="M103.1,28.16c-1.43-3.26-5.81-5.04-9.67-4.41s-7.05,3.29-8.7,6.47-1.89,6.81-1.48,10.29c.33,2.76,1.43,5.48,2.82,8.08"/>
          <path class="cls-8" d="M106.95,59.35c2.6,.11,4.51,.21,6.27-.43,2.81-1.02,4.81-3.28,6.34-5.62,2.56-3.9,5.13-8.29,5.67-12.79,.42-3.48,.16-7.11-1.48-10.29-1.64-3.18-4.84-5.84-8.7-6.47-3.86-.63-8.24,1.15-9.67,4.41"/>
        </g>
        <ellipse class="cls-91" cx="95.33" cy="34.21" rx="5.29" ry="6.03"/>
        <ellipse class="cls-92" cx="93.1" cy="32.67" rx="2.33" ry="2.05" transform="translate(43.95 118.22) rotate(-79.46)"/>
        <circle class="cls-126" cx="87.17" cy="50.46" r=".64"/>
        <path class="cls-125" d="M113.65,20.57c-2.65,6.2-10.21,8.91-10.21,8.91,0,0-3.27-7.34-.63-13.53,2.65-6.2,10.21-8.91,10.21-8.91,0,0,3.27,7.34,.63,13.53Z"/>
        <path class="cls-13" d="M110.9,11.85c-1.14,9.39-7.13,16.9-7.13,16.9"/>
        <circle class="cls-126" cx="103.63" cy="58.88" r="1.1"/>
        <path class="cls-26" d="M103.02,19.43s.54-5.75,6.11-9.2"/>
        <path class="cls-26" d="M103.99,16.13c.5-1.12,1.25-2.41,2.38-3.62"/>
        <path class="cls-8" d="M114.67,15.58c-.04,1.64-.33,3.35-1.03,4.99-2.65,6.2-10.21,8.91-10.21,8.91,0,0-3.27-7.34-.63-13.53,2.65-6.2,10.21-8.91,10.21-8.91,0,0,1.16,2.6,1.54,6.02"/>
        <line class="cls-13" x1="104.13" y1="23.02" x2="105.45" y2="25.82"/>
        <line class="cls-13" x1="106.96" y1="18.24" x2="107.91" y2="21.27"/>
        <line class="cls-13" x1="109.12" y1="12.58" x2="110.06" y2="15.61"/>
        <line class="cls-13" x1="107.2" y1="23.33" x2="109.32" y2="23.33"/>
        <line class="cls-13" x1="109.56" y1="17.87" x2="111.68" y2="17.87"/>
      </g>
      <g>
        <path class="cls-90" d="M192.91,11.61h6.04c.93,0,1.69,.76,1.69,1.69V59.19c0,.93-.76,1.69-1.69,1.69h-33.32c-.93,0-1.69-.76-1.69-1.69v-17.51"/>
        <path class="cls-8" d="M163.93,20.65v-7.36c0-.93,.76-1.69,1.69-1.69h6.24"/>
        <line class="cls-8" x1="163.93" y1="35.54" x2="163.93" y2="24.29"/>
        <polyline class="cls-77" points="177.33 16.93 171.76 16.93 171.76 4.83 192.39 4.83 192.39 16.93 180.49 16.93"/>
        <line class="cls-8" x1="178.02" y1="27.02" x2="190.92" y2="27.02"/>
        <line class="cls-8" x1="178.02" y1="31.43" x2="186.78" y2="31.43"/>
        <g>
          <line class="cls-8" x1="178.02" y1="44.54" x2="190.49" y2="44.54"/>
          <line class="cls-8" x1="178.02" y1="48.78" x2="186.45" y2="48.78"/>
        </g>
        <g>
          <line class="cls-8" x1="178.02" y1="35.83" x2="193.06" y2="35.83"/>
          <line class="cls-8" x1="178.02" y1="40.07" x2="186.45" y2="40.07"/>
        </g>
        <g>
          <circle class="cls-89" cx="172.41" cy="28.99" r="1.7"/>
          <circle class="cls-89" cx="172.41" cy="37.54" r="1.7"/>
          <circle class="cls-89" cx="172.41" cy="46.58" r="1.7"/>
        </g>
        <circle class="cls-126" cx="163.94" cy="38.74" r=".91"/>
        <circle class="cls-90" cx="176.57" cy="10.54" r="1.7"/>
        <circle class="cls-90" cx="188.05" cy="10.54" r="1.7"/>
        <circle class="cls-8" cx="188.22" cy="10.73" r="1.7"/>
        <g>
          <line class="cls-22" x1="174.34" y1="18.26" x2="184.27" y2="18.26"/>
          <line class="cls-22" x1="177.01" y1="18.26" x2="180.01" y2="18.26"/>
        </g>
        <g>
          <line class="cls-22" x1="165.34" y1="45.98" x2="165.34" y2="55.9"/>
          <line class="cls-22" x1="165.34" y1="48.65" x2="165.34" y2="51.65"/>
        </g>
        <g>
          <line class="cls-22" x1="199.13" y1="21.88" x2="199.13" y2="31.81"/>
          <line class="cls-22" x1="199.13" y1="24.55" x2="199.13" y2="27.55"/>
        </g>
        <path class="cls-8" d="M192.91,11.61h6.04c.93,0,1.69,.76,1.69,1.69V59.19c0,.93-.76,1.69-1.69,1.69h-33.32c-.93,0-1.69-.76-1.69-1.69v-17.51"/>
        <g>
          <line class="cls-12" x1="174.37" y1="6.03" x2="189.4" y2="6.03"/>
          <line class="cls-33" x1="182.69" y1="6.03" x2="186.15" y2="6.03"/>
          <line class="cls-33" x1="177.15" y1="6.03" x2="178.57" y2="6.03"/>
        </g>
        <g>
          <line class="cls-12" x1="175.97" y1="15.94" x2="191.01" y2="15.94"/>
          <line class="cls-33" x1="184.3" y1="15.94" x2="187.76" y2="15.94"/>
          <line class="cls-33" x1="178.76" y1="15.94" x2="180.17" y2="15.94"/>
        </g>
        <polyline class="cls-8" points="177.54 17 171.97 17 171.97 4.91 192.6 4.91 192.6 17 180.7 17"/>
        <circle class="cls-8" cx="176.57" cy="10.73" r="1.7"/>
        <g>
          <circle class="cls-16" cx="172.13" cy="28.96" r="1.7"/>
          <circle class="cls-16" cx="172.13" cy="37.52" r="1.7"/>
          <circle class="cls-16" cx="172.13" cy="46.55" r="1.7"/>
        </g>
        <line class="cls-16" x1="172.04" y1="14.76" x2="176.2" y2="14.76"/>
        <line class="cls-16" x1="188.2" y1="7.42" x2="192.37" y2="7.42"/>
        <line class="cls-16" x1="195.97" y1="55.68" x2="200.13" y2="55.68"/>
        <line class="cls-16" x1="191.67" y1="55.68" x2="193.77" y2="55.68"/>
      </g>
      <g>
        <path class="cls-79" d="M272.68,18.33c4.12-3.16,8.35,3.91,9.07,6.1h0c.05,.17,.1,.33,.15,.5,.66,2.44-1.18,3.11-2.37,5.26l-.54,2.09h0v25.38c0,.96-.78,1.73-1.73,1.73h-6.55"/>
        <path class="cls-39" d="M278.89,32.32h0v25.38c0,.96-.78,1.73-1.73,1.73h-4.51"/>
        <polyline class="cls-123" points="274.77 20.12 277.48 14.38 273.04 12.75 270.68 8.99 268.01 10.28 263.63 12.47 259.4 10.2 255.17 12.15 250.95 10.2 247.54 12.66 243.87 10.57 237.28 15.29"/>
        <polyline class="cls-39" points="272.44 18.79 271.59 13.9 262.61 15.34"/>
        <polyline class="cls-97" points="236.48 23.01 235.38 15.61 247.8 16.18"/>
        <path class="cls-87" d="M258.52,15.22c5.16,.12,10.38,1.52,15.2,4.21,1.81,1.01,3.23,2.77,3.94,4.96h0c.05,.17,.1,.33,.15,.5,.66,2.44,.25,2.11-.94,4.25l-1.97,2.53h0v26.07c0,.89-.72,1.61-1.61,1.61h-15.6s-1.87,0-1.87,0h-15.25c-1.08,0-1.95-.87-1.95-1.95V31.68l-.08-1.26-1.22-1.13c-1.19-2.15-2.26-1.96-1.6-4.4,.05-.17,.1-.34,.15-.5h0c.71-2.19,2.89-4.74,4.7-5.75,4.76-2.65,9.16-3.27,14.26-3.42"/>
        <polyline class="cls-97" points="272.31 18.92 271.46 14.03 262.48 15.47"/>
        <polyline class="cls-39" points="274.88 20.12 277.59 14.38 273.14 12.75 270.79 8.99"/>
        <path class="cls-83" d="M274.69,57.81c-.08,.68-.65,1.2-1.34,1.21l-33.18,.42v.09c10.59-1.1,18.41-5.01,23.6-10.18,8.97-8.93,9.26-23.38,1.05-33.01h0s6.14,1.47,6.14,1.47l4.09,2.38,2.89,4.24-.11,3.6-1.87,2.29-1.11,2.22,.21,21.97-.38,3.29Z"/>
        <line class="cls-39" x1="266.07" y1="34.66" x2="266.07" y2="53.6"/>
        <g class="cls-132">
          <path class="cls-90" d="M239.72,23.74c.2-.4,.44-.77,.71-1.13l-.23,.3c.38-.48,.81-.92,1.3-1.3l-.3,.23c.49-.37,1.02-.69,1.58-.93,.32-.14,.6-.58,.69-.9,.1-.36,.05-.84-.15-1.16s-.51-.6-.9-.69l-.4-.05c-.27,0-.52,.07-.76,.2-1.75,.75-3.26,2.2-4.13,3.89-.18,.36-.26,.76-.15,1.16,.1,.35,.36,.73,.69,.9,.35,.18,.77,.28,1.16,.15,.36-.12,.72-.34,.9-.69h0Z"/>
        </g>
        <g class="cls-135">
          <path class="cls-90" d="M246.17,19.6c.85-.31,1.71-.58,2.59-.8,.48-.12,.96-.22,1.44-.31,.12-.02,.25-.04,.37-.06,.04,0,.48-.07,.23-.04s.19-.02,.23-.03c.14-.02,.29-.03,.43-.04,.4-.04,.76-.14,1.06-.44,.26-.26,.46-.69,.44-1.06-.03-.75-.66-1.57-1.5-1.5-2.08,.18-4.13,.66-6.09,1.39-.37,.14-.69,.34-.9,.69-.19,.32-.27,.8-.15,1.16,.23,.72,1.06,1.34,1.85,1.05h0Z"/>
        </g>
        <g class="cls-132">
          <path class="cls-90" d="M240.64,22.4c.27-.28,.55-.55,.86-.78l-.3,.23c.09-.07,.19-.14,.29-.21,.17-.09,.32-.22,.42-.39,.13-.14,.22-.31,.27-.51,.06-.2,.07-.4,.03-.6,0-.2-.07-.39-.18-.56l-.23-.3c-.19-.19-.41-.31-.66-.39l-.4-.05c-.27,0-.52,.07-.76,.2-.52,.36-1.02,.77-1.45,1.23-.15,.14-.25,.3-.31,.48-.09,.18-.14,.37-.13,.58,0,.21,.04,.4,.13,.58,.06,.19,.16,.35,.31,.48l.3,.23c.23,.14,.49,.2,.76,.2l.4-.05c.25-.07,.47-.2,.66-.39h0Z"/>
        </g>
        <path class="cls-39" d="M238.48,20.06s-5.72,5.65,0,10.31"/>
        <path class="cls-39" d="M274.55,19.86s6.42,5.11,.99,10.51"/>
        <path class="cls-39" d="M279.12,20.06s5.72,5.65,0,10.31"/>
        <circle class="cls-126" cx="277.78" cy="18.73" r=".64"/>
        <line class="cls-49" x1="239.97" y1="35.06" x2="239.97" y2="48.75"/>
        <line class="cls-46" x1="239.97" y1="40.78" x2="239.97" y2="44.17"/>
        <g>
          <line class="cls-17" x1="249.47" y1="35.06" x2="249.47" y2="48.75"/>
          <line class="cls-17" x1="249.47" y1="40.78" x2="249.47" y2="44.17"/>
        </g>
        <line class="cls-65" x1="258.6" y1="36.53" x2="258.6" y2="50.22"/>
        <line class="cls-29" x1="258.6" y1="42.25" x2="258.6" y2="45.64"/>
        <line class="cls-39" x1="247.67" y1="34.66" x2="247.67" y2="53.6"/>
        <line class="cls-39" x1="256.87" y1="34.66" x2="256.87" y2="53.6"/>
        <ellipse class="cls-83" cx="268.06" cy="28.07" rx="1.04" ry="1.36"/>
        <circle class="cls-83" cx="266.98" cy="24.94" r=".45"/>
        <circle class="cls-84" cx="265.17" cy="28.5" r=".85"/>
        <circle class="cls-84" cx="264.04" cy="25.6" r=".85"/>
        <circle class="cls-83" cx="265.57" cy="22.5" r=".61"/>
        <circle class="cls-83" cx="268.47" cy="22.27" r=".81"/>
        <line class="cls-62" x1="238.31" y1="16.6" x2="241.17" y2="16.85"/>
        <line class="cls-64" x1="239.47" y1="16.71" x2="240.11" y2="16.74"/>
        <line class="cls-1" x1="236.4" y1="17.24" x2="236.79" y2="19.78"/>
        <line class="cls-1" x1="270.64" y1="14.59" x2="268.31" y2="14.98"/>
        <polyline class="cls-39" points="236.44 22.82 235.38 15.61 246.53 16.6"/>
        <path class="cls-5" d="M267.92,16.18c.97,.29,2.15,.71,3,1.2"/>
        <g>
          <path class="cls-39" d="M241.26,18.79c4.38-2.19,9.05-3.35,13.67-3.49"/>
          <path class="cls-39" d="M275.01,31.75h0v26.02c0,.91-.74,1.65-1.65,1.65h-15.55s-1.87,0-1.87,0h-15.55c-.91,0-1.65-.74-1.65-1.65V31.75h0"/>
          <path class="cls-39" d="M258.62,15.29c4.86,.12,9.78,1.37,14.36,3.76"/>
        </g>
        <polyline class="cls-39" points="272.37 18.47 271.59 13.9 262.61 15.34"/>
        <line class="cls-1" x1="239.54" y1="14.26" x2="243.68" y2="11.72"/>
        <line class="cls-1" x1="247.64" y1="13.55" x2="251.31" y2="10.87"/>
        <line class="cls-3" x1="252.44" y1="11.86" x2="254.74" y2="12.9"/>
        <line class="cls-3" x1="259.45" y1="11.2" x2="263.21" y2="13.18"/>
        <polyline class="cls-39" points="267.98 10.32 263.59 12.52 259.36 10.24 255.14 12.19 250.91 10.24 247.34 12.84 243.83 10.61 238.18 14.12"/>
      </g>
      <g>
        <rect class="cls-114" x="325.11" y="38.88" width="8.44" height="2.93"/>
        <path class="cls-88" d="M342.43,25.79c1.48-2.25,2.35-4.91,2.4-7.82,.12-7.82-5.9-14.5-13.69-15.16-8.86-.75-16.29,6.23-16.29,14.94,0,2.98,.87,5.8,2.36,8.18,1.87,2.96,3,6.33,3,9.84v1.62c0,1,.81,1.81,1.81,1.81h15.23c.99,0,1.8-.8,1.81-1.8v-1.04c.05-3.78,1.3-7.41,3.38-10.56Z"/>
        <path class="cls-81" d="M344.55,17.65c.09,3.16-.8,6.06-2.39,8.47-2.08,3.16-3.33,6.79-3.37,10.56v.1c-.01,.99-.72,2.32-1.72,2.32l-6-.14,.09-2.28c.05-3.78,1.3-7.41,3.37-10.56,1.49-2.26,2.37-4.94,2.4-7.87,.08-6.91-4.68-12.96-11.18-14.67,2.04-.54,4.25-.66,6.53-.25,6.91,1.22,12.08,7.31,12.27,14.33Z"/>
        <g>
          <line class="cls-16" x1="339.51" y1="36.43" x2="343.58" y2="36.43"/>
          <line class="cls-16" x1="337.32" y1="33.97" x2="341.41" y2="33.97"/>
          <line class="cls-16" x1="335.39" y1="31.51" x2="339.34" y2="31.51"/>
        </g>
        <path class="cls-39" d="M334.49,39.68v9.07c.11,0,.22-.01,.34-.01,2.86,0,5.17,2.32,5.17,5.17s-2.31,5.17-5.17,5.17c-1.83,0-3.44-.95-4.36-2.38-.92,1.44-2.53,2.38-4.35,2.38-2.86,0-5.17-2.31-5.17-5.17s2.32-5.17,5.17-5.17c.11,0,.22,0,.33,.01v-9.07"/>
        <path class="cls-39" d="M318.41,8.04c-1.96,2.31-3.23,5.21-3.51,8.41"/>
        <g>
          <line class="cls-16" x1="327.7" y1="39.34" x2="327.7" y2="43.99"/>
          <line class="cls-16" x1="327.7" y1="45.75" x2="327.7" y2="47.09"/>
        </g>
        <path class="cls-90" d="M322.71,9.34s.02-.01,.03-.02c0,0,0,0,0,0,0,0,0,0,0,0,0,0,0,0,0,0,.01-.01,.22-.17,.23-.18,.12-.11,.26-.34,.29-.5,0,0,.04-.3,.04-.3,0,0-.04-.3-.04-.3,0,0-.11-.27-.11-.27,0,0-.18-.23-.18-.23,0,0-.23-.18-.23-.18-.08-.05-.18-.09-.27-.11l-.3-.04h0s0,0,0,0c0,0-.3,.04-.3,.04,0,0,0,0,0,0,0,0,0,0-.01,0-.1,.04-.2,.08-.29,.12,0,0,0,0-.01,0,0,0,0,0,0,0,0,0,0,0,0,0,0,0,0,0,0,0l-.23,.18c-.07,.07-.12,.15-.18,.23l-.11,.27-.04,.3,.04,.3c.03,.15,.1,.27,.2,.38,.05,.08,.12,.15,.2,.2,.07,.07,.15,.12,.25,.14,.09,.05,.18,.08,.28,.08,.15,.03,.3,.03,.45-.02,.11-.04,.22-.09,.32-.14,.13-.07,.24-.17,.32-.29,.1-.11,.17-.24,.2-.38,.05-.15,.05-.3,.02-.45,0-.15-.05-.29-.13-.42l-.18-.23c-.14-.14-.31-.24-.5-.29l-.3-.04c-.2,0-.39,.05-.57,.15-.02,0-.03,.02-.05,.02l.27-.11s0,0,0,0l1.27,1.65h0c-.13,.13-.27,.27-.4,.4,0,0,.01,0,.02,0l-.27,.11s.02,0,.03-.01l-.3,.04s0,0,0,0l-.3-.04s0,0,0,0l-.27-.11s0,0,0,0l-.23-.18h0c-.06-.08-.12-.15-.18-.23h0c-.04-.09-.08-.18-.11-.27h0c-.01-.1-.03-.2-.04-.3,0,0,0,0,0,0l.04-.3s0,0,0,0l.11-.27s0,0,0,0l.18-.23s0,0,0,0l.23-.18s-.03,.02-.04,.03c-.13,.07-.24,.17-.32,.29-.1,.11-.17,.24-.2,.38-.05,.15-.05,.3-.02,.45,0,.15,.05,.29,.13,.42l.18,.23c.14,.14,.31,.24,.5,.29l.3,.04c.2,0,.39-.05,.57-.15h0Z"/>
        <path class="cls-90" d="M319.73,13.35c.27-.59,.59-1.15,.96-1.69,.08-.13,.13-.27,.13-.42,.03-.15,.03-.3-.02-.45-.07-.26-.27-.54-.52-.67-.26-.14-.58-.21-.87-.11l-.27,.11c-.17,.1-.3,.23-.4,.4-.37,.53-.69,1.1-.96,1.69-.08,.13-.13,.27-.13,.42-.03,.15-.03,.3,.02,.45,.07,.26,.27,.54,.52,.67,.26,.14,.58,.21,.87,.11,.26-.09,.55-.26,.67-.52h0Z"/>
        <path class="cls-32" d="M317.65,25.3s2.31,3.29,2.92,6.92"/>
        <line class="cls-32" x1="315.77" y1="20.07" x2="316" y2="21.49"/>
        <path class="cls-39" d="M314.89,18.85c.19,2.57,1.01,4.99,2.32,7.07,1.87,2.96,3,6.33,3,9.84v1.62c0,1,.81,1.81,1.81,1.81"/>
        <path class="cls-27" d="M336.52,5.2s4.19,1.69,6.35,6.87"/>
        <path class="cls-45" d="M339.16,6.93c.63,.54,1.31,1.22,1.95,2.08"/>
        <path class="cls-39" d="M324.05,39.18h13.19c.99,0,1.8-.8,1.81-1.8v-1.04c.05-3.78,1.3-7.41,3.38-10.56,1.48-2.25,2.35-4.91,2.4-7.82,.12-7.82-5.9-14.5-13.69-15.16-4.25-.36-8.17,1.06-11.1,3.59"/>
      </g>
      <rect class="cls-114" x="91.99" y="174.76" width="23.59" height="1.79"/>
      <rect class="cls-97" x="77.57" y="190.15" width="51.08" height="26.88"/>
      <rect class="cls-78" x="77.57" y="214.11" width="51.08" height="2.91"/>
      <g>
        <path class="cls-106" d="M87.54,195.94h-4.42c-.29,0-.53-.24-.53-.53s.24-.53,.53-.53h4.42c.29,0,.53,.24,.53,.53s-.24,.53-.53,.53Z"/>
        <path class="cls-106" d="M90.56,194.09h-9.03c-.29,0-.53-.24-.53-.53s.24-.53,.53-.53h9.03c.29,0,.53,.24,.53,.53s-.24,.53-.53,.53Z"/>
        <path class="cls-106" d="M92.85,194.09h-.44c-.29,0-.53-.24-.53-.53s.24-.53,.53-.53h.44c.29,0,.53,.24,.53,.53s-.24,.53-.53,.53Z"/>
        <path class="cls-106" d="M84.9,192.23h-5.13c-.29,0-.53-.24-.53-.53s.24-.53,.53-.53h5.13c.29,0,.53,.24,.53,.53s-.24,.53-.53,.53Z"/>
        <path class="cls-106" d="M86.98,192.23h-.16c-.29,0-.53-.24-.53-.53s.24-.53,.53-.53h.16c.29,0,.53,.24,.53,.53s-.24,.53-.53,.53Z"/>
      </g>
      <rect class="cls-39" x="78.07" y="178.59" width="50.48" height="47.1" rx="8.43" ry="8.43"/>
      <polyline class="cls-39" points="115.39 175.69 115.39 178.54 92.14 178.54 92.14 175.33"/>
      <line class="cls-39" x1="98.33" y1="189.64" x2="127.96" y2="189.64"/>
      <line class="cls-39" x1="78.67" y1="189.64" x2="93.94" y2="189.64"/>
      <line class="cls-39" x1="78.67" y1="216.66" x2="127.96" y2="216.66"/>
      <g>
        <polygon class="cls-78" points="94.17 203.24 92.15 198.84 90.16 203.24 88.7 199.2 86.6 199.2 89.79 206.71 92.15 202.43 94.53 206.71 97.72 199.2 95.61 199.2 94.17 203.24"/>
        <polygon class="cls-78" points="103.48 201.78 100.32 201.78 100.32 199.2 98.54 199.2 98.54 206.3 100.32 206.3 100.32 203.33 103.48 203.33 103.48 206.3 105.26 206.3 105.26 199.2 103.48 199.2 103.48 201.78"/>
        <polygon class="cls-78" points="107.99 199.2 106.81 199.2 106.81 206.3 107.99 206.3 108.51 206.3 111.7 206.3 111.7 204.89 108.51 204.89 108.51 203.26 111.49 203.26 111.49 201.88 108.51 201.88 108.51 200.61 111.7 200.61 111.7 199.2 108.51 199.2 107.99 199.2"/>
        <polygon class="cls-78" points="117.28 199.2 115.84 201.87 114.4 199.2 112.36 199.2 114.94 203.42 114.94 206.3 116.75 206.3 116.75 203.41 119.32 199.2 117.28 199.2"/>
      </g>
      <path class="cls-114" d="M124.55,170.95c0,1.06-.43,2.01-1.12,2.71-.69,.69-1.65,1.12-2.71,1.12h-33.32c-2.12,0-3.83-1.72-3.83-3.83,0-.38,.06-.75,.16-1.1,.47,1.58,1.93,2.73,3.67,2.73h33.32c1.06,0,2.02-.43,2.71-1.12,.44-.45,.78-1,.96-1.61,.1,.35,.16,.72,.16,1.1Z"/>
      <g>
        <line class="cls-47" x1="84.26" y1="172.94" x2="93.69" y2="172.94"/>
        <line class="cls-47" x1="96.42" y1="172.94" x2="99.43" y2="172.94"/>
      </g>
      <g>
        <g class="cls-130">
          <path class="cls-97" d="M337.35,172.59c-.47,3.91-5.69,5.08-5.69,5.08,0,0-4.79-2.37-4.32-6.28,.47-3.91,6.19-9.29,6.19-9.29,0,0,4.29,6.58,3.82,10.49Z"/>
          <path class="cls-118" d="M335.55,173.99c-.33,2.73-3.96,3.54-3.96,3.54,0,0-3.34-1.65-3.01-4.38,.33-2.73,4.31-6.48,4.31-6.48,0,0,2.99,4.59,2.66,7.31Z"/>
          <g>
            <path class="cls-97" d="M332.49,180.75c-.68,.55-1.1,1.25-1.33,1.99-.98,3.07,1.59,6.23,4.79,5.9,.77-.08,1.53-.34,2.22-.89,2.74-2.22,4.08-9.11,4.08-9.11,0,0-7.02-.11-9.75,2.11Z"/>
            <path class="cls-97" d="M330.31,190.79c-.68,.55-1.1,1.25-1.33,1.99-.98,3.07,1.59,6.23,4.79,5.9,.77-.08,1.53-.34,2.22-.89,2.74-2.22,4.08-9.11,4.08-9.11,0,0-7.02-.11-9.75,2.11Z"/>
            <path class="cls-97" d="M328.3,199.08c-.84,.25-1.49,.74-1.98,1.33-2.07,2.47-.89,6.37,2.2,7.28,.74,.22,1.55,.27,2.39,.01,3.37-1.02,7.22-6.89,7.22-6.89,0,0-6.46-2.76-9.83-1.74Z"/>
            <path class="cls-97" d="M323.9,207.87c-.84,.25-1.49,.74-1.98,1.33-2.07,2.47-.89,6.37,2.2,7.28,.74,.22,1.55,.27,2.39,.01,3.37-1.02,7.22-6.89,7.22-6.89,0,0-6.46-2.76-9.83-1.74Z"/>
          </g>
          <path class="cls-99" d="M322.6,199.17c.59,.65,.9,1.41,1.02,2.17,.5,3.19-2.52,5.94-5.65,5.13-.75-.19-1.47-.57-2.06-1.22-2.38-2.62-2.66-9.66-2.66-9.66,0,0,6.98,.96,9.35,3.58Z"/>
          <path class="cls-99" d="M318.54,207.92c.59,.65,.9,1.41,1.02,2.17,.5,3.19-2.52,5.94-5.65,5.13-.75-.19-1.47-.57-2.06-1.22-2.38-2.62-2.66-9.66-2.66-9.66,0,0,6.98,.96,9.35,3.58Z"/>
          <path class="cls-97" d="M329.94,180.94c.41,.78,.51,1.59,.44,2.36-.32,3.21-3.94,5.11-6.76,3.53-.68-.38-1.28-.92-1.69-1.7-1.64-3.13-.13-10.01-.13-10.01,0,0,6.51,2.69,8.15,5.83Z"/>
          <path class="cls-118" d="M328.82,182.69c.25,.49,.32,.99,.27,1.47-.2,2-2.45,3.17-4.2,2.2-.42-.23-.79-.57-1.05-1.06-1.02-1.95-.08-6.22-.08-6.22,0,0,4.04,1.67,5.06,3.62Z"/>
          <path class="cls-117" d="M335.77,187.35c-.45,.32-.94,.44-1.42,.46-2,.06-3.46-2.02-2.72-3.88,.18-.45,.46-.86,.91-1.18,1.8-1.26,6.16-.89,6.16-.89,0,0-1.13,4.23-2.93,5.49Z"/>
          <path class="cls-118" d="M333.02,197.29c-.45,.32-.94,.44-1.42,.46-2,.06-3.46-2.02-2.72-3.88,.18-.45,.46-.86,.91-1.18,1.8-1.26,6.16-.89,6.16-.89,0,0-1.13,4.23-2.93,5.49Z"/>
          <path class="cls-117" d="M328.96,205.86c-.53,.15-1.03,.11-1.49-.03-1.92-.59-2.62-3.04-1.31-4.56,.31-.36,.72-.66,1.25-.81,2.11-.6,6.11,1.17,6.11,1.17,0,0-2.45,3.62-4.56,4.23Z"/>
          <path class="cls-118" d="M324.62,215.26c-.53,.15-1.03,.11-1.49-.03-1.92-.59-2.62-3.04-1.31-4.56,.31-.36,.72-.66,1.25-.81,2.11-.6,6.11,1.17,6.11,1.17,0,0-2.45,3.62-4.56,4.23Z"/>
          <path class="cls-99" d="M327.17,191.6c.41,.78,.51,1.59,.44,2.36-.32,3.21-3.94,5.11-6.76,3.53-.68-.38-1.28-.92-1.69-1.7-1.64-3.13-.13-10.01-.13-10.01,0,0,6.51,2.69,8.15,5.83Z"/>
          <path class="cls-39" d="M307.39,225.69s21.86-16.17,24.25-47.9"/>
          <path class="cls-39" d="M337.35,172.59c-.47,3.91-5.69,5.08-5.69,5.08,0,0-4.79-2.37-4.32-6.28,.47-3.91,6.19-9.29,6.19-9.29,0,0,4.29,6.58,3.82,10.49Z"/>
          <g>
            <path class="cls-39" d="M332.56,180.77c-.68,.55-1.1,1.25-1.33,1.99-.98,3.07,1.59,6.23,4.79,5.9,.77-.08,1.53-.34,2.22-.89,2.74-2.22,4.08-9.11,4.08-9.11,0,0-7.02-.11-9.75,2.11Z"/>
            <path class="cls-39" d="M330.37,190.82c-.68,.55-1.1,1.25-1.33,1.99-.98,3.07,1.59,6.23,4.79,5.9,.77-.08,1.53-.34,2.22-.89,2.74-2.22,4.08-9.11,4.08-9.11,0,0-7.02-.11-9.75,2.11Z"/>
            <path class="cls-39" d="M328.36,199.11c-.84,.25-1.49,.74-1.98,1.33-2.07,2.47-.89,6.37,2.2,7.28,.74,.22,1.55,.27,2.39,.01,3.37-1.02,7.22-6.89,7.22-6.89,0,0-6.46-2.76-9.83-1.74Z"/>
            <path class="cls-39" d="M323.97,207.89c-.84,.25-1.49,.74-1.98,1.33-2.07,2.47-.89,6.37,2.2,7.28,.74,.22,1.55,.27,2.39,.01,3.37-1.02,7.22-6.89,7.22-6.89,0,0-6.46-2.76-9.83-1.74Z"/>
          </g>
          <path class="cls-117" d="M326.24,193.16c.25,.49,.32,.99,.27,1.47-.2,2-2.45,3.17-4.2,2.2-.42-.23-.79-.57-1.05-1.06-1.02-1.95-.08-6.22-.08-6.22,0,0,4.04,1.67,5.06,3.62Z"/>
          <path class="cls-80" d="M322.66,200.83c.38,.4,.57,.87,.65,1.34,.34,1.98-1.51,3.71-3.46,3.24-.47-.11-.92-.34-1.29-.74-1.5-1.6-1.74-5.97-1.74-5.97,0,0,4.34,.53,5.84,2.14Z"/>
          <path class="cls-117" d="M318.05,209.97c.38,.4,.57,.87,.65,1.34,.34,1.98-1.51,3.71-3.46,3.24-.47-.11-.92-.34-1.29-.74-1.5-1.6-1.74-5.97-1.74-5.97,0,0,4.34,.53,5.84,2.14Z"/>
          <g>
            <path class="cls-39" d="M322.65,198.85c.59,.65,.9,1.41,1.02,2.17,.5,3.19-2.52,5.94-5.65,5.13-.75-.19-1.47-.57-2.06-1.22-2.38-2.62-2.66-9.66-2.66-9.66,0,0,6.98,.96,9.35,3.58Z"/>
            <path class="cls-39" d="M318.58,207.6c.59,.65,.9,1.41,1.02,2.17,.5,3.19-2.52,5.94-5.65,5.13-.75-.19-1.47-.57-2.06-1.22-2.38-2.62-2.66-9.66-2.66-9.66,0,0,6.98,.96,9.35,3.58Z"/>
            <path class="cls-39" d="M329.98,180.62c.41,.78,.51,1.59,.44,2.36-.32,3.21-3.94,5.11-6.76,3.53-.68-.38-1.28-.92-1.69-1.7-1.64-3.13-.13-10.01-.13-10.01,0,0,6.51,2.69,8.15,5.83Z"/>
            <path class="cls-39" d="M327.21,191.28c.41,.78,.51,1.59,.44,2.36-.32,3.21-3.94,5.11-6.76,3.53-.68-.38-1.28-.92-1.69-1.7-1.64-3.13-.13-10.01-.13-10.01,0,0,6.51,2.69,8.15,5.83Z"/>
          </g>
        </g>
        <g>
          <path class="cls-97" d="M345.72,174.77c-.88,3.84-6.19,4.46-6.19,4.46,0,0-4.52-2.86-3.64-6.7,.88-3.84,7.13-8.59,7.13-8.59,0,0,3.58,6.99,2.7,10.83Z"/>
          <path class="cls-118" d="M343.79,175.97c-.61,2.68-4.31,3.11-4.31,3.11,0,0-3.15-1.99-2.54-4.67s4.97-5.99,4.97-5.99c0,0,2.49,4.87,1.88,7.55Z"/>
          <g>
            <path class="cls-97" d="M340.04,182.37c-.74,.48-1.22,1.13-1.53,1.84-1.29,2.95,.93,6.36,4.15,6.37,.77,0,1.56-.18,2.3-.66,2.95-1.92,5.01-8.63,5.01-8.63,0,0-6.97-.84-9.92,1.08Z"/>
            <path class="cls-97" d="M336.81,192.13c-.74,.48-1.22,1.13-1.53,1.84-1.29,2.95,.93,6.36,4.15,6.37,.77,0,1.56-.18,2.3-.66,2.95-1.92,5.01-8.63,5.01-8.63,0,0-6.97-.84-9.92,1.08Z"/>
            <path class="cls-97" d="M333.95,200.17c-.87,.17-1.56,.58-2.11,1.12-2.31,2.24-1.55,6.24,1.42,7.47,.71,.29,1.51,.43,2.38,.26,3.46-.66,7.9-6.09,7.9-6.09,0,0-6.13-3.42-9.59-2.76Z"/>
            <path class="cls-97" d="M328.66,208.44c-.87,.17-1.56,.58-2.11,1.12-2.31,2.24-1.55,6.24,1.42,7.47,.71,.29,1.51,.43,2.38,.26,3.46-.66,7.9-6.09,7.9-6.09,0,0-6.13-3.42-9.59-2.76Z"/>
          </g>
          <path class="cls-99" d="M328.28,199.66c.52,.71,.74,1.5,.79,2.27,.17,3.22-3.13,5.64-6.15,4.51-.72-.27-1.4-.72-1.92-1.43-2.09-2.85-1.63-9.88-1.63-9.88,0,0,6.84,1.69,8.93,4.54Z"/>
          <path class="cls-99" d="M323.32,207.93c.52,.71,.74,1.5,.79,2.27,.17,3.22-3.13,5.64-6.15,4.51-.72-.27-1.4-.72-1.92-1.43-2.09-2.85-1.63-9.88-1.63-9.88,0,0,6.84,1.69,8.93,4.54Z"/>
          <path class="cls-97" d="M337.48,182.3c.33,.82,.34,1.63,.19,2.39-.65,3.16-4.45,4.67-7.09,2.81-.63-.45-1.18-1.05-1.5-1.87-1.3-3.29,.91-9.97,.91-9.97,0,0,6.19,3.36,7.49,6.64Z"/>
          <path class="cls-118" d="M336.18,183.92c.2,.51,.21,1.02,.12,1.49-.4,1.96-2.77,2.9-4.41,1.74-.39-.28-.73-.65-.93-1.16-.81-2.04,.57-6.2,.57-6.2,0,0,3.85,2.09,4.65,4.13Z"/>
          <path class="cls-117" d="M342.61,189.28c-.48,.27-.98,.34-1.46,.31-2-.15-3.23-2.37-2.3-4.14,.22-.43,.55-.81,1.03-1.08,1.92-1.07,6.22-.24,6.22-.24,0,0-1.57,4.08-3.49,5.15Z"/>
          <path class="cls-118" d="M338.83,198.87c-.48,.27-.98,.34-1.46,.31-2-.15-3.23-2.37-2.3-4.14,.22-.43,.55-.81,1.03-1.08,1.92-1.07,6.22-.24,6.22-.24,0,0-1.57,4.08-3.49,5.15Z"/>
          <path class="cls-117" d="M333.9,206.98c-.54,.1-1.04,0-1.48-.19-1.84-.79-2.28-3.29-.82-4.67,.35-.33,.79-.58,1.33-.68,2.16-.38,5.95,1.8,5.95,1.8,0,0-2.82,3.35-4.98,3.73Z"/>
          <path class="cls-118" d="M328.59,215.87c-.54,.1-1.04,0-1.48-.19-1.84-.79-2.28-3.29-.82-4.67,.35-.33,.79-.58,1.33-.68,2.16-.38,5.95,1.8,5.95,1.8,0,0-2.82,3.35-4.98,3.73Z"/>
          <path class="cls-99" d="M333.61,192.6c.33,.82,.34,1.63,.19,2.39-.65,3.16-4.45,4.67-7.09,2.81-.63-.45-1.18-1.05-1.5-1.87-1.3-3.29,.91-9.97,.91-9.97,0,0,6.19,3.36,7.49,6.64Z"/>
          <path class="cls-39" d="M310.37,224.45s23.43-13.79,29.13-45.1"/>
          <path class="cls-39" d="M345.72,174.77c-.88,3.84-6.19,4.46-6.19,4.46,0,0-4.52-2.86-3.64-6.7,.88-3.84,7.13-8.59,7.13-8.59,0,0,3.58,6.99,2.7,10.83Z"/>
          <g>
            <path class="cls-39" d="M340.1,182.4c-.74,.48-1.22,1.13-1.53,1.84-1.29,2.95,.93,6.36,4.15,6.37,.77,0,1.56-.18,2.3-.66,2.95-1.92,5.01-8.63,5.01-8.63,0,0-6.97-.84-9.92,1.08Z"/>
            <path class="cls-39" d="M336.88,192.16c-.74,.48-1.22,1.13-1.53,1.84-1.29,2.95,.93,6.36,4.15,6.37,.77,0,1.56-.18,2.3-.66,2.95-1.92,5.01-8.63,5.01-8.63,0,0-6.97-.84-9.92,1.08Z"/>
            <path class="cls-39" d="M334.01,200.2c-.87,.17-1.56,.58-2.11,1.12-2.31,2.24-1.55,6.24,1.42,7.47,.71,.29,1.51,.43,2.38,.26,3.46-.66,7.9-6.09,7.9-6.09,0,0-6.13-3.42-9.59-2.76Z"/>
            <path class="cls-39" d="M328.73,208.48c-.87,.17-1.56,.58-2.11,1.12-2.31,2.24-1.55,6.24,1.42,7.47,.71,.29,1.51,.43,2.38,.26,3.46-.66,7.9-6.09,7.9-6.09,0,0-6.13-3.42-9.59-2.76Z"/>
          </g>
          <path class="cls-117" d="M332.53,194.06c.2,.51,.21,1.02,.12,1.49-.4,1.96-2.77,2.9-4.41,1.74-.39-.28-.73-.65-.93-1.16-.81-2.04,.57-6.2,.57-6.2,0,0,3.85,2.09,4.65,4.13Z"/>
          <path class="cls-80" d="M328.16,201.32c.33,.44,.48,.92,.51,1.4,.13,2-1.89,3.53-3.78,2.86-.45-.16-.88-.43-1.21-.87-1.32-1.75-1.11-6.12-1.11-6.12,0,0,4.26,.98,5.59,2.73Z"/>
          <path class="cls-117" d="M322.62,209.92c.33,.44,.48,.92,.51,1.4,.13,2-1.89,3.53-3.78,2.86-.45-.16-.88-.43-1.21-.87-1.32-1.75-1.11-6.12-1.11-6.12,0,0,4.26,.98,5.59,2.73Z"/>
          <g>
            <path class="cls-39" d="M328.35,199.35c.52,.71,.74,1.5,.79,2.27,.17,3.22-3.13,5.64-6.15,4.51-.72-.27-1.4-.72-1.92-1.43-2.09-2.85-1.63-9.88-1.63-9.88,0,0,6.84,1.69,8.93,4.54Z"/>
            <path class="cls-39" d="M323.4,207.62c.52,.71,.74,1.5,.79,2.27,.17,3.22-3.13,5.64-6.15,4.51-.72-.27-1.4-.72-1.92-1.43-2.09-2.85-1.63-9.88-1.63-9.88,0,0,6.84,1.69,8.93,4.54Z"/>
            <path class="cls-39" d="M337.55,181.99c.33,.82,.34,1.63,.19,2.39-.65,3.16-4.45,4.67-7.09,2.81-.63-.45-1.18-1.05-1.5-1.87-1.3-3.29,.91-9.97,.91-9.97,0,0,6.19,3.36,7.49,6.64Z"/>
            <path class="cls-39" d="M333.68,192.29c.33,.82,.34,1.63,.19,2.39-.65,3.16-4.45,4.67-7.09,2.81-.63-.45-1.18-1.05-1.5-1.87-1.3-3.29,.91-9.97,.91-9.97,0,0,6.19,3.36,7.49,6.64Z"/>
          </g>
        </g>
      </g>
      <g>
        <path class="cls-113" d="M28.3,183.9c1.23-2.55,2.96-4.91,5.24-6.6s5.16-2.64,7.98-2.33c.19,.02,.4,.05,.54,.19,.1,.1,.15,.24,.2,.38,1.79,5.62-.61,12.3-5.56,15.51l-8.51-.04,.12-7.11Z"/>
        <path class="cls-119" d="M28.38,186.46c.82-1.7,1.96-3.26,3.48-4.38s3.43-1.75,5.3-1.55c.13,.01,.26,.04,.36,.13,.07,.07,.1,.16,.13,.25,1.19,3.73-.4,8.17-3.69,10.3l-5.65-.03,.08-4.72Z"/>
        <path class="cls-122" d="M22.36,191.57c-2.63-1.54-6.07-1.44-8.46-3.33-2.92-2.31-3.17-6.63-2.7-10.32,.47-3.69,1.37-7.6-.1-11.02,.37-.47,1.1-.36,1.67-.18,5.02,1.57,9.56,4.81,12.43,9.22,2.87,4.41,3.97,10,2.71,15.11"/>
        <path class="cls-119" d="M23.37,191.41c-1.8-1.06-2.25-2.55-3.89-3.84-2-1.58-4.5-3.2-4.18-5.74s-1.15-8.56-2.15-10.91c.25-.32,.75-.24,1.14-.12,3.44,1.08,8.64,6.65,10.61,9.68,1.97,3.03,2.32,7.6,1.45,11.1"/>
        <path class="cls-90" d="M51.77,191.57h7.52c0,16.26-13.18,29.44-29.44,29.44S.4,207.83,.4,191.57H46.79"/>
        <path class="cls-114" d="M59,192.88c0,16.26-12.8,28.18-29.06,28.18S.56,208.76,.56,192.5l.32-.25c2.03,14.28,14.22,24.64,29.06,24.64s26.74-9.72,28.77-24.01h.3Z"/>
        <path class="cls-114" d="M40.49,219.8v1.69c-3.35,1.32-7,2.05-10.83,2.05s-7.48-.73-10.83-2.05v-2.14h.38c3.25,1.24,6,1.24,9.68,1.24,3.25,0,7.68-.97,10.6-1.94l1,1.15Z"/>
        <g>
          <path class="cls-114" d="M12.64,206.1H7.06c-.37,0-.67-.3-.67-.67s.3-.67,.67-.67h5.59c.37,0,.67,.3,.67,.67s-.3,.67-.67,.67Z"/>
          <path class="cls-114" d="M16.45,203.76H5.04c-.37,0-.67-.3-.67-.67s.3-.67,.67-.67h11.42c.37,0,.67,.3,.67,.67s-.3,.67-.67,.67Z"/>
          <path class="cls-114" d="M19.36,203.76h-.56c-.37,0-.67-.3-.67-.67s.3-.67,.67-.67h.56c.37,0,.67,.3,.67,.67s-.3,.67-.67,.67Z"/>
          <path class="cls-114" d="M9.3,201.41H2.82c-.37,0-.67-.3-.67-.67s.3-.67,.67-.67h6.48c.37,0,.67,.3,.67,.67s-.3,.67-.67,.67Z"/>
          <path class="cls-114" d="M11.93,201.41h-.2c-.37,0-.67-.3-.67-.67s.3-.67,.67-.67h.2c.37,0,.67,.3,.67,.67s-.3,.67-.67,.67Z"/>
        </g>
        <path class="cls-58" d="M40.67,219.54v3.92c0,1.23-1,2.23-2.23,2.23H21.25c-1.23,0-2.23-1-2.23-2.23v-4.37"/>
        <path class="cls-114" d="M26.32,214.23H10.59c-.25,0-.45-.2-.45-.45s.2-.45,.45-.45h15.73c.25,0,.45,.2,.45,.45s-.2,.45-.45,.45Z"/>
        <path class="cls-58" d="M21.32,191.44c-2.5-1.13-5.5-1.66-7.66-3.36-2.92-2.31-3.17-6.63-2.7-10.32,.47-3.69,1.37-7.6-.1-11.02,.37-.47,1.1-.36,1.67-.18,5.02,1.57,9.56,4.81,12.43,9.22,2.87,4.41,3.97,10,2.71,15.11"/>
        <path class="cls-58" d="M28.3,183.9c1.23-2.55,2.96-4.91,5.24-6.6s5.16-2.64,7.98-2.33c.19,.02,.4,.05,.54,.19,.1,.1,.15,.24,.2,.38,1.73,5.43-.86,12.25-5.5,15.6"/>
        <path class="cls-58" d="M16.32,174.08c4.73,4.52,7.64,11.95,8.4,17.05"/>
        <line class="cls-57" x1="7.29" y1="193.07" x2="23.92" y2="193.07"/>
        <line class="cls-58" x1="42.84" y1="191.57" x2="49.55" y2="191.57"/>
        <path class="cls-58" d="M32.83,220.86c-.07,0-.13,.01-.2,.02-.92,.09-1.84,.13-2.78,.13-15.52,0-28.23-12-29.36-27.23-.09-1.19,.86-2.21,2.06-2.21H40.42"/>
        <path class="cls-58" d="M51.77,191.57h5.29c1.25,0,2.24,1.06,2.14,2.3-.99,12.83-10.21,23.36-22.38,26.31"/>
        <ellipse class="cls-119" cx="15.43" cy="180.88" rx=".97" ry="1.77"/>
        <ellipse class="cls-119" cx="37.76" cy="185.79" rx="1.69" ry="1.08" transform="translate(-120.31 81.12) rotate(-45)"/>
        <ellipse class="cls-119" cx="33.24" cy="181.89" rx=".97" ry="1.77"/>
        <line class="cls-58" x1="10.05" y1="213.02" x2="23.93" y2="213.02"/>
        <line class="cls-58" x1="17.12" y1="180.98" x2="22.11" y2="182.6"/>
        <line class="cls-58" x1="20.13" y1="184.75" x2="23.37" y2="185.79"/>
        <line class="cls-58" x1="20.38" y1="179.1" x2="22.11" y2="175.64"/>
        <line class="cls-58" x1="22.2" y1="182.76" x2="23.92" y2="179.74"/>
        <g>
          <path class="cls-58" d="M28.21,191.19c3.21-2.74,7.36-6.43,9.89-12.08"/>
          <line class="cls-58" x1="33.24" y1="181.89" x2="34.22" y2="184.99"/>
          <line class="cls-58" x1="31.11" y1="184.01" x2="32.08" y2="187.56"/>
          <line class="cls-58" x1="31.85" y1="188.12" x2="34.53" y2="188.53"/>
          <line class="cls-58" x1="35.32" y1="183.91" x2="38.46" y2="183.98"/>
          <line class="cls-58" x1="33.73" y1="186.19" x2="35.77" y2="186.57"/>
        </g>
      </g>
      <g>
        <path class="cls-116" d="M396.94,182.82s-2.93-3.69-6.37-4.78c.08-.17,22.27-10.06,33.67,8.55"/>
        <path class="cls-116" d="M386.98,204.19s-3.63,5.71-1.93,7.04c4.99,3.9,14.1,2.14,14.1,2.14"/>
        <path class="cls-136" d="M388.54,204.12s-2.61,4.11-1.39,5.06c3.58,2.8,10.13,1.54,10.13,1.54"/>
        <path class="cls-116" d="M372.87,208.14c5.36-1.73,11.88-6.67,11.88-6.67,0,0,12.36,15.49,27.7,15.22,15.34-.27,22.81-10.88,22.81-10.88l-4.18-2.7,6.54-.11s-8.34-20.63-28.61-21.83c-16.31-.96-23.27,10.83-23.27,10.83-.44-9.11-10.45-11.22-10.45-11.22,0,0,5.9,14.35-2.41,27.35Z"/>
        <path class="cls-121" d="M435.07,205.22s-7.47,10.61-22.81,10.88c-15.34,.27-27.7-15.22-27.7-15.22,0,0-6.51,4.94-11.87,6.67,1.66-2.59,2.75-5.24,3.44-7.81,.22-.11,.44-.22,.65-.33,4.65-2.4,10.26-1.82,14.29,1.52,5.08,4.22,12.68,8.93,21.2,8.78,9.03-.16,15.34-3.9,18.99-6.95l3.81,2.46Z"/>
        <path class="cls-39" d="M380.57,183.14c-2.64-1.79-5.3-2.35-5.3-2.35,0,0,5.9,14.35-2.41,27.35,5.36-1.73,11.88-6.67,11.88-6.67,0,0,12.36,15.49,27.7,15.22,15.34-.27,22.81-10.88,22.81-10.88l-4.18-2.7,6.54-.11s-8.34-20.63-28.61-21.83"/>
        <path class="cls-39" d="M405.1,181.19c-13.53,.92-19.38,10.82-19.38,10.82-.12-2.55-.99-4.55-2.19-6.11"/>
        <path class="cls-39" d="M424.68,187.85s-10.06,9.05-5.28,27.41"/>
        <circle class="cls-90" cx="425.69" cy="195.92" r="1.89"/>
        <path class="cls-39" d="M386.98,204.19s-3.63,5.71-1.93,7.04c4.99,3.9,14.1,2.14,14.1,2.14"/>
        <path class="cls-39" d="M387.21,190.42c.08-.03,3.92-1.7,9.28-2.62"/>
        <path class="cls-39" d="M416.43,195.59s-3.5,6.72-1.13,15.95"/>
        <circle class="cls-39" cx="425.69" cy="196.02" r="1.89"/>
        <path class="cls-7" d="M396.64,177.36s7.07-2.15,15.61,.46"/>
        <path class="cls-39" d="M396.94,182.82s-2.93-3.69-6.37-4.78c.08-.17,22.27-10.06,33.67,8.55"/>
        <g>
          <ellipse class="cls-90" cx="413.56" cy="185.17" rx="1.93" ry="1.33" transform="translate(29.83 426.15) rotate(-56.25)"/>
          <ellipse class="cls-90" cx="417.57" cy="185.53" rx=".8" ry=".86" transform="translate(31.31 429.64) rotate(-56.25)"/>
        </g>
        <path class="cls-44" d="M402.08,188.09s6.96-.56,13.18,2.73"/>
        <path class="cls-44" d="M406.23,188.21c1.87,.19,4.17,.61,6.52,1.49"/>
        <path class="cls-39" d="M401.71,187.24c6.19-.25,13.24,1.03,18.77,6.39"/>
      </g>
      <path class="cls-114" d="M248.85,209.67v16.25h-14.66c7.77-5.68,12.18-9.48,14.66-16.25Z"/>
      <rect class="cls-114" x="235.15" y="166.4" width="20.52" height="2.53"/>
      <path class="cls-97" d="M227.69,195.55v-1.73h21.52v16.06h-20.37c-.64,0-1.15-.17-1.15-.38v-12.57"/>
      <path class="cls-103" d="M249.43,195.55v-1.73h11.49v16.06h-10.82c-.37,0-.67-.17-.67-.38v-12.57"/>
      <path class="cls-114" d="M227.69,181.56v-.26h21.52v2.44h-20.37c-.64,0-1.15-.03-1.15-.06v-1.91"/>
      <path class="cls-114" d="M241.68,181.56v-.26h19.52v2.44h-18.37c-.64,0-1.15-.03-1.15-.06v-1.91"/>
      <path class="cls-114" d="M234.93,169.57v-.26h19.52v2.44h-18.37c-.64,0-2.38-.02-2.38-.05l1.23-1.91"/>
      <path class="cls-78" d="M227.69,207.62v-.27h21.52v2.53h-20.37c-.64,0-1.15-.03-1.15-.06v-1.98"/>
      <path class="cls-38" d="M245.84,181.12h15.25v43.62c0,.64-.52,1.15-1.15,1.15h-14.09"/>
      <path class="cls-38" d="M227.69,186.41v-5.28h21.52v44.77h-20.37c-.64,0-1.15-.52-1.15-1.15v-34.12"/>
      <polyline class="cls-38" points="249.28 180.81 255.63 169.33 260.98 180.81"/>
      <polyline class="cls-38" points="255.37 169.38 234.84 169.38 227.67 180.81"/>
      <polyline class="cls-38" points="234.84 169.38 234.84 164.06 255.31 164.06 255.31 169.16"/>
      <line class="cls-38" x1="228.09" y1="222.1" x2="245.41" y2="222.1"/>
      <line class="cls-38" x1="253.15" y1="222.1" x2="260.89" y2="222.1"/>
      <g>
        <line class="cls-61" x1="227.95" y1="193.82" x2="234.78" y2="193.82"/>
        <line class="cls-61" x1="237.69" y1="193.82" x2="249.21" y2="193.82"/>
        <line class="cls-16" x1="227.95" y1="209.88" x2="248.5" y2="209.88"/>
      </g>
      <g>
        <line class="cls-61" x1="249.31" y1="193.82" x2="256.14" y2="193.82"/>
        <line class="cls-61" x1="258.06" y1="193.82" x2="261.01" y2="193.82"/>
        <line class="cls-61" x1="249.31" y1="209.88" x2="261.2" y2="209.88"/>
      </g>
      <line class="cls-14" x1="229.59" y1="196.47" x2="239.25" y2="196.47"/>
      <line class="cls-30" x1="235.12" y1="167.59" x2="240.34" y2="167.59"/>
      <line class="cls-30" x1="249.59" y1="165.8" x2="254.81" y2="165.8"/>
      <line class="cls-48" x1="250.5" y1="179.12" x2="255.72" y2="179.12"/>
      <line class="cls-55" x1="78.58" y1="219.29" x2="100.43" y2="219.29"/>
      <line class="cls-47" x1="106.44" y1="187.1" x2="128.29" y2="187.1"/>
      <rect class="cls-39" x="83.57" y="167.5" width="40.98" height="7.65" rx="3.83" ry="3.83"/>
      <circle class="cls-126" cx="241.02" cy="175.56" r="2.35"/>
      <path class="cls-105" d="M175.59,222.55l12.96-.07,.16-36.74c0-.86-.42-1.67-1.14-2.16h0c-1.43-.98-1.53-3.06-.19-4.17l.37-.31c.6-.5,.95-1.24,.95-2.01h0c0-4.48-3.87-7.92-8.35-7.92l-4.71-.23h.89s-4.91,0-4.91,0c-4.48,0-8.15,3.67-8.15,8.15h0c0,.78,.35,1.52,.95,2.02l.37,.31c1.34,1.11,1.24,3.19-.19,4.17h0c-.71,.49-1.14,1.29-1.14,2.16l-.16,36.74,13.15,.07h-.89Z"/>
      <path class="cls-107" d="M188.43,176.89c0,.8-.35,1.55-.96,2.06l-.38,.32c-.6,.51-.92,1.21-.96,1.93h-20.64c-.07-.61-.35-1.22-.87-1.66-.02-.03-.04-.06-.07-.07-.06-.08-.12-.13-.19-.19l-.37-.32s-.04-.04-.06-.06c-.45-.49-.7-1.13-.7-1.8,0-4.57,3.69-8.31,8.2-8.31h8.99c2.11,0,4.07,.82,5.53,2.15,.03,.02,.07,.06,.1,.09l.27,.29c1.32,1.48,2.11,3.44,2.11,5.58Z"/>
      <path class="cls-24" d="M184.23,169.73c-1.15-.62-2.46-.98-3.86-.98h-4.91"/>
      <path class="cls-24" d="M188.53,187.3v-1.75c0-.86-.42-1.67-1.14-2.16h0c-1.43-.98-1.53-3.06-.19-4.17l.37-.31c.6-.5,.95-1.24,.95-2.01h0c0-1.71-.53-3.3-1.44-4.61"/>
      <line class="cls-24" x1="188.53" y1="214.13" x2="188.53" y2="190.97"/>
      <path class="cls-24" d="M175.47,227.08h9.77c1.82,0,3.29-1.47,3.29-3.29v-6.28"/>
      <path class="cls-126" d="M179.59,167.08c0-1.9-1.54-3.44-3.44-3.44s-3.44,1.54-3.44,3.44v1.84h6.87s.01-1.84,.01-1.84Z"/>
      <line class="cls-43" x1="186.37" y1="200.21" x2="186.37" y2="192.2"/>
      <line class="cls-25" x1="186.37" y1="209.75" x2="186.37" y2="206.18"/>
      <line class="cls-73" x1="164.44" y1="187.3" x2="164.44" y2="220.55"/>
      <line class="cls-36" x1="164.44" y1="196.55" x2="164.44" y2="212.15"/>
      <line class="cls-36" x1="164.44" y1="190.03" x2="164.44" y2="191.2"/>
      <line class="cls-47" x1="163.78" y1="222.56" x2="188.55" y2="222.56"/>
      <line class="cls-47" x1="185.69" y1="190.06" x2="185.69" y2="215.75"/>
      <path class="cls-24" d="M170.36,227.08h-3.77c-1.82,0-3.29-1.47-3.29-3.29v-28.68"/>
      <line class="cls-24" x1="176.36" y1="227.08" x2="174.03" y2="227.08"/>
      <line class="cls-24" x1="166.01" y1="181.11" x2="185.96" y2="181.11"/>
      <path class="cls-4" d="M164.22,175.94s-.07-6.64,8.75-6.42"/>
      <path class="cls-1" d="M164.79,173.87c.54-1.19,1.56-2.63,3.53-3.52"/>
      <path class="cls-24" d="M163.3,191.11v-5.56c0-.86,.42-1.67,1.14-2.16h0c1.43-.98,1.53-3.06,.19-4.17l-.37-.31c-.6-.5-.95-1.24-.95-2.01h0c0-4.48,3.67-8.15,8.15-8.15h4.91"/>
      <line class="cls-70" x1="166.76" y1="180.24" x2="184.97" y2="180.24"/>
      <line class="cls-70" x1="185.16" y1="223.2" x2="166.94" y2="223.2"/>
      <g>
        <line class="cls-47" x1="163.3" y1="176.9" x2="173.19" y2="176.9"/>
        <line class="cls-47" x1="174.43" y1="176.9" x2="175.92" y2="176.9"/>
      </g>
      <line class="cls-47" x1="187.66" y1="173.96" x2="182.77" y2="173.96"/>
      <line class="cls-47" x1="168.83" y1="224.6" x2="163.95" y2="224.6"/>
      <g>
        <line class="cls-8" x1="175.66" y1="190.39" x2="180.56" y2="190.39"/>
        <line class="cls-8" x1="175.66" y1="194.79" x2="180.42" y2="194.79"/>
        <g>
          <line class="cls-8" x1="175.66" y1="207.9" x2="180.13" y2="207.9"/>
          <line class="cls-8" x1="175.66" y1="212.14" x2="180.1" y2="212.14"/>
        </g>
        <g>
          <line class="cls-8" x1="175.66" y1="199.19" x2="182.71" y2="199.19"/>
          <line class="cls-8" x1="175.66" y1="203.43" x2="180.1" y2="203.43"/>
        </g>
        <g>
          <circle class="cls-89" cx="170.06" cy="192.35" r="1.7"/>
          <circle class="cls-89" cx="170.06" cy="200.9" r="1.7"/>
          <circle class="cls-89" cx="170.06" cy="209.94" r="1.7"/>
        </g>
        <g>
          <circle class="cls-16" cx="169.77" cy="192.33" r="1.7"/>
          <circle class="cls-16" cx="169.77" cy="200.88" r="1.7"/>
          <circle class="cls-16" cx="169.77" cy="209.91" r="1.7"/>
        </g>
      </g>
    </g>
  </g>
</svg>