<svg xmlns="http://www.w3.org/2000/svg" viewBox="0 0 62.23 70.3"><defs><style>.cls-1{fill:#494949;}.cls-10,.cls-2,.cls-6,.cls-8,.cls-9{fill:none;}.cls-10,.cls-2{stroke:#1f1712;}.cls-10,.cls-2,.cls-9{stroke-linecap:round;stroke-linejoin:round;}.cls-2{stroke-width:0.91px;}.cls-3{fill:#303030;}.cls-4{fill:#ffc871;}.cls-5{fill:#ffefd7;}.cls-6{stroke:#303030;}.cls-6,.cls-8{stroke-miterlimit:10;}.cls-6,.cls-9{stroke-width:0.75px;}.cls-7{fill:#c3c6e3;}.cls-8{stroke:#edeef9;stroke-width:1.5px;}.cls-9{stroke:#fff;}.cls-10{stroke-width:0.56px;}</style></defs><title>Asset 17</title><g id="Layer_2" data-name="Layer 2"><g id="Layer_1-2" data-name="Layer 1"><rect class="cls-1" x="15.02" y="16.77" width="14.8" height="10.65" transform="translate(-8.9 18.96) rotate(-38.87)"/><rect class="cls-2" x="15.02" y="16.77" width="14.8" height="10.65" transform="translate(-8.9 18.96) rotate(-38.87)"/><rect class="cls-1" x="42.28" y="20.33" width="2.56" height="54.8" transform="translate(-20.31 37.91) rotate(-38.87)"/><polygon class="cls-3" points="29.09 27.7 27.1 29.31 25.36 27.22 27.35 25.61 29.09 27.7"/><rect class="cls-2" x="42.28" y="20.33" width="2.56" height="54.8" transform="translate(-20.31 37.91) rotate(-38.87)"/><rect class="cls-1" x="19.26" y="14.7" width="6.71" height="14.44" transform="translate(-8.75 19.05) rotate(-38.87)"/><rect class="cls-2" x="19.26" y="14.7" width="6.71" height="14.44" transform="translate(-8.75 19.05) rotate(-38.87)"/><rect class="cls-4" x="27.23" y="29.57" width="5.4" height="2.53" transform="translate(-12.74 25.78) rotate(-39.09)"/><polygon class="cls-5" points="31.87 28.96 27.68 32.36 27.04 31.56 31.23 28.15 31.87 28.96"/><rect class="cls-2" x="27.23" y="29.57" width="5.4" height="2.53" transform="translate(-12.74 25.78) rotate(-39.09)"/><rect class="cls-4" x="29.89" y="32.74" width="5.4" height="2.53" transform="translate(-14.15 28.16) rotate(-39.09)"/><polygon class="cls-5" points="34.5 32.09 30.25 35.33 29.7 34.73 33.88 31.32 34.5 32.09"/><rect class="cls-2" x="29.89" y="32.74" width="5.4" height="2.53" transform="translate(-14.15 28.16) rotate(-39.09)"/><polyline class="cls-6" points="24.62 28.49 16.56 18.48 20.5 15.44"/><line class="cls-6" x1="22.44" y1="28.38" x2="16.26" y2="20.75"/><path class="cls-7" d="M.45,23.86A12.46,12.46,0,0,1,15.79,43.49Z"/><path class="cls-8" d="M1.23,24a11.66,11.66,0,0,1,16.3,2.36,11.67,11.67,0,0,1-1.65,16.39Z"/><line class="cls-2" x1="11.35" y1="37.81" x2="9.81" y2="35.83"/><line class="cls-2" x1="13.02" y1="39.97" x2="12.5" y2="39.32"/><path class="cls-2" d="M8.76,34.49.45,23.86A12.46,12.46,0,0,1,15.79,43.49L14,41.31"/><line class="cls-9" x1="3.82" y1="25.99" x2="7.17" y2="30.25"/><path class="cls-7" d="M44.37,20.08A12.46,12.46,0,1,1,29,.45Z"/><path class="cls-8" d="M43.59,20a11.65,11.65,0,0,1-16.3-2.37A11.64,11.64,0,0,1,28.94,1.24Z"/><line class="cls-2" x1="33.47" y1="6.13" x2="35.01" y2="8.11"/><path class="cls-2" d="M36.06,9.45l8.31,10.63A12.46,12.46,0,1,1,29,.45l3.29,4.18"/><line class="cls-9" x1="41" y1="17.95" x2="37.65" y2="13.69"/><circle class="cls-3" cx="19.55" cy="20.71" r="0.92"/><circle class="cls-3" cx="20.36" cy="22.46" r="0.4"/><circle class="cls-3" cx="19.29" cy="19.05" r="0.4"/><circle class="cls-3" cx="20.98" cy="21.56" r="0.25"/><circle class="cls-3" cx="18.44" cy="19.55" r="0.17"/><line class="cls-10" x1="7.54" y1="32.48" x2="9.97" y2="30.67"/><line class="cls-10" x1="11.35" y1="29.6" x2="12.94" y2="28.36"/><line class="cls-10" x1="12.93" y1="30.83" x2="15.36" y2="29.02"/><line class="cls-10" x1="16.74" y1="27.95" x2="18.33" y2="26.71"/></g></g></svg>