<svg xmlns="http://www.w3.org/2000/svg" viewBox="0 0 332.29 301"><defs><style>.cls-1{fill:#dceff4;opacity:0.5;}.cls-2{fill:none;stroke:#fff;stroke-miterlimit:10;stroke-width:3px;}.cls-3{fill:#f4a13d;}.cls-4{fill:#fcc574;}.cls-5{fill:#cc6726;}.cls-6{fill:#ceeaff;}.cls-7{fill:#60341a;}.cls-8{fill:#fff;}</style></defs><title>Asset 270</title><g id="Layer_2" data-name="Layer 2"><g id="Layer_1-2" data-name="Layer 1"><circle class="cls-1" cx="166.23" cy="150.5" r="150.5"/><path class="cls-2" d="M157,204.59"/><rect class="cls-3" x="62.14" y="10.31" width="207.61" height="293.09" rx="38.38" ry="38.38" transform="translate(-29.67 274.66) rotate(-74.45)"/><path class="cls-4" d="M293.79,89.2,91.83,33c-19.79-5.51-35.68-.83-41,8.64l-3,7.52C50.68,38.87,69.18,37.77,89,43.28l202,56.21c19.79,5.51,33.51,18.3,30.65,28.58l2.86-10.29C327.3,107.51,313.58,94.71,293.79,89.2Z"/><rect class="cls-5" x="6.71" y="171.26" width="118.49" height="12" transform="translate(-67.91 43.65) rotate(-24.64)"/><rect class="cls-6" x="244.75" y="166.27" width="3" height="115.57" transform="translate(-85.11 191.79) rotate(-36.74)"/><rect class="cls-5" x="237.94" y="169.43" width="12" height="118.34" transform="translate(-87.72 186.59) rotate(-35.92)"/><path class="cls-7" d="M165.15,198.53a39.41,39.41,0,0,1-10.44-1.35c-4.45-1.24-15.72-5.51-24.25-18.45C123.78,168.6,43.81,47.2,43.81,47.2l10-6.6s80,121.4,86.65,131.53c6.3,9.55,14.3,12.62,17.45,13.5s11.59,2.38,21.91-2.54l143.52-68.52,5.17,10.83L185,193.92A45.93,45.93,0,0,1,165.15,198.53Z"/><rect class="cls-7" x="2.71" y="164.26" width="118.49" height="12" transform="translate(-65.35 41.34) rotate(-24.64)"/><path class="cls-7" d="M252.88,292.54a44.58,44.58,0,0,1-12-1.65l-208.41-58A44.38,44.38,0,0,1,1.64,178.24L36.73,52.18A44.43,44.43,0,0,1,91.38,21.32l208.41,58A44.38,44.38,0,0,1,330.65,134L295.57,260a44.44,44.44,0,0,1-42.69,32.5ZM79.49,31.7a32.44,32.44,0,0,0-31.2,23.7L13.21,181.46a32.38,32.38,0,0,0,22.51,39.87l208.41,58A32.38,32.38,0,0,0,284,256.82l35.08-126.06a32.38,32.38,0,0,0-22.51-39.87l-208.42-58A32.31,32.31,0,0,0,79.49,31.7Z"/><rect class="cls-7" x="242.94" y="162.43" width="12" height="118.34" transform="translate(-82.67 188.19) rotate(-35.92)"/><path class="cls-8" d="M220.4,152.94l74.84-34.35c3.51-1.61.46-6.78-3-5.18l-74.84,34.35c-3.51,1.61-.46,6.78,3,5.18Z"/><path class="cls-8" d="M183.24,169.59,206.41,159c3.51-1.61.46-6.78-3-5.18l-23.17,10.63c-3.51,1.61-.46,6.78,3,5.18Z"/></g></g></svg>